<svg width="60" height="60" viewBox="0 0 60 60" fill="none" xmlns="http://www.w3.org/2000/svg">
<rect width="60" height="60" rx="30" fill="#19242B"/>
<path fill-rule="evenodd" clip-rule="evenodd" d="M30 30.75C26.5482 30.75 23.75 33.5482 23.75 37V38C23.75 38.4142 23.4142 38.75 23 38.75C22.5858 38.75 22.25 38.4142 22.25 38V37C22.25 32.7198 25.7198 29.25 30 29.25C34.2802 29.25 37.75 32.7198 37.75 37V38C37.75 38.4142 37.4142 38.75 37 38.75C36.5858 38.75 36.25 38.4142 36.25 38V37C36.25 33.5482 33.4518 30.75 30 30.75Z" fill="white"/>
<path fill-rule="evenodd" clip-rule="evenodd" d="M30 22.75C28.2051 22.75 26.75 24.2051 26.75 26C26.75 27.7949 28.2051 29.25 30 29.25C31.7949 29.25 33.25 27.7949 33.25 26C33.25 24.2051 31.7949 22.75 30 22.75ZM25.25 26C25.25 23.3766 27.3766 21.25 30 21.25C32.6234 21.25 34.75 23.3766 34.75 26C34.75 28.6234 32.6234 30.75 30 30.75C27.3766 30.75 25.25 28.6234 25.25 26Z" fill="white"/>
</svg>
