<svg width="24" height="25" fill="none" xmlns="http://www.w3.org/2000/svg"><path d="M21.547 8.418c-.047-1.022-.212-1.722-.446-2.333a4.681 4.681 0 00-1.106-1.698 4.71 4.71 0 00-1.698-1.107c-.61-.238-1.31-.4-2.331-.446-1.026-.046-1.352-.058-3.956-.058-2.608 0-2.935.012-3.956.058-1.022.046-1.72.211-2.332.446a4.659 4.659 0 00-1.701 1.107 4.713 4.713 0 00-1.106 1.698c-.234.611-.4 1.31-.446 2.333-.046 1.026-.057 1.353-.057 3.958 0 2.61.011 2.937.057 3.959.046 1.022.212 1.721.446 2.332a4.68 4.68 0 001.106 1.7 4.64 4.64 0 001.698 1.106c.61.238 1.31.4 2.331.446 1.025.046 1.352.057 3.956.057 2.608 0 2.934-.011 3.956-.057 1.022-.046 1.72-.212 2.331-.446a4.676 4.676 0 001.698-1.107 4.713 4.713 0 001.106-1.698c.238-.612.4-1.311.446-2.333.046-1.026.057-1.353.057-3.959 0-2.605-.008-2.936-.053-3.958zm-1.725 7.84c-.042.938-.2 1.449-.33 1.783a2.99 2.99 0 01-.722 1.107 3.054 3.054 0 01-1.107.722c-.338.131-.848.289-1.782.33-1.01.047-1.313.059-3.879.059-2.565 0-2.869-.012-3.879-.058-.937-.042-1.448-.2-1.782-.33a2.988 2.988 0 01-1.106-.723 3.056 3.056 0 01-.722-1.107c-.13-.338-.288-.85-.33-1.783-.047-1.01-.058-1.314-.058-3.882 0-2.567.011-2.87.057-3.881.043-.938.2-1.449.33-1.783a2.99 2.99 0 01.723-1.107 3.053 3.053 0 011.106-.723c.338-.13.849-.288 1.782-.33 1.01-.046 1.314-.058 3.88-.058 2.565 0 2.868.012 3.878.058.938.042 1.448.2 1.782.33.446.173.769.385 1.107.723.338.338.541.657.722 1.107.13.338.288.849.33 1.783.046 1.01.058 1.314.058 3.881 0 2.568-.016 2.871-.058 3.882z" fill="#fff"/><path d="M12.002 7.442a4.931 4.931 0 00-4.931 4.934 4.931 4.931 0 109.863 0 4.929 4.929 0 00-4.932-4.934zm0 8.136a3.2 3.2 0 11.003-6.402 3.2 3.2 0 01-.003 6.402zm5.124-7.175a1.153 1.153 0 100-2.306 1.153 1.153 0 000 2.306z" fill="#fff"/><path d="M2.4 12.376c0 2.61.012 2.937.058 3.959.046 1.022.21 1.721.445 2.332a4.68 4.68 0 001.106 1.7c.53.53 1.068.864 1.698 1.106.61.238 1.31.4 2.331.446 1.026.046 1.352.057 3.956.057 2.608 0 2.935-.011 3.956-.057 1.022-.046 1.72-.212 2.332-.446a4.676 4.676 0 001.697-1.107c.53-.53.864-1.068 1.106-1.698.238-.612.4-1.311.446-2.333.046-1.026.058-1.353.058-3.959 0-2.61-.012-2.936-.058-3.958-.046-1.022-.211-1.722-.446-2.333a4.68 4.68 0 00-1.106-1.698 4.584 4.584 0 00-1.694-1.107c-.61-.238-1.31-.4-2.33-.446-1.026-.046-1.353-.058-3.957-.058-2.608 0-2.934.012-3.956.058-1.022.046-1.72.211-2.331.446a4.677 4.677 0 00-1.698 1.107 4.713 4.713 0 00-1.106 1.698c-.238.611-.403 1.31-.45 2.333C2.413 9.44 2.4 9.767 2.4 12.376zm1.732 0c0-2.563.012-2.87.058-3.881.042-.938.2-1.449.33-1.783a2.99 2.99 0 01.722-1.107 3.053 3.053 0 011.106-.723c.338-.13.85-.288 1.782-.33 1.01-.046 1.314-.058 3.88-.058 2.565 0 2.869.012 3.879.058.937.042 1.448.2 1.782.33.445.173.768.385 1.106.723.338.338.542.657.722 1.107.13.338.288.849.33 1.783.046 1.01.058 1.314.058 3.881 0 2.568-.012 2.871-.058 3.882-.042.938-.2 1.449-.33 1.783a2.991 2.991 0 01-.722 1.107 3.054 3.054 0 01-1.106.722c-.338.131-.849.289-1.782.33-1.01.047-1.314.059-3.88.059-2.565 0-2.868-.012-3.879-.058-.937-.042-1.448-.2-1.782-.33a2.989 2.989 0 01-1.106-.723 3.056 3.056 0 01-.722-1.107c-.13-.338-.288-.85-.33-1.783-.05-1.01-.058-1.318-.058-3.882z" fill="#fff"/></svg>