<svg width="385" height="48" viewBox="0 0 385 48" fill="none" xmlns="http://www.w3.org/2000/svg">
<path fill-rule="evenodd" clip-rule="evenodd" d="M21.513 32.9421H16.9486L13.5258 19.3831C13.3634 18.7594 13.0184 18.208 12.511 17.9481C11.2447 17.295 9.84937 16.7752 8.32715 16.5131V15.9911H15.6801C16.6949 15.9911 17.456 16.7752 17.5829 17.6859L19.3588 27.4665L23.921 15.9911H28.3586L21.513 32.9421ZM30.8957 32.942H26.585L30.1346 15.991H34.4453L30.8957 32.942ZM40.0227 20.687C40.1496 19.774 40.9107 19.252 41.7987 19.252C43.194 19.1209 44.714 19.3831 45.9826 20.0339L46.7437 16.3843C45.4751 15.8622 44.0798 15.6001 42.8135 15.6001C38.6296 15.6001 35.5852 17.9481 35.5852 21.2068C35.5852 23.6858 37.7416 24.9875 39.2639 25.7716C40.9107 26.5535 41.545 27.0755 41.4181 27.8574C41.4181 29.0303 40.1496 29.5523 38.8833 29.5523C37.3611 29.5523 35.8389 29.1614 34.4457 28.5083L33.6846 32.1602C35.2068 32.811 36.8537 33.0731 38.3759 33.0731C43.0672 33.202 45.9826 30.8562 45.9826 27.3354C45.9826 22.9016 40.0227 22.6417 40.0227 20.687ZM61.0688 32.942L57.646 15.991H53.9695C53.2084 15.991 52.4473 16.513 52.1936 17.2949L45.8555 32.942H50.2931L51.1788 30.4652H56.6312L57.1386 32.942H61.0688ZM54.6036 20.5559L55.8699 26.9445H52.3203L54.6036 20.5559Z" fill="white" fill-opacity="0.5"/>
<path fill-rule="evenodd" clip-rule="evenodd" d="M113.062 34.399C110.714 36.395 107.669 37.6 104.341 37.6C96.9158 37.6 90.8965 31.6007 90.8965 24.2C90.8965 16.7994 96.9158 10.8 104.341 10.8C107.669 10.8 110.714 12.005 113.062 14.0011C115.409 12.005 118.455 10.8 121.782 10.8C129.208 10.8 135.227 16.7994 135.227 24.2C135.227 31.6007 129.208 37.6 121.782 37.6C118.455 37.6 115.409 36.395 113.062 34.399Z" fill="white" fill-opacity="0.5"/>
<path fill-rule="evenodd" clip-rule="evenodd" d="M113.062 34.399C115.952 31.9412 117.785 28.284 117.785 24.2C117.785 20.1161 115.952 16.4589 113.062 14.0011C115.409 12.005 118.455 10.8 121.782 10.8C129.207 10.8 135.227 16.7994 135.227 24.2C135.227 31.6007 129.207 37.6 121.782 37.6C118.455 37.6 115.409 36.3951 113.062 34.399Z" fill="white" fill-opacity="0.15"/>
<path fill-rule="evenodd" clip-rule="evenodd" d="M113.062 34.3989C115.952 31.9411 117.785 28.2839 117.785 24.2C117.785 20.1162 115.952 16.459 113.062 14.0012C110.171 16.459 108.338 20.1162 108.338 24.2C108.338 28.2839 110.171 31.9411 113.062 34.3989Z" fill="#2F2B43" fill-opacity="0.15"/>
<path fill-rule="evenodd" clip-rule="evenodd" d="M175.84 17.221C175.229 17.9601 174.253 18.5431 173.277 18.4598C173.155 17.4604 173.633 16.3986 174.192 15.7428C174.802 14.9829 175.87 14.4415 176.734 14.3999C176.836 15.4409 176.439 16.4611 175.84 17.221ZM176.724 18.6576C175.864 18.6069 175.079 18.9223 174.445 19.1771C174.037 19.3411 173.692 19.4799 173.429 19.4799C173.134 19.4799 172.775 19.3337 172.371 19.1694C171.842 18.9542 171.237 18.7082 170.602 18.72C169.148 18.7408 167.796 19.584 167.053 20.9269C165.528 23.6127 166.657 27.5893 168.131 29.7754C168.853 30.858 169.718 32.0448 170.856 32.0031C171.357 31.9838 171.718 31.8272 172.091 31.6652C172.52 31.4786 172.966 31.2848 173.663 31.2848C174.335 31.2848 174.762 31.4736 175.172 31.6547C175.561 31.827 175.935 31.9924 176.49 31.9823C177.669 31.9615 178.412 30.8997 179.134 29.817C179.913 28.6551 180.255 27.5211 180.307 27.349L180.313 27.329C180.312 27.3278 180.302 27.3233 180.285 27.3153C180.025 27.1932 178.034 26.2603 178.015 23.7584C177.996 21.6585 179.594 20.5946 179.846 20.4271C179.861 20.4169 179.871 20.41 179.876 20.4064C178.859 18.8658 177.273 18.6992 176.724 18.6576ZM184.89 31.8678V15.6387H190.838C193.909 15.6387 196.055 17.8039 196.055 20.9686C196.055 24.1332 193.869 26.3193 190.757 26.3193H187.35V31.8678H184.89ZM187.35 17.7622H190.187C192.322 17.7622 193.542 18.9281 193.542 20.9789C193.542 23.0296 192.322 24.206 190.177 24.206H187.35V17.7622ZM204.18 29.9211C203.529 31.1911 202.095 31.9927 200.549 31.9927C198.261 31.9927 196.665 30.5977 196.665 28.4949C196.665 26.4129 198.21 25.2158 201.068 25.0388L204.139 24.8515V23.9562C204.139 22.6341 203.295 21.9159 201.79 21.9159C200.549 21.9159 199.644 22.5717 199.461 23.571H197.244C197.316 21.4682 199.248 19.938 201.861 19.938C204.678 19.938 206.508 21.4474 206.508 23.7896V31.8678H204.23V29.9211H204.18ZM201.21 30.0669C199.898 30.0669 199.064 29.4215 199.064 28.4326C199.064 27.4124 199.868 26.819 201.403 26.7254L204.139 26.5484V27.4645C204.139 28.9843 202.878 30.0669 201.21 30.0669ZM214.063 32.5028C213.077 35.3447 211.948 36.2816 209.548 36.2816C209.365 36.2816 208.755 36.2607 208.613 36.2191V34.2724C208.765 34.2933 209.142 34.3141 209.335 34.3141C210.423 34.3141 211.033 33.8456 211.409 32.6277L211.633 31.9094L207.464 20.0941H210.036L212.935 29.6817H212.985L215.883 20.0941H218.385L214.063 32.5028Z" fill="white" fill-opacity="0.5"/>
<path d="M276.719 33.9945H275.001V26.8488H278.943C279.654 26.7829 280.371 26.9026 281.023 27.1964L280.996 27.1863C281.524 27.4765 281.877 28.03 281.877 28.6644L281.873 28.7774V28.7724L281.875 28.8365C281.875 29.6565 281.381 30.3618 280.672 30.6689L280.659 30.6739C280.998 30.7954 281.281 31.003 281.492 31.2712L281.495 31.2746C281.734 31.669 281.833 32.1315 281.779 32.589L281.781 32.5789V33.9928H280.066V33.0986C280.147 32.6117 280.05 32.1119 279.791 31.6914L279.796 31.6998C279.618 31.5646 279.415 31.467 279.198 31.4127C278.981 31.3585 278.755 31.3488 278.534 31.3843L278.544 31.3826H276.719V33.9928V33.9945ZM276.719 28.3252V29.9298H278.794C279.087 29.9569 279.382 29.9044 279.648 29.778L279.638 29.783C279.746 29.7129 279.836 29.6168 279.898 29.5033C279.959 29.3898 279.992 29.2627 279.992 29.1334L279.99 29.0946C279.999 28.9657 279.97 28.8387 279.909 28.7252C279.847 28.6117 279.754 28.5181 279.641 28.4551L279.638 28.4535C279.382 28.3389 279.1 28.2924 278.821 28.3185H278.828L276.719 28.3252ZM261.491 33.9928H254.73V26.8488H261.597L263.698 29.1908L265.869 26.8488H271.324C273.261 26.8488 274.203 27.6199 274.203 29.2026C274.203 30.814 273.229 31.5969 271.233 31.5969H269.099V33.9912H265.78L263.678 31.6306L261.491 33.9928ZM267.398 27.6149L264.776 30.4327L267.398 33.3415V27.6149ZM256.432 31.0823V32.503H260.63L262.571 30.4073L260.705 28.3252H256.431V29.6244H260.18V31.0806L256.432 31.0823ZM269.099 28.3269V30.1458H271.304C271.979 30.1458 272.367 29.8016 272.367 29.2009C272.367 28.6273 272.006 28.3252 271.323 28.3252L269.099 28.3269ZM299.534 33.9962H296.237V32.4608H299.521C299.766 32.4947 300.016 32.4304 300.214 32.2819L300.213 32.2836C300.276 32.2248 300.327 32.1535 300.361 32.0743C300.396 31.995 300.413 31.9095 300.413 31.823V31.796C300.414 31.7106 300.395 31.6262 300.359 31.5487C300.323 31.4711 300.271 31.4024 300.206 31.3472C300.031 31.221 299.816 31.1644 299.602 31.1886H299.605L299.29 31.1784C297.747 31.1379 296.001 31.0907 296.001 28.9765C296.001 27.9473 296.646 26.8488 298.449 26.8488H301.853V28.3708H298.74C298.499 28.3439 298.256 28.3922 298.044 28.5091L298.051 28.5058C297.968 28.5606 297.901 28.6368 297.857 28.7265C297.814 28.8162 297.795 28.9159 297.803 29.0153V29.0136V29.0322C297.803 29.1459 297.839 29.2567 297.906 29.3488C297.972 29.4409 298.066 29.5096 298.174 29.5451L298.178 29.5468C298.392 29.6128 298.616 29.6402 298.839 29.6278H298.834L299.76 29.6514C300.459 29.5818 301.156 29.7896 301.702 30.2302L301.697 30.2268C301.748 30.2673 301.792 30.3112 301.831 30.3601L301.832 30.3618L301.853 33.0817C301.569 33.4133 301.208 33.67 300.802 33.8292C300.395 33.9883 299.956 34.0451 299.523 33.9945L299.534 33.9962ZM292.871 33.9962H289.544V32.4608H292.854C293.102 32.4932 293.353 32.4292 293.555 32.2819L293.551 32.2836C293.614 32.2246 293.664 32.1532 293.699 32.074C293.733 31.9948 293.75 31.9093 293.75 31.823V31.8061C293.75 31.7193 293.732 31.6334 293.696 31.5543C293.66 31.4752 293.608 31.4046 293.543 31.3472C293.365 31.2209 293.147 31.1644 292.93 31.1886H292.934L292.62 31.1784C291.083 31.1379 289.338 31.0907 289.338 28.9765C289.338 27.9473 289.979 26.8488 291.78 26.8488H295.201V28.3708H292.07C291.831 28.3442 291.59 28.3925 291.38 28.5091L291.386 28.5058C291.298 28.5668 291.227 28.6506 291.182 28.7483C291.137 28.8461 291.12 28.9542 291.131 29.0611C291.142 29.1681 291.183 29.2701 291.247 29.3561C291.312 29.4422 291.398 29.5093 291.498 29.5502L291.501 29.5519C291.718 29.6184 291.945 29.6458 292.171 29.6329H292.166L293.085 29.6565C293.787 29.5889 294.488 29.797 295.039 30.2369L295.034 30.2319C295.22 30.4363 295.361 30.6769 295.448 30.9386C295.536 31.2002 295.569 31.4773 295.544 31.7521V31.7437C295.549 33.2336 294.646 33.9928 292.866 33.9928L292.871 33.9962ZM288.521 33.9962H282.818V26.8472H288.516V28.3235H284.522V29.6228H288.423V31.0789H284.522V32.4996L288.521 32.5063V33.9912V33.9962ZM291.845 22.7542H288.368L287.703 21.1614H284.156L283.512 22.7542H281.514C280.617 22.8015 279.733 22.5188 279.03 21.9594L279.039 21.9645C278.705 21.5959 278.451 21.1616 278.294 20.6896C278.137 20.2175 278.081 19.7179 278.128 19.2227L278.126 19.2362C278.082 18.7318 278.142 18.2239 278.301 17.7432C278.46 17.2626 278.715 16.8193 279.051 16.4403L279.047 16.4437C279.402 16.1339 279.816 15.9003 280.264 15.7575C280.713 15.6147 281.186 15.5657 281.654 15.6135L281.641 15.6118H283.294V17.1355H281.674C281.437 17.1049 281.196 17.1271 280.969 17.2003C280.741 17.2735 280.533 17.396 280.358 17.559L280.36 17.5573C279.999 18.0193 279.824 18.5994 279.869 19.1838V19.1754C279.815 19.7759 279.984 20.3751 280.343 20.8593L280.338 20.8526C280.673 21.1267 281.103 21.2587 281.534 21.2204H281.528H282.294L284.708 15.6017H287.273L290.163 22.3509V15.6017H292.763L295.763 20.5759V15.6017H297.518V22.7423H295.082L291.842 17.3801V22.7423L291.845 22.7542ZM285.941 16.8183L284.765 19.6664H287.123L285.941 16.8183ZM269.408 22.7508H267.7V15.6068H271.628C272.345 15.5324 273.069 15.6543 273.722 15.9594L273.697 15.9493C273.959 16.0945 274.178 16.3074 274.331 16.5659C274.483 16.8243 274.564 17.1189 274.564 17.4189L274.561 17.537V17.532V17.5843C274.561 17.974 274.448 18.3554 274.237 18.6829C274.026 19.0103 273.725 19.2698 273.369 19.4302L273.356 19.4353C273.695 19.5635 273.98 19.7693 274.198 20.0326L274.201 20.0359C274.442 20.4317 274.541 20.8975 274.483 21.3571L274.485 21.347V22.7491H272.762L272.755 21.8481V21.7131C272.817 21.2725 272.719 20.8246 272.48 20.4493L272.485 20.4578C272.307 20.3265 272.104 20.2319 271.888 20.1795C271.673 20.127 271.449 20.1178 271.23 20.1524L271.24 20.1507H269.409V22.7491L269.408 22.7508ZM269.408 17.0933V18.6793H271.48C271.772 18.7111 272.068 18.6584 272.332 18.5275L272.323 18.5309C272.431 18.4652 272.521 18.3728 272.583 18.2625C272.645 18.1523 272.678 18.028 272.678 17.9015L272.676 17.8543C272.685 17.7261 272.655 17.5998 272.592 17.488C272.529 17.3761 272.434 17.2853 272.32 17.2266L272.317 17.2249C272.06 17.1147 271.78 17.0684 271.502 17.0899H271.507L269.408 17.0933ZM251.327 22.7508H247.858L247.201 21.158H243.644L242.983 22.7508H241.127L244.186 15.6068H246.722L249.626 22.3678V15.6068H252.412L254.646 20.451L256.699 15.6068H259.542V22.7474H257.787L257.784 17.1591L255.309 22.7491H253.81L251.328 17.1507V22.7491L251.327 22.7508ZM245.414 16.8183L244.252 19.6664H246.584L245.414 16.8183ZM277.284 22.7491H275.543V15.6068H277.286V22.7474L277.284 22.7491ZM266.509 22.7491H260.816V15.6068H266.519V17.0916H262.524V18.379H266.423V19.8453H262.52V21.2727H266.516V22.7474L266.509 22.7491Z" fill="white" fill-opacity="0.5"/>
<path d="M352.146 19.2205C349.443 19.2205 347.25 21.3319 347.25 23.9377C347.25 26.7083 349.348 28.7793 352.146 28.7793C354.874 28.7793 357.028 26.6808 357.028 23.9922C357.028 21.3194 354.888 19.2205 352.146 19.2205Z" fill="white" fill-opacity="0.5"/>
<path d="M324.353 19.3962H321.721V28.5761H324.339C325.728 28.5761 326.733 28.247 327.614 27.5169C328.66 26.6497 329.28 25.342 329.28 23.9906C329.28 21.2804 327.255 19.3962 324.353 19.3962ZM326.446 26.2909C325.88 26.8014 325.151 27.0221 323.993 27.0221H323.512V20.9507H323.993C325.151 20.9507 325.852 21.1574 326.446 21.6936C327.065 22.2443 327.434 23.097 327.434 23.9775C327.434 24.8599 327.065 25.7424 326.446 26.2909ZM330.106 28.5761H331.895V19.3962H330.106L330.106 28.5761ZM336.274 22.9175C335.199 22.5193 334.883 22.2566 334.883 21.7628C334.883 21.1842 335.446 20.7441 336.218 20.7441C336.755 20.7441 337.195 20.9642 337.665 21.4857L338.599 20.2626C337.829 19.5867 336.907 19.2431 335.901 19.2431C334.278 19.2431 333.038 20.3723 333.038 21.8712C333.038 23.1387 333.616 23.785 335.296 24.3922C335.998 24.6387 336.355 24.8031 336.535 24.9155C336.892 25.1496 337.072 25.4788 337.072 25.8638C337.072 26.6083 336.48 27.1581 335.68 27.1581C334.827 27.1581 334.139 26.7319 333.726 25.9336L332.571 27.0498C333.395 28.2594 334.387 28.798 335.751 28.798C337.609 28.798 338.916 27.5575 338.916 25.7824C338.916 24.323 338.312 23.6618 336.274 22.9175ZM339.48 23.9907C339.48 26.6915 341.601 28.7832 344.327 28.7832C345.098 28.7832 345.758 28.6309 346.571 28.2469V26.1397C345.854 26.8563 345.221 27.1446 344.409 27.1446C342.606 27.1446 341.325 25.8366 341.325 23.9775C341.325 22.2164 342.646 20.8259 344.327 20.8259C345.179 20.8259 345.827 21.1285 346.571 21.8581V19.7511C345.787 19.3533 345.139 19.1892 344.368 19.1892C341.655 19.1892 339.48 21.3232 339.48 23.9907ZM361.079 25.5626L358.629 19.3962H356.674L360.571 28.8106H361.534L365.499 19.3961H363.559L361.079 25.5626ZM366.313 28.5762H371.392V27.0221H368.102V24.5426H371.266V22.9882H368.102V20.9506H371.392V19.3964H366.313L366.313 28.5762ZM378.479 22.1054C378.479 20.3857 377.297 19.3962 375.231 19.3962H372.574V28.5761H374.365V24.8866H374.6L377.076 28.5761H379.279L376.386 24.7094C377.737 24.433 378.479 23.5103 378.479 22.1054ZM374.886 23.6215H374.365V20.8398H374.915C376.032 20.8398 376.638 21.3092 376.638 22.2026C376.638 23.1241 376.032 23.6215 374.886 23.6215Z" fill="white" fill-opacity="0.5"/>
</svg>
