<svg width="24" height="25" viewBox="0 0 24 25" fill="none" xmlns="http://www.w3.org/2000/svg">
<path fill-rule="evenodd" clip-rule="evenodd" d="M16.4697 16.846C16.7626 16.5531 17.2374 16.5531 17.5303 16.846L21.5303 20.846C21.8232 21.1389 21.8232 21.6138 21.5303 21.9067C21.2374 22.1996 20.7626 22.1996 20.4697 21.9067L16.4697 17.9067C16.1768 17.6138 16.1768 17.1389 16.4697 16.846Z" fill="white"/>
<path fill-rule="evenodd" clip-rule="evenodd" d="M11 4.12635C6.99594 4.12635 3.75 7.37229 3.75 11.3764C3.75 15.3804 6.99594 18.6264 11 18.6264C13.0057 18.6264 14.82 17.8129 16.1333 16.496C17.4421 15.1838 18.25 13.3751 18.25 11.3764C18.25 7.37229 15.0041 4.12635 11 4.12635ZM2.25 11.3764C2.25 6.54386 6.16751 2.62635 11 2.62635C15.8325 2.62635 19.75 6.54386 19.75 11.3764C19.75 13.7882 18.7732 15.9733 17.1954 17.5553C15.6121 19.1427 13.4202 20.1264 11 20.1264C6.16751 20.1264 2.25 16.2088 2.25 11.3764Z" fill="white"/>
</svg>
