<svg width="24" height="24" fill="none" xmlns="http://www.w3.org/2000/svg"><g clip-path="url(#clip0_180_3547)"><path d="M11.026 2.469a1 1 0 011.816 0L15.13 7.43a1 1 0 00.79.575l5.427.643a1 1 0 01.561 1.727l-4.012 3.71a1 1 0 00-.301.93l1.065 5.359a1 1 0 01-1.47 1.067l-4.768-2.669a1 1 0 00-.977 0l-4.768 2.67a1 1 0 01-1.469-1.068l1.065-5.36a1 1 0 00-.302-.929l-4.012-3.71a1 1 0 01.562-1.727l5.426-.643a1 1 0 00.79-.575l2.289-4.961z" fill="#F5AF40" stroke="#F5AF40" stroke-width="2" stroke-linecap="round" stroke-linejoin="round"/></g><defs><clipPath id="clip0_180_3547"><path fill="#fff" d="M0 0h24v24H0z"/></clipPath></defs></svg>