<svg width="90" height="90" fill="none" xmlns="http://www.w3.org/2000/svg"><path d="M0 45a45 45 0 1190 0 45 45 0 01-90 0z" fill="#EA0029"/><path d="M24.076 12.818a13.865 13.865 0 012.261-.155 3.504 3.504 0 012.302.575 2.118 2.118 0 01.776 1.726 2.337 2.337 0 01-.667 1.726 3.527 3.527 0 01-2.416.777 3.269 3.269 0 01-.576-.04v2.651H24.1l-.024-7.26zm1.657 3.354c.19.038.383.053.576.046.886 0 1.432-.448 1.432-1.196s-.46-1.088-1.306-1.088a2.878 2.878 0 00-.69.058l-.012 2.18zm9.747.817h-2.722v1.726h3.038v1.369H31.09V12.72h4.556v1.37H32.77v1.535h2.72l-.01 1.364zm5.223 3.274c-2.186 0-3.452-1.657-3.452-3.763 0-2.215 1.427-3.872 3.602-3.872 2.272 0 3.509 1.698 3.509 3.74 0 2.433-1.461 3.895-3.619 3.895h-.04zm.075-1.33c1.15 0 1.778-1.064 1.778-2.508 0-1.329-.628-2.473-1.778-2.473s-1.8 1.15-1.8 2.502c0 1.352.672 2.48 1.788 2.48h.012zm5.275-6.115a13.864 13.864 0 012.261-.155 3.498 3.498 0 012.301.575 2.124 2.124 0 01.783 1.726 2.303 2.303 0 01-.673 1.726 3.52 3.52 0 01-2.41.776 3.29 3.29 0 01-.576-.04v2.652h-1.657l-.029-7.26zm1.657 3.354c.19.038.383.053.575.046.886 0 1.439-.449 1.439-1.197s-.478-1.087-1.318-1.087a2.915 2.915 0 00-.696.058v2.18zm5.345-3.452h1.668v5.989h2.934v1.404h-4.602V12.72zm10.631 4.269h-2.721v1.726h3.02v1.369H59.28V12.72h4.551v1.37h-2.877v1.535h2.722l.011 1.364zm-45.943 6.524h2.03v7.295h3.579v1.726h-5.61v-9.02zm10.752 9.153c-2.658 0-4.234-2.02-4.234-4.602 0-2.699 1.726-4.712 4.384-4.712 2.761 0 4.268 2.07 4.268 4.55 0 2.969-1.771 4.747-4.406 4.747l-.012.017zm.092-1.617c1.375 0 2.163-1.3 2.163-3.06 0-1.617-.76-3.003-2.163-3.003-1.404 0-2.186 1.357-2.186 3.043 0 1.686.811 3.02 2.175 3.02h.011zm8.193 1.468l-2.877-9.004h2.232l1.099 3.809c.305 1.081.575 2.094.8 3.216h.04c.224-1.082.506-2.146.811-3.176l1.15-3.849H42.2l-3.032 9.004H36.78zm12.357-3.809h-3.314v2.14h3.7v1.669h-5.754v-9.004h5.54v1.669H45.8v1.875h3.314l.023 1.651zm7.761-5.195v5.178c0 1.559.575 2.347 1.628 2.347s1.657-.748 1.657-2.347v-5.178h2.025v5.051c0 2.779-1.398 4.102-3.751 4.102-2.267 0-3.59-1.271-3.59-4.13v-5.023h2.03zm7.772 6.921a5.12 5.12 0 002.255.575c.938 0 1.432-.385 1.432-.983 0-.599-.431-.886-1.513-1.26-1.495-.53-2.485-1.358-2.485-2.681 0-1.536 1.3-2.698 3.406-2.698a5.29 5.29 0 012.301.454l-.454 1.628a4.217 4.217 0 00-1.87-.425c-.88 0-1.312.414-1.312.863 0 .575.495.828 1.674 1.282 1.588.576 2.301 1.416 2.301 2.699 0 1.513-1.15 2.796-3.624 2.796a5.828 5.828 0 01-2.549-.576l.438-1.674zM40.358 41.549c-1.33 0-2.117-1.007-2.117-2.301a2.18 2.18 0 012.186-2.353 2.093 2.093 0 012.14 2.272c0 1.484-.892 2.37-2.203 2.37l-.006.012zm.046-.806c.684 0 1.081-.65 1.081-1.53s-.38-1.502-1.081-1.502c-.702 0-1.1.68-1.1 1.525 0 .846.41 1.507 1.094 1.507h.006zm3.21.759v-4.504h1.19l.933 1.65c.277.499.523 1.014.736 1.543a19.081 19.081 0 01-.08-1.882v-1.311h.937v4.504h-1.07l-.96-1.726a16.934 16.934 0 01-.783-1.587h-.029c.035.575.052 1.23.052 1.967v1.358l-.926-.012z" fill="#fff"/><path d="M80.888 55.033c-.45-.345-.53-.397-3.263-1.3 2.37-.575 2.474-.638 2.877-.914a3.175 3.175 0 001.386-2.877v-.127c-.195-1.852-2.583-5.361-4.194-6.144a3.164 3.164 0 00-3.17.19c-.442.288-.5.328-2.3 2.785-.179-2.877-.518-7.928-.576-8.4v-.213a3.153 3.153 0 00-2.33-2.238c-1.927-.483-7.024.955-8.393 2.365a3.176 3.176 0 00-.829 3.02l.052.213.098.196c.126.27.477.84 3.451 5.482l1.088 1.726c-2.647-1.087-2.756-1.093-3.302-1.099a3.123 3.123 0 00-2.716 1.502 5.603 5.603 0 00-.656 1.985 6.329 6.329 0 00-4.084-2.451 6.6 6.6 0 00-3.89.38 3.837 3.837 0 00-3.934-.064 3.187 3.187 0 00-.932.783v-1.577l-.121-.937-.04-.167a3.406 3.406 0 00-2.048-2.301 3.866 3.866 0 00-3.452.293 3.572 3.572 0 00-1.726 3.325v3.21a6.377 6.377 0 00-1.508-1.633c-1.731-1.191-3.86-1.594-6.334-1.163a6.69 6.69 0 00-3.56 1.784s0-.063-.047-.092a3.566 3.566 0 00-2.26-1.726c-1.663-.454-3.78.11-4.655 3.09 0 0-.138.483-.334 1.15l-.949-1.76a6.796 6.796 0 00-.293-.656l.063.075c0-.047-.063-.081-.086-.127-.023-.046-.092-.132-.133-.196a3.567 3.567 0 00-4.28-1.3 3.677 3.677 0 00-2.45 3.527 4.74 4.74 0 00.276 1.559l.046.132 4.09 8.336a3.452 3.452 0 00-2.687 2.998 3.612 3.612 0 000 .431 3.451 3.451 0 001.151 2.554c1.116 1.019 2.842 1.358 4.867.944 2.198-.432 3.452-1.76 4.35-4.603l1.351-4.234a7.558 7.558 0 001.997 3.694c1.087 1.081 3.083 2.3 6.391 1.83 2.457-.346 4.16-1.445 5.074-2.734l.058.311a3.512 3.512 0 001.933 2.175 3.751 3.751 0 003.17 0 3.273 3.273 0 001.323-1.047v1.334a3.63 3.63 0 002.042 3.521 3.843 3.843 0 003.222.087 3.498 3.498 0 001.99-2.215l.047-.15.132-.909v-.38c1.353.147 2.72-.1 3.935-.713a6.656 6.656 0 001.432-1.007h.898a3.424 3.424 0 003.285 0h2.554c1.726.967 4.24 1.726 5.592 1.473a3.153 3.153 0 002.462-2.002v-.052c.167-.477.196-.575.202-3.262 1.478 2.388 1.559 2.451 1.973 2.779a3.158 3.158 0 003.141.414c1.726-.702 4.395-4.073 4.66-5.925.023-.16.034-.322.035-.484a3.113 3.113 0 00-1.151-2.468" fill="#fff"/><path d="M60.223 51.294c-.42.673-.575 2.796-.449 4.205.024.372.11.738.253 1.082a.92.92 0 00.777.523c.207 0 .334 0 4.222-1.277l1.726-.575a1.047 1.047 0 00.754-1.013 1.116 1.116 0 00-.685-1.15l-1.22-.5c-4.176-1.727-4.366-1.79-4.602-1.79a.898.898 0 00-.805.46m9.378 12.876c.069-.196.074-.334.086-4.418v-1.824a1.047 1.047 0 00-.73-1.024 1.15 1.15 0 00-1.295.293l-.852 1.013c-2.928 3.452-3.054 3.596-3.124 3.803a.794.794 0 00-.045.368c.025.197.107.383.235.535.68.805 3.941 2.008 4.977 1.83a.92.92 0 00.736-.576m6.61-1.421c.984-.391 3.13-3.118 3.28-4.165a.914.914 0 00-.317-.88c-.161-.121-.287-.173-4.177-1.45l-1.725-.575a1.03 1.03 0 00-1.197.38 1.105 1.105 0 00-.12 1.328l.684 1.116c2.3 3.745 2.485 4.027 2.652 4.142a.892.892 0 00.92.098m-2.002-9.653c4.412-1.07 4.602-1.151 4.758-1.237a.904.904 0 00.38-.852v-.034c-.116-1.088-2.014-3.907-2.952-4.367a.937.937 0 00-.938.035c-.167.115-.293.282-2.658 3.515l-1.081 1.472a1.036 1.036 0 000 1.249 1.115 1.115 0 001.208.53v.04c.432-.142.872-.26 1.317-.351m-4.464-3.636c-.075-1.726-.604-9.544-.662-9.901a.942.942 0 00-.719-.656c-1.15-.282-5.43.932-6.23 1.726a.938.938 0 00-.276.886c.126.259 1.961 3.147 3.308 5.252l2.157 3.406c.788 1.283 1.433 1.082 1.645 1.018.213-.063.846-.264.777-1.76" fill="#FFD7CF"/><path d="M60.574 50.408c-.42.673-.575 2.796-.449 4.206.023.374.11.742.259 1.087a.91.91 0 00.77.517c.208 0 .335 0 4.224-1.27l1.725-.576a1.041 1.041 0 00.748-1.007 1.116 1.116 0 00-.678-1.15l-1.22-.495c-4.183-1.726-4.367-1.795-4.603-1.801a.92.92 0 00-.81.466m9.382 12.864c.07-.196.081-.328.087-4.413v-1.829a1.058 1.058 0 00-.73-1.024 1.15 1.15 0 00-1.295.293l-.852 1.013c-2.934 3.452-3.055 3.601-3.124 3.797a.864.864 0 00-.046.38c.023.196.106.38.236.529.679.805 3.935 2.008 4.977 1.83a.914.914 0 00.73-.576m6.622-1.421c.984-.391 3.124-3.118 3.273-4.165a.927.927 0 00-.31-.88c-.167-.121-.294-.173-4.177-1.445l-1.726-.575a1.053 1.053 0 00-1.196.38 1.116 1.116 0 00-.116 1.329l.685 1.116c2.301 3.745 2.48 4.027 2.652 4.142a.886.886 0 00.92.098M74.52 52.18c4.417-1.064 4.602-1.121 4.763-1.236a.904.904 0 00.373-.852v-.035c-.109-1.087-2.007-3.906-2.945-4.36a.92.92 0 00-.938 0c-.172.115-.299.282-2.663 3.515 0 0-1.065 1.455-1.082 1.473a1.053 1.053 0 000 1.254 1.105 1.105 0 001.202.523v.04c.433-.139.873-.256 1.318-.35m-4.465-3.614c-.075-1.754-.575-9.544-.661-9.906a.937.937 0 00-.714-.656c-1.15-.276-5.436.932-6.236 1.754a.938.938 0 00-.27.886c.126.26 1.961 3.147 3.308 5.259l2.157 3.4c.788 1.283 1.433 1.081 1.645 1.018.213-.063.846-.265.771-1.726" fill="#EA0029"/><path d="M15.4 67.011c.576.512 1.612.662 2.877.397 1.266-.264 1.95-.77 2.664-3.049l3.567-11.207a1.914 1.914 0 00-.04-1.496 1.3 1.3 0 00-.863-.62c-.639-.18-1.433-.162-1.928 1.547l-1.685 5.753-.184.627-3.573-6.599s-.236-.61-.242-.61a1.324 1.324 0 00-1.662-.54c-.938.356-1.249 1.196-.875 2.3l4.649 9.464c.05.128.093.258.126.392l.04.264a1.209 1.209 0 01-.35.875 1.151 1.151 0 01-.857.293h-.777a1.323 1.323 0 00-1.283 1.15 1.215 1.215 0 00.391 1.082m21.332-11.517a5.046 5.046 0 00-1.812-3.66c-1.087-.822-2.635-1.086-4.464-.764-2.301.397-3.67 2.036-3.981 4.746-.392 3.239.143 5.678 1.547 7.059 1.053 1.041 2.612 1.455 4.516 1.202 2.71-.38 3.924-1.87 3.924-2.813a1.249 1.249 0 00-1.03-1.317c-.35-.07-.65 0-1.306.575a3.382 3.382 0 01-3.014.909 2.25 2.25 0 01-1.582-1.392s-.115-.466-.11-.414c-.08-.42-.115-.835.144-1.002l.063-.046h5.955c.546 0 .828-.069.99-.247.327-.357.298-1.398.16-2.848m-3.055.863h-4.964c-.133-.092-.196-.259-.098-.753.06-.292.171-.57.328-.823l.195-.3a2.508 2.508 0 011.416-.885c1.726-.426 2.962.46 3.158 1.979.098.656.035.782-.035.782zm8.452-9.418a1.645 1.645 0 00-1.467.139 1.416 1.416 0 00-.633 1.403v14.193s.08.506.086.523a1.329 1.329 0 00.72.829 1.53 1.53 0 001.288 0 1.433 1.433 0 00.823-1.387V48.417s-.087-.684-.087-.701a1.197 1.197 0 00-.73-.766zm11.374 3.999a4.362 4.362 0 00-3.527.69s-.12.098-.167.127l-.098.052-.293.126-.086-.328-.07-.12-.028-.076a1.274 1.274 0 01-.08-.114 1.461 1.461 0 00-1.922-.27c-.374.212-.575.511-.575 1.403V66.36a1.455 1.455 0 00.765 1.49 1.601 1.601 0 001.363.058 1.272 1.272 0 00.73-.783l.087-.575V64.1l-.029-.392v-.172l.144-.46.438.294c.054.036.106.077.155.12l.132.087.144.092.144.063a4.642 4.642 0 003.992-.161c1.583-.823 2.365-2.301 2.549-4.758.38-4.925-.754-7.277-3.78-7.864m-.144 10.424c-1.967 0-2.3-1.726-2.341-3.06V56.96c.132-2.302.604-3.176 1.8-3.452a2.123 2.123 0 011.888.276c.696.575 1.006 1.726.978 3.728 0 2.301-.42 3.854-2.302 3.854" fill="#231F20"/><path d="M59.78 61.684a.823.823 0 11-.012 1.645.823.823 0 01.012-1.645zm0 1.519a.702.702 0 000-1.398.696.696 0 00-.696.707.684.684 0 00.696.69zm-.311-1.15h.351c.224 0 .334.085.334.275a.247.247 0 01-.254.26l.277.413h-.144l-.26-.408h-.166V63h-.138v-.949zm.138.425h.161c.133 0 .253 0 .253-.156 0-.155-.109-.15-.212-.15h-.202v.306z" fill="#EA0029"/><path d="M27.344 80.255l-.178 1.565c-.052.34-.098.661-.161.972.178-.259.391-.524.61-.788l1.03-1.226.425.173-.138 1.565c0 .368-.075.702-.127 1.007.167-.26.357-.524.576-.812l.966-1.236.5.207-2.013 2.439-.46-.19.12-1.501c.026-.342.068-.682.127-1.019-.196.286-.407.56-.632.823l-.984 1.15-.46-.19.299-3.123.5.184z" fill="#fff"/><path d="M31.418 81.82v1.57c0 .346 0 .668-.035.984.144-.276.322-.575.5-.857l.864-1.352.443.12.069 1.566v1.018c.137-.304.293-.6.466-.886l.8-1.346.523.138-1.726 2.652-.478-.12-.08-1.502a10.282 10.282 0 010-1.03 8.826 8.826 0 01-.518.892l-.828 1.26-.484-.127-.109-3.135.593.155zm4.309 1.064l.172 1.559c0 .345.058.667.07.984.114-.294.258-.576.408-.91l.713-1.432.455.07.23 1.552c.057.369.098.702.12 1.013a7.61 7.61 0 01.374-.926l.65-1.427.53.08-1.352 2.831-.495-.075-.253-1.507c-.052-.35-.092-.656-.115-1.018a9.496 9.496 0 01-.42.943l-.696 1.335-.49-.07-.442-3.106.54.104zm4.01 3.63a.357.357 0 01-.317-.42.368.368 0 01.409-.357.391.391 0 01-.087.777h-.005zm1.622-2.94l.575 1.807c.063.201.127.443.167.627.063-.179.138-.403.224-.616l.69-1.726h.576l-.932 2.094a4.7 4.7 0 01-1.15 1.83 1.581 1.581 0 01-.691.31l-.11-.466c.179-.045.345-.128.49-.241.204-.154.373-.35.494-.575a.404.404 0 00.046-.133.26.26 0 00-.034-.138l-.944-2.802.599.03zm3.002 1.698a.954.954 0 001.013 1.052c.285.01.569-.04.834-.143l.098.385a2.5 2.5 0 01-1.007.184 1.403 1.403 0 01-1.45-1.478 1.466 1.466 0 011.427-1.617 1.272 1.272 0 011.226 1.427 1.4 1.4 0 010 .259l-2.14-.07zm1.594-.38a.776.776 0 00-.742-.892.898.898 0 00-.846.88l1.588.012zm1.203-2.623h.54l.173 4.395h-.575l-.138-4.395zm1.628 2.323c-.035-.385-.064-.69-.11-.972l.49-.046.074.512a1.15 1.15 0 011.007-.673c.73-.07 1.323.5 1.404 1.404.097 1.075-.518 1.668-1.214 1.726a1.052 1.052 0 01-.967-.386l.144 1.622-.54.052-.288-3.239zm.615.748a.77.77 0 00.046.224.834.834 0 00.863.576c.575-.052.869-.576.805-1.237-.051-.575-.402-1.087-.983-1.036a.874.874 0 00-.765.742 1.5 1.5 0 000 .225l.034.506zm3.36.938a.361.361 0 01-.414-.34.368.368 0 01.316-.436.362.362 0 01.415.333.374.374 0 01-.311.443h-.006zm3.279-.759c-.242.17-.52.283-.81.333a1.422 1.422 0 01-1.761-1.22 1.536 1.536 0 011.277-1.88c.255-.061.521-.061.777 0l-.046.425a1.34 1.34 0 00-.645 0 1.048 1.048 0 00-.828 1.323 1.03 1.03 0 001.237.903 1.61 1.61 0 00.633-.264l.166.38zm1.956-.339a1.425 1.425 0 01-1.806-1.088 1.466 1.466 0 01.99-1.944 1.42 1.42 0 011.812 1.081 1.472 1.472 0 01-.99 1.95h-.006zm-.092-.397a1.032 1.032 0 00.547-1.381c-.138-.49-.576-1.03-1.15-.852a1.018 1.018 0 00-.576 1.375c.184.627.679 1.001 1.185.858h-.006zm1.426-2.303c-.132-.287-.252-.506-.368-.724l.432-.207.23.425a1.036 1.036 0 01.621-.903.874.874 0 011.019.178 1.14 1.14 0 01.138-.494 1.03 1.03 0 01.506-.478c.362-.172 1.007-.19 1.455.754l.76 1.593-.483.23-.731-1.535c-.247-.524-.575-.743-.984-.576a.708.708 0 00-.38.72.88.88 0 00.081.264l.8 1.68-.483.23-.771-1.622c-.208-.438-.547-.656-.92-.478a.759.759 0 00-.38.783.81.81 0 00.074.259l.783 1.64-.484.224-.914-1.962z" fill="#fff"/></svg>