<svg width="90" height="90" viewBox="0 0 90 90" fill="none" xmlns="http://www.w3.org/2000/svg">
<path d="M0.000488281 45.0005C0.000488281 36.1003 2.63969 27.4001 7.58436 19.9998C12.529 12.5996 19.5571 6.83187 27.7797 3.42593C36.0024 0.0199878 45.0504 -0.871165 53.7795 0.86517C62.5087 2.6015 70.5269 6.88734 76.8203 13.1807C83.1136 19.4741 87.3995 27.4923 89.1358 36.2214C90.8721 44.9506 89.981 53.9986 86.5751 62.2213C83.1691 70.4439 77.4014 77.472 70.0011 82.4166C62.6009 87.3613 53.9006 90.0005 45.0005 90.0005C33.0657 90.0005 21.6198 85.2594 13.1807 76.8203C4.74155 68.3812 0.000488281 56.9352 0.000488281 45.0005Z" fill="#EA0029"/>
<path d="M24.0765 12.8182C24.8247 12.7048 25.5808 12.6529 26.3375 12.6629C27.1481 12.5813 27.9618 12.7847 28.6387 13.2382C28.8931 13.4459 29.0958 13.71 29.2306 14.0095C29.3654 14.3091 29.4286 14.6359 29.4153 14.9641C29.4275 15.2821 29.3746 15.5992 29.2599 15.896C29.1451 16.1927 28.9709 16.4629 28.748 16.69C28.0669 17.2398 27.2056 17.5166 26.3317 17.4667C26.1391 17.4702 25.9466 17.4568 25.7564 17.4264V20.0785H24.0996L24.0765 12.8182ZM25.7334 16.1722C25.9227 16.2099 26.1158 16.2253 26.3087 16.2183C27.1947 16.2183 27.7412 15.7695 27.7412 15.0216C27.7412 14.2737 27.281 13.9343 26.4353 13.9343C26.2037 13.9256 25.9719 13.9449 25.7449 13.9918L25.7334 16.1722Z" fill="white"/>
<path d="M35.4793 16.9887H32.7581V18.7146H35.7957V20.0838H31.0897V12.72H35.6461V14.0892H32.7696V15.6252H35.4908L35.4793 16.9887Z" fill="white"/>
<path d="M40.703 20.2627C38.5169 20.2627 37.2512 18.6058 37.2512 16.5002C37.2512 14.2853 38.678 12.6284 40.8526 12.6284C43.125 12.6284 44.3619 14.3256 44.3619 16.3679C44.3619 18.8014 42.9007 20.2627 40.7433 20.2627H40.703ZM40.7778 18.9337C41.9284 18.9337 42.5555 17.8694 42.5555 16.4254C42.5555 15.0965 41.9284 13.9516 40.7778 13.9516C39.6272 13.9516 38.9771 15.1022 38.9771 16.4542C38.9771 17.8061 39.6502 18.9337 40.7663 18.9337H40.7778Z" fill="white"/>
<path d="M46.0532 12.8179C46.8014 12.7045 47.5575 12.6526 48.3141 12.6626C49.1248 12.5805 49.9387 12.7839 50.6154 13.2379C50.8705 13.4453 51.074 13.7092 51.2098 14.0087C51.3456 14.3082 51.4099 14.6352 51.3978 14.9638C51.4113 15.2824 51.3584 15.6004 51.2426 15.8975C51.1267 16.1946 50.9503 16.4644 50.7247 16.6897C50.0453 17.2386 49.1862 17.5154 48.3141 17.4663C48.1216 17.4698 47.9291 17.4563 47.7388 17.4261V20.0782H46.082L46.0532 12.8179ZM47.7101 16.1719C47.8994 16.2096 48.0925 16.225 48.2854 16.2179C49.1714 16.2179 49.7236 15.7692 49.7236 15.0213C49.7236 14.2734 49.2461 13.934 48.4062 13.934C48.1727 13.9252 47.939 13.9445 47.7101 13.9915V16.1719Z" fill="white"/>
<path d="M53.0546 12.72H54.7229V18.7088H57.657V20.1126H53.0546V12.72Z" fill="white"/>
<path d="M63.6862 16.9887H60.965V18.7146H63.9854V20.0838H59.2794V12.72H63.83V14.0892H60.9535V15.6252H63.6747L63.6862 16.9887Z" fill="white"/>
<path d="M17.7427 23.5132H19.7735V30.808H23.3519V32.5339H17.7427V23.5132Z" fill="white"/>
<path d="M28.4951 32.6659C25.8372 32.6659 24.2609 30.6466 24.2609 28.0635C24.2609 25.3654 25.9868 23.3518 28.6447 23.3518C31.4061 23.3518 32.9134 25.4229 32.9134 27.9024C32.9134 30.871 31.1415 32.6487 28.5066 32.6487L28.4951 32.6659ZM28.5871 31.0493C29.9621 31.0493 30.7503 29.7491 30.7503 27.9887C30.7503 26.3721 29.9909 24.9857 28.5871 24.9857C27.1834 24.9857 26.401 26.3434 26.401 28.029C26.401 29.7146 27.2122 31.0493 28.5756 31.0493H28.5871Z" fill="white"/>
<path d="M36.7795 32.5166L33.903 23.5132H36.1351L37.2339 27.3217C37.5389 28.4032 37.8092 29.4158 38.0336 30.5376H38.0739C38.2982 29.456 38.5801 28.3917 38.8851 27.3619L40.0357 23.5132H42.1988L39.167 32.5166H36.7795Z" fill="white"/>
<path d="M49.137 28.7081H45.8232V30.8483H49.5224V32.5166H43.7694V23.5132H49.3096V25.1816H45.8002V27.057H49.1139L49.137 28.7081Z" fill="white"/>
<path d="M56.8978 23.5132V28.6909C56.8978 30.25 57.4731 31.0381 58.5259 31.0381C59.5787 31.0381 60.1827 30.2902 60.1827 28.6909V23.5132H62.2078V28.5643C62.2078 31.343 60.8098 32.6662 58.4568 32.6662C56.1901 32.6662 54.8669 31.3948 54.8669 28.5356V23.5132H56.8978Z" fill="white"/>
<path d="M64.6697 30.4341C65.3673 30.7964 66.1389 30.9933 66.9248 31.0094C67.8626 31.0094 68.3573 30.6239 68.3573 30.0256C68.3573 29.4273 67.9259 29.1397 66.8443 28.7657C65.3485 28.2364 64.359 27.408 64.359 26.0848C64.359 24.5488 65.6592 23.3867 67.7648 23.3867C68.5562 23.3641 69.3426 23.5194 70.066 23.8412L69.6115 25.4693C69.0292 25.1856 68.3894 25.04 67.7418 25.0435C66.8615 25.0435 66.4301 25.4577 66.4301 25.9065C66.4301 26.4818 66.9248 26.7349 68.1042 27.1894C69.692 27.7647 70.4054 28.6046 70.4054 29.8876C70.4054 31.4006 69.2548 32.6835 66.781 32.6835C65.8989 32.6871 65.0275 32.4904 64.2324 32.1082L64.6697 30.4341Z" fill="white"/>
<path d="M40.3577 41.5487C39.0288 41.5487 38.2406 40.5419 38.2406 39.2475C38.2167 38.9465 38.2556 38.6438 38.3548 38.3586C38.4539 38.0734 38.6113 37.8119 38.8168 37.5907C39.0223 37.3695 39.2715 37.1934 39.5487 37.0736C39.8258 36.9537 40.1248 36.8927 40.4268 36.8945C40.7213 36.8869 41.0141 36.9416 41.286 37.0549C41.558 37.1683 41.8029 37.3377 42.0049 37.5522C42.2069 37.7667 42.3614 38.0213 42.4582 38.2996C42.555 38.5778 42.5921 38.8734 42.5669 39.1669C42.5669 40.6512 41.6752 41.5372 40.3635 41.5372L40.3577 41.5487ZM40.4037 40.7432C41.0883 40.7432 41.4853 40.0932 41.4853 39.2129C41.4853 38.3327 41.1056 37.7114 40.4037 37.7114C39.7019 37.7114 39.3049 38.3903 39.3049 39.236C39.3049 40.0816 39.7134 40.7432 40.398 40.7432H40.4037Z" fill="white"/>
<path d="M43.6138 41.5024V36.9978H44.8046L45.7366 38.6489C46.0143 39.1468 46.2603 39.6618 46.473 40.1907C46.4155 39.6154 46.3925 38.9883 46.3925 38.3095V36.9978H47.3302V41.5024H46.2602L45.2994 39.7765C45.0111 39.2612 44.7499 38.7312 44.517 38.1887H44.4882C44.5227 38.764 44.54 39.4198 44.54 40.1562V41.5139L43.6138 41.5024Z" fill="white"/>
<path d="M80.8875 55.0335C80.4387 54.6883 80.3582 54.6365 77.6255 53.7333C79.9957 53.158 80.0993 53.0947 80.502 52.8185C80.9666 52.5042 81.3396 52.0725 81.5831 51.5672C81.8266 51.062 81.932 50.5012 81.8885 49.942V49.8155C81.6929 47.963 79.3054 44.4537 77.6945 43.6713C77.1963 43.4208 76.6407 43.3064 76.0841 43.3397C75.5274 43.3731 74.9894 43.5529 74.5246 43.8611C74.0817 44.1488 74.0241 44.189 72.2234 46.6456C72.0451 43.7691 71.7057 38.7179 71.6481 38.2462V38.1369V38.0333C71.4977 37.4848 71.2018 36.9872 70.7916 36.5932C70.3814 36.1993 69.8723 35.9236 69.3182 35.7954C67.3909 35.3122 62.2937 36.7504 60.9245 38.1599C60.5372 38.5488 60.2573 39.0315 60.1121 39.5608C59.9669 40.0902 59.9614 40.6481 60.0961 41.1802L60.1479 41.3931L60.2457 41.5887C60.3722 41.8591 60.7232 42.4286 63.6975 47.0713L64.7848 48.7972C62.1384 47.7099 62.0291 47.7041 61.4826 47.6984C60.9384 47.6904 60.4016 47.8248 59.9253 48.0882C59.449 48.3515 59.0498 48.7348 58.7672 49.1999C58.426 49.8145 58.2035 50.4878 58.1113 51.1847C57.1209 49.867 55.6555 48.9877 54.0267 48.7339C52.7217 48.465 51.3659 48.5973 50.1376 49.1136C49.5486 48.7488 48.8717 48.5502 48.1789 48.5391C47.486 48.5279 46.8031 48.7046 46.2026 49.0503C45.8446 49.2488 45.5281 49.5145 45.2706 49.8327V48.2564L45.1498 47.3187L45.1095 47.1518C44.973 46.6343 44.7164 46.1563 44.3606 45.7564C44.0047 45.3566 43.5597 45.0463 43.0615 44.8506C42.5029 44.6277 41.9001 44.5381 41.3009 44.5891C40.7016 44.64 40.1226 44.83 39.6097 45.144C39.0423 45.4842 38.5806 45.9752 38.2759 46.5623C37.9711 47.1494 37.8354 47.8096 37.8838 48.4693V51.6794C37.4809 51.0508 36.9707 50.4977 36.3765 50.0456C34.6448 48.8547 32.5162 48.452 30.0424 48.8835C28.7019 49.1027 27.4598 49.7247 26.4813 50.6669C26.4813 50.6669 26.4813 50.6036 26.4353 50.5749C26.197 50.1475 25.8733 49.7737 25.4843 49.4768C25.0953 49.1799 24.6494 48.9662 24.1744 48.849C22.5117 48.3945 20.3946 48.9583 19.5202 51.9383C19.5202 51.9383 19.3821 52.4216 19.1865 53.0889L18.2373 51.3285C18.1511 51.1049 18.0532 50.8859 17.9439 50.6727L18.0071 50.7475C18.0071 50.7014 17.9439 50.6669 17.9208 50.6209C17.8978 50.5749 17.8288 50.4886 17.7885 50.4253C17.3304 49.7529 16.6561 49.2573 15.8776 49.0208C15.099 48.7843 14.263 48.8211 13.5083 49.1251C12.7817 49.3819 12.1542 49.8605 11.7144 50.4933C11.2746 51.1262 11.0448 51.8812 11.0575 52.6517C11.0616 53.1832 11.155 53.7102 11.3337 54.2108L11.3797 54.3431L15.4701 62.6792C14.765 62.835 14.1266 63.208 13.6446 63.7457C13.1627 64.2834 12.8615 64.9587 12.7834 65.6765C12.7748 65.8202 12.7748 65.9643 12.7834 66.108C12.786 66.5905 12.8897 67.0672 13.0879 67.5071C13.2861 67.9471 13.5743 68.3406 13.934 68.6623C15.0501 69.6806 16.776 70.02 18.801 69.6058C20.9987 69.1743 22.2528 67.8454 23.1503 65.0034L24.5023 60.7692C24.8056 62.1641 25.4977 63.4447 26.4986 64.4626C27.5859 65.5442 29.5822 66.7638 32.8902 66.2921C35.3467 65.9469 37.0496 64.8481 37.9643 63.5594L38.0218 63.8701C38.1698 64.3497 38.4189 64.792 38.7523 65.1672C39.0858 65.5423 39.4959 65.8415 39.9548 66.0447C40.4512 66.2761 40.9922 66.396 41.5398 66.396C42.0874 66.396 42.6284 66.2761 43.1247 66.0447C43.6497 65.8173 44.1059 65.4563 44.4479 64.9976V66.3323C44.3975 67.0561 44.5652 67.7784 44.9292 68.4059C45.2932 69.0335 45.837 69.5376 46.4902 69.8532C46.989 70.1 47.5354 70.2355 48.0916 70.2504C48.6479 70.2653 49.2007 70.1592 49.7119 69.9395C50.1863 69.7395 50.6106 69.4373 50.9547 69.0544C51.2988 68.6716 51.5541 68.2175 51.7025 67.7246L51.7485 67.575L51.8808 66.666V66.2863C53.2339 66.4335 54.6006 66.1857 55.8159 65.5729C56.3356 65.3019 56.8173 64.9634 57.2484 64.5662H58.1458C58.6495 64.8416 59.2143 64.986 59.7883 64.986C60.3624 64.986 60.9272 64.8416 61.4308 64.5662H63.9851C65.711 65.5327 68.2251 66.2921 69.5771 66.0389C70.1278 65.9527 70.6459 65.722 71.0785 65.3703C71.511 65.0186 71.8426 64.5585 72.0393 64.0369V63.9851C72.2062 63.5076 72.2349 63.4098 72.2407 60.7232C73.7192 63.1107 73.7998 63.174 74.214 63.5019C74.6547 63.8415 75.1773 64.0586 75.7289 64.1313C76.2804 64.2041 76.8414 64.1298 77.3551 63.9161C79.081 63.2142 81.7504 59.843 82.015 57.9905C82.0379 57.8304 82.0494 57.6689 82.0496 57.5072C82.0574 57.0356 81.9578 56.5683 81.7585 56.1407C81.5592 55.7131 81.2653 55.3365 80.899 55.0392" fill="white"/>
<path d="M60.2228 51.2938C59.8028 51.9669 59.6475 54.0898 59.774 55.4993C59.7977 55.8714 59.8832 56.2369 60.0272 56.5809C60.0979 56.7296 60.2073 56.8567 60.3439 56.9488C60.4805 57.0409 60.6393 57.0946 60.8038 57.1044C61.0109 57.1044 61.1375 57.1044 65.0265 55.8272L66.7524 55.2519C66.9711 55.1881 67.163 55.0547 67.299 54.872C67.435 54.6893 67.5077 54.4672 67.5061 54.2394C67.5317 53.9994 67.4789 53.7575 67.3554 53.55C67.232 53.3426 67.0446 53.1807 66.8214 53.0888L65.6018 52.5883C61.4251 50.8624 61.2353 50.7991 60.9994 50.7991C60.836 50.7952 60.6746 50.836 60.5326 50.9171C60.3907 50.9982 60.2736 51.1165 60.194 51.2593" fill="#FFD7CF"/>
<path d="M69.5716 64.135C69.6406 63.9394 69.6464 63.8013 69.6579 59.7167C69.6579 59.7167 69.6579 57.916 69.6579 57.893C69.6635 57.6662 69.5953 57.4437 69.4635 57.259C69.3317 57.0743 69.1436 56.9374 68.9273 56.869C68.7076 56.7782 68.4653 56.7577 68.2335 56.8102C68.0017 56.8627 67.7919 56.9858 67.6328 57.1624L66.7814 58.1749C63.8531 61.6267 63.7266 61.7705 63.6575 61.9776C63.6133 62.095 63.5975 62.2212 63.6115 62.3458C63.6371 62.5431 63.719 62.7289 63.8474 62.8808C64.5262 63.6863 67.7882 64.8886 68.8237 64.7103C68.9866 64.6889 69.1409 64.6242 69.2703 64.523C69.3998 64.4219 69.4999 64.2879 69.5601 64.135" fill="#FFD7CF"/>
<path d="M76.1703 62.714C77.1541 62.3228 79.3 59.5959 79.4495 58.5489C79.4809 58.3873 79.468 58.2202 79.4123 58.0653C79.3567 57.9103 79.2602 57.7733 79.1331 57.6687C78.972 57.5478 78.8455 57.4961 74.9564 56.2189L73.2305 55.6436C73.0171 55.5661 72.7841 55.5613 72.5677 55.63C72.3513 55.6987 72.1636 55.8369 72.0339 56.0233C71.8716 56.2013 71.772 56.4275 71.7501 56.6675C71.7283 56.9074 71.7856 57.1479 71.9131 57.3522L72.5977 58.4683C74.8989 62.2135 75.083 62.4954 75.2498 62.6105C75.3796 62.7095 75.5341 62.7709 75.6964 62.7882C75.8587 62.8054 76.0226 62.7778 76.1703 62.7083" fill="#FFD7CF"/>
<path d="M74.1678 53.0546C78.5804 51.9845 78.7703 51.904 78.9256 51.8177C79.0603 51.7237 79.1669 51.5947 79.2338 51.4447C79.3007 51.2947 79.3254 51.1292 79.3053 50.9662C79.3053 50.9662 79.3053 50.9662 79.3053 50.9317C79.1902 49.8444 77.2917 47.0254 76.354 46.5652C76.2084 46.488 76.0451 46.4506 75.8805 46.4567C75.7159 46.4627 75.5558 46.5121 75.4162 46.5997C75.2494 46.7147 75.1228 46.8816 72.7584 50.1148L71.6768 51.5875C71.541 51.7673 71.4675 51.9864 71.4675 52.2117C71.4675 52.437 71.541 52.6562 71.6768 52.8359C71.7958 53.0411 71.9771 53.203 72.1943 53.2981C72.4115 53.3933 72.6534 53.4168 72.8849 53.3652V53.4055C73.317 53.2636 73.7569 53.1464 74.2024 53.0546" fill="#FFD7CF"/>
<path d="M69.738 49.4187C69.6632 47.6928 69.134 39.8745 69.0764 39.5178C69.0275 39.3534 68.9347 39.2055 68.808 39.09C68.6813 38.9744 68.5255 38.8956 68.3573 38.8619C67.2067 38.58 62.9265 39.7939 62.1268 40.5878C62.0079 40.6989 61.9199 40.8389 61.8715 40.9943C61.823 41.1496 61.8159 41.3148 61.8507 41.4738C61.9772 41.7327 63.8124 44.6207 65.1586 46.7263L67.316 50.1321C68.1042 51.415 68.7485 51.2136 68.9614 51.1503C69.1742 51.0871 69.8071 50.8857 69.738 49.3899" fill="#FFD7CF"/>
<path d="M60.5738 50.408C60.1539 51.0811 59.9985 53.204 60.1251 54.6135C60.1482 54.9881 60.2358 55.3559 60.384 55.7008C60.4541 55.8484 60.5627 55.9744 60.6983 56.0655C60.834 56.1567 60.9917 56.2095 61.1549 56.2185C61.362 56.2185 61.4886 56.2185 65.3776 54.9471L67.1035 54.3718C67.3206 54.3081 67.5111 54.1753 67.646 53.9937C67.781 53.812 67.853 53.5913 67.8514 53.3651C67.8775 53.1257 67.8255 52.8843 67.7031 52.677C67.5808 52.4696 67.3946 52.3074 67.1725 52.2145L65.9529 51.7197C61.7705 49.9938 61.5864 49.9248 61.3505 49.919C61.186 49.9171 61.0239 49.9593 60.8813 50.0413C60.7386 50.1232 60.6205 50.2419 60.5393 50.385" fill="#EA0029"/>
<path d="M69.9224 63.249C69.9915 63.0534 70.003 62.9211 70.0087 58.8365C70.0087 58.8365 70.0087 57.03 70.0087 57.007C70.0125 56.7806 69.9435 56.559 69.812 56.3747C69.6805 56.1904 69.4934 56.0531 69.2781 55.983C69.0585 55.8922 68.8161 55.8717 68.5843 55.9242C68.3525 55.9768 68.1427 56.0998 67.9837 56.2764L67.1322 57.2889C64.1982 60.7407 64.0774 60.8903 64.0083 61.0859C63.9648 61.2074 63.9491 61.3372 63.9623 61.4656C63.9853 61.6619 64.0676 61.8465 64.1982 61.9949C64.877 62.8003 68.1333 64.0027 69.1745 63.8243C69.3366 63.8025 69.4899 63.7376 69.6184 63.6364C69.7469 63.5353 69.8459 63.4015 69.9052 63.249" fill="#EA0029"/>
<path d="M76.527 61.8278C77.5108 61.4366 79.6509 58.7097 79.8005 57.6627C79.8312 57.5016 79.8187 57.3352 79.7641 57.1806C79.7095 57.0259 79.6149 56.8885 79.4898 56.7824C79.323 56.6616 79.1964 56.6099 75.3131 55.3384L73.5872 54.7631C73.3734 54.6895 73.1416 54.6867 72.9261 54.7551C72.7106 54.8235 72.5228 54.9594 72.3906 55.1428C72.2309 55.3224 72.1334 55.5488 72.1127 55.7882C72.092 56.0277 72.1491 56.2674 72.2755 56.4718L72.9601 57.5879C75.2613 61.3331 75.4397 61.615 75.6123 61.73C75.7418 61.8296 75.8963 61.8914 76.0587 61.9087C76.2212 61.926 76.3852 61.898 76.5327 61.8278" fill="#EA0029"/>
<path d="M74.5191 52.1804C78.9374 51.116 79.1215 51.0585 79.2826 50.9435C79.4163 50.8488 79.5217 50.7195 79.5876 50.5696C79.6534 50.4196 79.6773 50.2545 79.6565 50.092C79.6565 50.092 79.6565 50.092 79.6565 50.0575C79.5472 48.9702 77.6487 46.1512 76.711 45.6967C76.569 45.6127 76.4071 45.5684 76.2421 45.5684C76.0772 45.5684 75.9152 45.6127 75.7733 45.6967C75.6007 45.8118 75.4741 45.9786 73.1096 49.2118C73.1096 49.2118 72.0453 50.6673 72.028 50.6846C71.8935 50.866 71.8209 51.0858 71.8209 51.3117C71.8209 51.5375 71.8935 51.7573 72.028 51.9387C72.1462 52.143 72.3268 52.304 72.5431 52.3982C72.7595 52.4924 73.0004 52.5149 73.2304 52.4623V52.5025C73.6634 52.3635 74.1031 52.2463 74.5479 52.1516" fill="#EA0029"/>
<path d="M70.0832 48.5382C70.0085 46.7836 69.5079 38.994 69.4216 38.6316C69.3737 38.4677 69.282 38.32 69.1562 38.2044C69.0305 38.0888 68.8756 38.0097 68.7083 37.9757C67.5577 37.6996 63.2717 38.9077 62.472 39.7304C62.3541 39.842 62.2672 39.9824 62.2198 40.1377C62.1724 40.293 62.1661 40.4579 62.2016 40.6164C62.3282 40.8753 64.1634 43.7633 65.5096 45.8746L67.667 49.2746C68.4551 50.5576 69.0995 50.3562 69.3123 50.2929C69.5252 50.2296 70.158 50.0283 70.0832 48.567" fill="#EA0029"/>
<path d="M15.4009 67.0112C15.9762 67.5232 17.0117 67.6728 18.2774 67.4082C19.5431 67.1435 20.2277 66.6373 20.941 64.3591L24.5079 53.1522C24.6019 52.9129 24.6468 52.6572 24.6398 52.4002C24.6329 52.1433 24.5744 51.8903 24.4676 51.6564C24.3757 51.4979 24.2513 51.3606 24.1026 51.2535C23.9539 51.1464 23.7842 51.072 23.6047 51.0351C22.9661 50.8568 22.1722 50.874 21.6774 52.5827L19.9918 58.3357L19.8077 58.9628L16.2351 52.3641C16.2351 52.3641 15.9992 51.7542 15.9935 51.7542C15.8295 51.4773 15.5702 51.2697 15.2642 51.1701C14.9582 51.0706 14.6263 51.086 14.3308 51.2135C13.3931 51.5701 13.0824 52.4101 13.4564 53.5147L18.1048 62.9783C18.1555 63.1059 18.1977 63.2365 18.2314 63.3695C18.2314 63.3695 18.2717 63.6284 18.2717 63.6342C18.2747 63.796 18.2452 63.9568 18.1849 64.107C18.1247 64.2573 18.0348 64.3938 17.9207 64.5086C17.8051 64.613 17.6696 64.6928 17.5222 64.7433C17.3749 64.7937 17.2188 64.8137 17.0635 64.802H16.2869C15.9708 64.809 15.6677 64.9288 15.4324 65.1399C15.1971 65.3509 15.0451 65.6392 15.0039 65.9526C14.9746 66.1512 14.9951 66.354 15.0633 66.5427C15.1316 66.7315 15.2456 66.9003 15.3951 67.0342" fill="#231F20"/>
<path d="M36.7273 55.5168C36.6969 54.8143 36.5199 54.1259 36.2079 53.4958C35.8958 52.8657 35.4554 52.3078 34.9151 51.8579C33.8278 51.0352 32.2802 50.7706 30.4508 51.0927C28.1496 51.4897 26.7803 53.1293 26.4697 55.839C26.0785 59.0779 26.6135 61.5172 28.0172 62.8979C29.07 63.9392 30.6291 64.3534 32.5333 64.1003C35.243 63.7206 36.4569 62.2305 36.4569 61.2871C36.4786 60.979 36.3854 60.6738 36.1952 60.4304C36.005 60.1871 35.7313 60.0229 35.4271 59.9696C35.0762 59.9006 34.777 59.9696 34.1212 60.5449C33.73 60.9295 33.2513 61.2132 32.7261 61.3715C32.2009 61.5299 31.6451 61.5581 31.1066 61.4539C30.7493 61.3687 30.4182 61.1972 30.1424 60.9545C29.8666 60.7118 29.6545 60.4053 29.5245 60.0617C29.5245 60.0617 29.4095 59.5957 29.4152 59.6475C29.3347 59.2275 29.3002 58.8133 29.559 58.6464L29.6223 58.6004H35.5767C36.1232 58.6004 36.4051 58.5314 36.5662 58.353C36.8941 57.9963 36.8654 56.955 36.7273 55.5053M33.6724 56.3682H28.7076C28.5753 56.2762 28.512 56.1094 28.6098 55.6146C28.6701 55.3233 28.7811 55.0449 28.9377 54.7919L29.1333 54.4928C29.4901 54.0445 29.9895 53.7318 30.5486 53.6068C32.2745 53.1811 33.5114 54.067 33.707 55.5858C33.8048 56.2417 33.7415 56.3682 33.6724 56.3682Z" fill="#231F20"/>
<path d="M42.1237 46.9505C41.8852 46.8579 41.6285 46.8221 41.3738 46.8461C41.1192 46.8701 40.8736 46.9531 40.6566 47.0885C40.4269 47.2365 40.2449 47.4477 40.1326 47.6968C40.0203 47.9459 39.9825 48.2222 40.0238 48.4923V62.6849C40.0238 62.6849 40.1044 63.1912 40.1101 63.2085C40.1641 63.3898 40.2562 63.5575 40.3802 63.7003C40.5042 63.8432 40.6573 63.9579 40.8292 64.0369C41.0311 64.1306 41.251 64.1792 41.4736 64.1792C41.6961 64.1792 41.916 64.1306 42.1179 64.0369C42.3783 63.915 42.5961 63.7176 42.7428 63.4704C42.8895 63.2231 42.9584 62.9374 42.9406 62.6504V48.4175C42.9406 48.4175 42.8543 47.7329 42.8543 47.7156C42.7993 47.5406 42.7048 47.3806 42.5781 47.2479C42.4514 47.1152 42.2959 47.0135 42.1237 46.9505Z" fill="#231F20"/>
<path d="M53.4978 50.9488C52.8946 50.8067 52.2681 50.7948 51.66 50.9138C51.0519 51.0328 50.4762 51.2801 49.9712 51.6391C49.9712 51.6391 49.8503 51.7369 49.8043 51.7657L49.7065 51.8175L49.4131 51.944L49.3268 51.6161L49.2578 51.4953L49.229 51.4205C49.2001 51.3837 49.1732 51.3453 49.1485 51.3055C48.9168 51.0331 48.5932 50.8551 48.2391 50.8053C47.885 50.7554 47.5249 50.8372 47.227 51.0351C46.853 51.2479 46.6517 51.5471 46.6517 52.4388V66.3611C46.6102 66.658 46.6615 66.9605 46.7984 67.2272C46.9354 67.4939 47.1514 67.7118 47.4168 67.8511C47.6258 67.9606 47.8564 68.0226 48.0921 68.0326C48.3278 68.0425 48.5629 68.0002 48.7803 67.9086C48.9516 67.8392 49.1058 67.7332 49.232 67.5981C49.3582 67.4629 49.4533 67.3019 49.5109 67.1262L49.5972 66.5509V64.1001L49.5684 63.7089V63.5939V63.5363L49.7123 63.0761L50.1495 63.3695C50.2039 63.4063 50.2558 63.4467 50.3048 63.4903L50.4372 63.5766L50.581 63.6686L50.7248 63.7319C51.3603 64.004 52.0486 64.1308 52.7393 64.1029C53.4301 64.075 54.1059 63.8933 54.7174 63.5708C56.2995 62.7482 57.0819 61.2696 57.266 58.8131C57.6457 53.8885 56.5123 51.5356 53.4862 50.9488M53.3424 61.3732C51.3749 61.3732 51.0412 59.6473 51.0009 58.3126V57.5359V56.9606C51.1333 54.6594 51.605 53.785 52.8016 53.5088C53.1159 53.4045 53.4502 53.3751 53.7779 53.4231C54.1055 53.471 54.4174 53.595 54.6886 53.785C55.3847 54.3603 55.6954 55.5109 55.6666 57.5129C55.6666 59.8141 55.2467 61.3674 53.3654 61.3674" fill="#231F20"/>
<path d="M59.7797 61.6839C59.9419 61.6851 60.1002 61.7341 60.2346 61.825C60.369 61.9158 60.4735 62.0443 60.5351 62.1944C60.5966 62.3445 60.6124 62.5094 60.5805 62.6685C60.5486 62.8275 60.4703 62.9736 60.3556 63.0883C60.2409 63.203 60.0949 63.2812 59.9358 63.3132C59.7768 63.3451 59.6118 63.3293 59.4618 63.2677C59.3117 63.2062 59.1831 63.1016 59.0923 62.9672C59.0015 62.8328 58.9524 62.6746 58.9513 62.5124C58.9497 62.4031 58.9701 62.2947 59.0112 62.1935C59.0522 62.0923 59.1132 62.0004 59.1904 61.9231C59.2677 61.8459 59.3596 61.7849 59.4608 61.7438C59.562 61.7027 59.6705 61.6824 59.7797 61.6839ZM59.7797 63.2027C59.9541 63.1869 60.1163 63.1064 60.2345 62.977C60.3526 62.8477 60.4181 62.6789 60.4181 62.5037C60.4181 62.3286 60.3526 62.1597 60.2345 62.0304C60.1163 61.9011 59.9541 61.8206 59.7797 61.8047C59.6873 61.8047 59.5958 61.8231 59.5106 61.8588C59.4254 61.8945 59.3481 61.9468 59.2833 62.0127C59.2186 62.0785 59.1675 62.1566 59.1332 62.2424C59.0989 62.3282 59.082 62.42 59.0836 62.5124C59.0828 62.6037 59.1003 62.6943 59.1351 62.7788C59.1699 62.8633 59.2212 62.94 59.2861 63.0043C59.351 63.0686 59.4281 63.1193 59.5128 63.1534C59.5976 63.1875 59.6883 63.2043 59.7797 63.2027ZM59.469 62.0521H59.82C60.0443 62.0521 60.1536 62.1384 60.1536 62.3283C60.1552 62.3622 60.1498 62.3961 60.1377 62.4278C60.1256 62.4596 60.1072 62.4885 60.0834 62.5128C60.0597 62.5371 60.0312 62.5562 59.9997 62.569C59.9682 62.5818 59.9345 62.588 59.9005 62.5871L60.1766 63.0014H60.0328L59.7739 62.5929H59.6071V63.0014H59.469V62.0521ZM59.6071 62.4778H59.7682C59.9005 62.4778 60.0213 62.4778 60.0213 62.3225C60.0213 62.1672 59.912 62.1729 59.8085 62.1729H59.6071V62.4778Z" fill="#EA0029"/>
<path d="M27.3442 80.2549L27.1659 81.8197C27.1141 82.1591 27.0681 82.4813 27.0048 82.792C27.1831 82.5331 27.396 82.2684 27.6146 82.0038L28.6444 80.7784L29.0701 80.951L28.9321 82.5158C28.9321 82.884 28.8573 83.2177 28.8055 83.5226C28.9723 83.2637 29.1622 82.9991 29.3808 82.7114L30.3473 81.4745L30.8478 81.6816L28.8343 84.1209L28.374 83.9311L28.4948 82.4295C28.52 82.0882 28.5622 81.7483 28.6214 81.4112C28.4253 81.6966 28.2141 81.9712 27.9886 82.2339L27.0048 83.3845L26.5446 83.1947L26.8437 80.0708L27.3442 80.2549Z" fill="white"/>
<path d="M31.4176 81.8199V83.3905C31.4176 83.7356 31.4176 84.0578 31.3831 84.3742C31.5269 84.0981 31.7053 83.7989 31.8836 83.517L32.7466 82.1651L33.1896 82.2859L33.2586 83.8507C33.2586 84.2246 33.2586 84.5583 33.2586 84.869C33.3961 84.5646 33.5517 84.2687 33.7246 83.983L34.5243 82.6368L35.0478 82.7749L33.3219 85.427L32.8444 85.3062L32.7638 83.8047C32.7466 83.4616 32.7466 83.1179 32.7638 82.7749C32.6088 83.0819 32.4359 83.3797 32.2461 83.6666L31.4176 84.9265L30.9344 84.7999L30.8251 81.6646L31.4176 81.8199Z" fill="white"/>
<path d="M35.7267 82.8838L35.8993 84.4429C35.8993 84.7881 35.9568 85.1102 35.9683 85.4267C36.0834 85.1333 36.2272 84.8514 36.3768 84.5177L37.0902 83.0852L37.5446 83.1542L37.7748 84.7075C37.8323 85.0757 37.8726 85.4094 37.8956 85.7201C37.9998 85.4035 38.1247 85.0941 38.2695 84.7938L38.9196 83.3671L39.4489 83.4476L38.0969 86.2781L37.6022 86.2033L37.349 84.696C37.2973 84.3451 37.257 84.0402 37.234 83.6777C37.1112 83.9996 36.971 84.3146 36.814 84.6212L36.1179 85.9559L35.6289 85.8869L35.1859 82.7803L35.7267 82.8838Z" fill="white"/>
<path d="M39.7366 86.5137C39.6873 86.509 39.6397 86.494 39.5965 86.4699C39.5534 86.4457 39.5157 86.4128 39.486 86.3733C39.4562 86.3339 39.435 86.2886 39.4237 86.2405C39.4123 86.1924 39.4111 86.1424 39.4201 86.0938C39.4214 86.0428 39.4333 85.9927 39.455 85.9465C39.4766 85.9004 39.5076 85.8593 39.546 85.8257C39.5844 85.7922 39.6294 85.767 39.678 85.7517C39.7267 85.7365 39.7779 85.7315 39.8286 85.7371C39.9277 85.7531 40.0168 85.8067 40.0776 85.8866C40.1383 85.9665 40.166 86.0667 40.1549 86.1665C40.1438 86.2662 40.0948 86.3579 40.018 86.4225C39.9412 86.4872 39.8425 86.5198 39.7423 86.5137H39.7366Z" fill="white"/>
<path d="M41.3587 83.5742L41.934 85.3806C41.9973 85.582 42.0606 85.8236 42.1009 86.0077C42.1641 85.8294 42.2389 85.605 42.3252 85.3921L43.0156 83.6662H43.5909L42.6589 85.7603C42.4227 86.4512 42.0287 87.0776 41.5083 87.5898C41.3067 87.7477 41.0698 87.8543 40.8179 87.9004L40.7086 87.4344C40.8866 87.3887 41.0532 87.3064 41.1976 87.1928C41.4019 87.0388 41.5706 86.8425 41.6924 86.6175C41.7153 86.5764 41.7309 86.5317 41.7384 86.4852C41.74 86.4369 41.7281 86.389 41.7039 86.3471L40.7604 83.5454L41.3587 83.5742Z" fill="white"/>
<path d="M44.3615 85.2716C44.3469 85.41 44.3628 85.5499 44.408 85.6815C44.4531 85.8131 44.5265 85.9332 44.6229 86.0335C44.7194 86.1338 44.8366 86.2118 44.9663 86.262C45.096 86.3123 45.2352 86.3336 45.374 86.3244C45.6589 86.3333 45.9427 86.2844 46.2082 86.1806L46.306 86.566C45.9866 86.696 45.6439 86.7586 45.2992 86.7501C45.1046 86.7568 44.9107 86.7229 44.7299 86.6506C44.549 86.5782 44.3852 86.4691 44.2489 86.33C44.1125 86.191 44.0066 86.0251 43.9378 85.8428C43.8691 85.6606 43.839 85.4661 43.8495 85.2716C43.8288 85.0701 43.85 84.8665 43.9119 84.6737C43.9737 84.4808 44.0749 84.3028 44.2089 84.1509C44.3429 83.9991 44.507 83.8766 44.6907 83.7913C44.8743 83.7059 45.0737 83.6595 45.2762 83.655C45.4532 83.6601 45.6272 83.7021 45.787 83.7783C45.9468 83.8545 46.0889 83.9632 46.2043 84.0975C46.3196 84.2318 46.4057 84.3888 46.4569 84.5583C46.5081 84.7277 46.5233 84.9061 46.5016 85.0818C46.5095 85.1679 46.5095 85.2545 46.5016 85.3407L44.3615 85.2716ZM45.9551 84.8919C45.9714 84.7836 45.9646 84.673 45.9351 84.5675C45.9056 84.4619 45.8541 84.3638 45.784 84.2796C45.7139 84.1954 45.6268 84.127 45.5284 84.0788C45.43 84.0306 45.3225 84.0039 45.2129 84.0002C44.987 84.0132 44.7742 84.1112 44.6174 84.2744C44.4606 84.4376 44.3712 84.6541 44.3672 84.8804L45.9551 84.8919Z" fill="white"/>
<path d="M47.1577 82.2686H47.6985L47.8711 86.6638H47.2958L47.1577 82.2686Z" fill="white"/>
<path d="M48.7856 84.5922C48.7511 84.2068 48.7223 83.9019 48.6763 83.62L49.1653 83.574L49.2401 84.086C49.3287 83.8913 49.4699 83.7251 49.6477 83.6062C49.8256 83.4873 50.033 83.4204 50.2468 83.4129C50.9775 83.3438 51.57 83.9134 51.6506 84.8166C51.7484 85.8924 51.1328 86.485 50.4367 86.5425C50.256 86.5675 50.0719 86.5451 49.9025 86.4775C49.7331 86.41 49.5841 86.2995 49.4702 86.157L49.614 87.7794L49.0732 87.8312L48.7856 84.5922ZM49.4011 85.3401C49.4048 85.4168 49.4203 85.4925 49.4472 85.5645C49.505 85.7437 49.6217 85.8981 49.7784 86.0025C49.9351 86.107 50.1225 86.1554 50.3101 86.1398C50.8854 86.088 51.1788 85.5645 51.1155 84.9029C51.0638 84.3276 50.7128 83.8156 50.1318 83.8674C49.9403 83.8894 49.7614 83.9742 49.6231 84.1084C49.4847 84.2426 49.3945 84.4188 49.3666 84.6095C49.361 84.6842 49.361 84.7592 49.3666 84.8339L49.4011 85.3401Z" fill="white"/>
<path d="M52.7611 86.2783C52.7113 86.2856 52.6604 86.2824 52.6119 86.2689C52.5633 86.2554 52.5181 86.2319 52.4791 86.2C52.4401 86.168 52.4082 86.1283 52.3855 86.0834C52.3627 86.0384 52.3496 85.9892 52.3469 85.9389C52.337 85.8892 52.3375 85.838 52.3483 85.7885C52.3591 85.739 52.3801 85.6923 52.4098 85.6513C52.4395 85.6102 52.4773 85.5757 52.5209 85.55C52.5646 85.5243 52.613 85.5078 52.6633 85.5016C52.7127 85.4944 52.7631 85.4974 52.8113 85.5106C52.8595 85.5237 52.9044 85.5467 52.9433 85.578C52.9822 85.6093 53.0142 85.6484 53.0373 85.6926C53.0604 85.7369 53.0741 85.7855 53.0775 85.8353C53.0874 85.8849 53.0872 85.936 53.0768 85.9855C53.0664 86.035 53.046 86.0819 53.017 86.1233C52.988 86.1647 52.9508 86.1998 52.9078 86.2264C52.8648 86.2531 52.8169 86.2707 52.7669 86.2783H52.7611Z" fill="white"/>
<path d="M56.0404 85.5186C55.798 85.6884 55.5209 85.8024 55.2292 85.8523C55.0325 85.902 54.8274 85.909 54.6278 85.8729C54.4281 85.8367 54.2385 85.7582 54.0717 85.6427C53.9049 85.5271 53.7648 85.3772 53.6608 85.203C53.5568 85.0287 53.4914 84.8343 53.4688 84.6326C53.4186 84.4245 53.4124 84.2082 53.4507 83.9975C53.4889 83.7869 53.5708 83.5865 53.6911 83.4094C53.8114 83.2323 53.9673 83.0822 54.149 82.9689C54.3306 82.8556 54.534 82.7815 54.746 82.7514C55.0013 82.6909 55.2673 82.6909 55.5226 82.7514L55.4766 83.1771C55.265 83.1247 55.0438 83.1247 54.8323 83.1771C54.687 83.2021 54.5487 83.2574 54.4263 83.3395C54.304 83.4215 54.2003 83.5285 54.1221 83.6534C54.0439 83.7783 53.9929 83.9183 53.9726 84.0642C53.9522 84.2102 53.9628 84.3588 54.0038 84.5003C54.0185 84.644 54.0632 84.783 54.1351 84.9083C54.2069 85.0336 54.3044 85.1424 54.421 85.2275C54.5377 85.3127 54.6709 85.3724 54.8121 85.4027C54.9534 85.4331 55.0994 85.4333 55.2407 85.4035C55.4682 85.3618 55.684 85.2715 55.8735 85.1389L56.0404 85.5186Z" fill="white"/>
<path d="M57.9962 85.1795C57.806 85.2362 57.6062 85.2526 57.4093 85.2276C57.2125 85.2027 57.023 85.1369 56.853 85.0346C56.683 84.9323 56.5362 84.7956 56.422 84.6333C56.3078 84.4711 56.2287 84.2868 56.1898 84.0922C56.1158 83.9002 56.083 83.6948 56.0936 83.4893C56.1042 83.2838 56.1579 83.0828 56.2512 82.8995C56.3445 82.7161 56.4754 82.5544 56.6353 82.4249C56.7952 82.2953 56.9805 82.2009 57.1793 82.1477C57.3694 82.0891 57.5697 82.0711 57.7672 82.0949C57.9647 82.1186 58.1551 82.1836 58.3259 82.2855C58.4967 82.3875 58.6442 82.5241 58.7589 82.6867C58.8735 82.8493 58.9528 83.0341 58.9915 83.2293C59.0655 83.4217 59.0983 83.6274 59.0877 83.8333C59.0772 84.0392 59.0235 84.2405 58.9303 84.4244C58.837 84.6082 58.7062 84.7704 58.5463 84.9005C58.3864 85.0306 58.2009 85.1256 58.002 85.1795H57.9962ZM57.9042 84.7826C58.0325 84.73 58.1489 84.6521 58.2464 84.5535C58.3438 84.4548 58.4204 84.3375 58.4714 84.2086C58.5225 84.0797 58.547 83.9417 58.5434 83.8031C58.5398 83.6645 58.5083 83.528 58.4507 83.4018C58.3126 82.9128 57.8754 82.3721 57.3001 82.5504C57.1689 82.5988 57.0491 82.6737 56.9481 82.7705C56.8472 82.8672 56.7672 82.9837 56.7132 83.1127C56.6592 83.2417 56.6324 83.3804 56.6344 83.5202C56.6364 83.6601 56.6672 83.798 56.7248 83.9254C56.9089 84.5525 57.4036 84.9264 57.9099 84.7826H57.9042Z" fill="white"/>
<path d="M59.3306 82.4807C59.1983 82.193 59.0775 81.9744 58.9624 81.7558L59.3939 81.5487L59.624 81.9744C59.6327 81.7808 59.6955 81.5935 59.8053 81.4338C59.9152 81.2742 60.0676 81.1485 60.2453 81.0712C60.412 80.9888 60.6005 80.9617 60.7836 80.9938C60.9667 81.0259 61.1349 81.1154 61.2636 81.2495C61.2718 81.0763 61.319 80.9072 61.4017 80.7548C61.5099 80.5417 61.6889 80.3729 61.9079 80.2773C62.2704 80.1047 62.9147 80.0874 63.3634 81.0309L64.1228 82.6245L63.6396 82.8546L62.909 81.3186C62.6616 80.7951 62.3337 80.5764 61.9252 80.7433C61.7956 80.8096 61.6897 80.9142 61.6217 81.0428C61.5538 81.1715 61.5272 81.318 61.5455 81.4624C61.5582 81.5543 61.5854 81.6436 61.626 81.727L62.4257 83.4069L61.9425 83.637L61.1716 82.0147C60.9644 81.5775 60.625 81.3588 60.2511 81.5372C60.1153 81.613 60.006 81.7287 59.9381 81.8687C59.8702 82.0086 59.8469 82.166 59.8714 82.3196C59.8821 82.4094 59.9074 82.4968 59.9462 82.5785L60.7286 84.2181L60.2453 84.4425L59.3306 82.4807Z" fill="white"/>
</svg>
