<svg width="48" height="48" viewBox="0 0 48 48" fill="none" xmlns="http://www.w3.org/2000/svg">
<mask id="mask0_133_1294" style="mask-type:luminance" maskUnits="userSpaceOnUse" x="0" y="0" width="48" height="48">
<path d="M48 0H0V48H48V0Z" fill="white"/>
</mask>
<g mask="url(#mask0_133_1294)">
<path d="M41.4283 17.7849C41.2194 16.4295 40.8531 15.1193 40.3296 13.8523C40.2262 13.5915 40.0689 13.2273 39.8254 12.7403C39.7026 12.4947 39.164 11.4603 37.7529 9.47569C37.2207 8.72794 36.9708 8.41764 36.9687 7.9134C36.9881 7.42855 37.1475 6.99542 37.4448 6.614C37.727 6.24767 38.0739 5.95676 38.4854 5.74559C39.2157 5.36633 39.7005 5.46761 39.7199 5.32969C39.7608 5.04309 37.7766 4.2738 35.5726 4.20054C34.7195 4.16821 33.8728 4.22208 33.0304 4.35784C32.4724 4.4268 32.1428 4.51515 31.6903 4.44404C31.0483 4.32767 30.4192 4.15313 29.8095 3.92256C29.3054 3.74801 28.7926 3.57562 28.1441 3.414C27.2888 3.20929 26.4206 3.08431 25.5416 3.03905C24.1692 2.94855 22.8033 3.01535 21.446 3.23946C20.3193 3.42693 19.2184 3.72 18.1476 4.11865C16.2086 4.82761 14.4549 5.85333 12.8822 7.19151C11.6628 8.27542 10.6071 9.50155 9.71518 10.8677C8.82325 12.2339 8.12737 13.6949 7.62539 15.2486C7.29577 16.2743 6.91228 17.4897 7.01784 19.1037C7.10402 20.3449 7.37332 21.5452 7.8236 22.7045L8.18769 23.5384C8.32342 23.825 8.37083 24.1267 8.32774 24.4435C8.29327 24.965 8.25879 25.4671 8.22432 25.9885C8.18985 26.51 8.20709 27.2039 8.3816 27.2729C8.6272 27.3418 8.9913 26.2838 9.79274 25.0339C10.4434 24.0233 11.2168 23.1139 12.1088 22.3059C13.0308 21.4374 14.0542 20.7069 15.1745 20.1165C15.9846 19.6812 16.8269 19.3235 17.6995 19.0391C18.0119 18.9356 19.2614 18.552 21.3448 18.3603C24.0443 18.1168 25.5416 18.412 25.6105 18.0823C25.6795 17.7526 24.2705 17.1083 23.5897 16.8152C22.004 16.1213 21.013 15.9813 21.0302 15.7205C21.0475 15.4598 21.9179 15.3025 22.3552 15.2335C22.618 15.1861 22.8809 15.1516 23.1459 15.1258C23.4109 15.0999 23.6759 15.087 23.9409 15.0827C24.2059 15.0784 24.473 15.087 24.738 15.1042C25.003 15.1236 25.268 15.1516 25.5308 15.1926C25.7937 15.2335 26.0544 15.2831 26.3129 15.3434C26.5714 15.4038 26.8278 15.477 27.0799 15.5589C27.3319 15.6408 27.5818 15.7335 27.8274 15.8347C28.073 15.936 28.3143 16.0502 28.5492 16.1709C28.7862 16.2937 29.0167 16.4252 29.2407 16.5653C29.467 16.7053 29.6867 16.8562 29.9 17.0135C30.1133 17.1729 30.3201 17.3389 30.5205 17.5156C30.7208 17.6901 30.9126 17.8754 31.0979 18.065C31.2831 18.2568 31.4598 18.4551 31.6278 18.6598C31.7959 18.8645 31.9553 19.0778 32.1083 19.2955C32.2591 19.5131 32.4013 19.7394 32.5349 19.9678C32.6684 20.1962 32.7912 20.4333 32.9054 20.6746C33.332 21.5818 33.6142 22.53 33.7521 23.5234C33.89 24.5168 33.8749 25.5059 33.709 26.4949C33.6573 26.8246 33.0821 29.9514 30.5743 32.2442C29.6091 33.091 28.5104 33.6944 27.2759 34.0521C26.8795 34.1793 26.4745 34.2202 26.0608 34.1728C26.0091 34.1728 25.9552 34.1556 25.9035 34.1556C25.4597 34.078 25.031 33.9508 24.6152 33.7741C23.482 33.2871 22.4888 32.5588 21.4266 31.9511C20.4248 31.3585 19.3799 30.8543 18.292 30.4405C17.316 30.0656 16.3163 29.7704 15.2951 29.5549C15.0754 29.5161 14.8169 29.4859 14.791 29.5549C14.7544 29.6562 15.2477 29.8695 15.7325 30.197C16.4758 30.6646 17.1717 31.1969 17.8158 31.7938C18.2596 32.214 18.6604 32.6708 19.018 33.1643C20.0176 34.4486 20.7178 35.8795 21.1207 37.4568C21.3943 38.4912 21.5214 39.5449 21.502 40.6159C21.4827 41.6869 21.3168 42.7341 21.0044 43.7599C20.6834 44.7684 20.2633 45.7359 19.7483 46.6582C19.4963 47.0892 19.227 47.5051 19.3067 47.5805C19.3864 47.6559 19.5825 47.4921 19.7656 47.3521C21.4568 45.9018 22.8787 44.2232 24.0313 42.3182C24.6238 41.3464 25.1452 40.3034 25.8238 39.3833C25.8734 39.3165 25.9251 39.254 25.9811 39.1915C26.2892 38.767 26.6597 38.4071 27.0949 38.1141C27.7219 37.7133 28.3488 37.5215 29.1158 37.2457C30.5248 36.7285 31.8821 36.1036 33.192 35.3731C34.7345 34.4659 36.0983 33.3432 37.2854 32.0028C38.0222 31.1603 38.6771 30.2574 39.2524 29.2963C39.7587 28.4343 40.1874 27.5379 40.5407 26.6027C40.8919 25.6675 41.1612 24.7085 41.3486 23.7281C41.5361 22.7476 41.6373 21.7564 41.6524 20.7586C41.6696 19.7588 41.5985 18.7675 41.4456 17.7806L41.4283 17.7849Z" fill="#8C8C8D"/>
</g>
</svg>
