<svg width="48" height="48" fill="none" xmlns="http://www.w3.org/2000/svg"><mask id="a" style="mask-type:luminance" maskUnits="userSpaceOnUse" x="0" y="0" width="48" height="48"><path d="M48 0H0v48h48V0z" fill="#fff"/></mask><g mask="url(#a)"><path d="M41.428 17.785a17.068 17.068 0 00-1.098-3.933 14.16 14.16 0 00-.505-1.112c-.122-.245-.661-1.28-2.072-3.264-.532-.748-.782-1.058-.784-1.563.02-.484.178-.918.476-1.299a3.07 3.07 0 011.04-.868c.73-.38 1.215-.278 1.235-.416.04-.287-1.943-1.056-4.147-1.13a12.87 12.87 0 00-2.543.158c-.558.069-.887.157-1.34.086a10.722 10.722 0 01-1.88-.521 18.48 18.48 0 00-1.666-.509 14.326 14.326 0 00-2.602-.375 17.821 17.821 0 00-7.394 1.08 17.153 17.153 0 00-5.266 3.073 18.234 18.234 0 00-3.167 3.676 18.231 18.231 0 00-2.09 4.38c-.33 1.026-.713 2.242-.607 3.856a12.23 12.23 0 00.806 3.6l.364.834c.135.287.183.589.14.905-.035.522-.07 1.024-.104 1.545-.034.522-.017 1.216.158 1.285.245.069.61-.99 1.41-2.24a13.605 13.605 0 012.317-2.727 13.914 13.914 0 013.066-2.19 15.41 15.41 0 012.524-1.077c.313-.103 1.562-.487 3.646-.679 2.7-.243 4.197.052 4.265-.278.07-.33-1.34-.974-2.02-1.267-1.586-.694-2.577-.834-2.56-1.095.017-.26.888-.418 1.325-.487a9.786 9.786 0 014.725.326 9.565 9.565 0 012.16 1.006 9.805 9.805 0 011.858 1.5 9.877 9.877 0 011.437 1.903 9.828 9.828 0 011.174 6.527c-.052.33-.627 3.456-3.135 5.75a8.551 8.551 0 01-3.298 1.807 2.866 2.866 0 01-1.215.12c-.052 0-.106-.016-.157-.016a5.863 5.863 0 01-1.289-.382c-1.133-.487-2.126-1.215-3.188-1.823a20.374 20.374 0 00-3.135-1.51 19.68 19.68 0 00-2.997-.886c-.22-.039-.478-.07-.504 0-.037.101.457.314.941.642.744.468 1.44 1 2.084 1.597.444.42.844.877 1.202 1.37 1 1.285 1.7 2.715 2.103 4.293.273 1.034.4 2.088.381 3.159a11.444 11.444 0 01-.498 3.144 15.708 15.708 0 01-1.256 2.898c-.252.431-.521.847-.441.922.08.076.276-.088.459-.228a20.72 20.72 0 004.265-5.034c.593-.972 1.114-2.015 1.793-2.935.05-.067.101-.129.157-.192a4.411 4.411 0 011.114-1.077c.627-.4 1.254-.592 2.02-.868a28.562 28.562 0 004.077-1.873 16.83 16.83 0 004.093-3.37 18.66 18.66 0 001.967-2.707c.507-.862.935-1.758 1.289-2.693.35-.936.62-1.895.808-2.875a17.445 17.445 0 00.097-5.948l-.018.005z" fill="#8C8C8D"/></g></svg>