<svg width="226" height="102" fill="none" xmlns="http://www.w3.org/2000/svg"><rect width="226" height="102" rx="16" fill="#fff" fill-opacity=".05"/><path d="M79.327 52.604c0-1.634-.131-3.268-.394-4.869h-22.26v9.238h12.753c-.525 2.968-2.23 5.636-4.722 7.303v6.003h7.607c4.458-4.169 7.016-10.338 7.016-17.675z" fill="#4285F4"/><path d="M56.673 76.082c6.36 0 11.737-2.135 15.639-5.803l-7.606-6.003c-2.132 1.468-4.853 2.301-8.033 2.301-6.163 0-11.376-4.235-13.245-9.904h-7.836v6.203c4 8.103 12.163 13.206 21.081 13.206z" fill="#34A853"/><path d="M43.429 56.673a14.722 14.722 0 010-9.204v-6.17h-7.837a24.17 24.17 0 000 21.544l7.837-6.17z" fill="#FBBC04"/><path d="M56.673 37.564a12.588 12.588 0 019.049 3.602l6.754-6.87c-4.295-4.068-9.934-6.303-15.803-6.236-8.918 0-17.081 5.136-21.08 13.24l7.835 6.202c1.869-5.702 7.082-9.938 13.245-9.938z" fill="#EA4335"/><g clip-path="url(#clip0_180_3784)"><path d="M99.281 20.968a.738.738 0 011.34 0l1.689 3.66a.737.737 0 00.583.424l4.003.475a.738.738 0 01.414 1.274l-2.96 2.737a.738.738 0 00-.222.686l.785 3.954a.738.738 0 01-1.084.788l-3.517-1.97a.739.739 0 00-.721 0l-3.518 1.97a.738.738 0 01-1.084-.788l.786-3.954a.738.738 0 00-.223-.686l-2.96-2.737a.738.738 0 01.414-1.274l4.004-.475a.738.738 0 00.583-.424l1.688-3.66z" fill="#F5AF40" stroke="#F5AF40" stroke-width="1.476" stroke-linecap="round" stroke-linejoin="round"/></g><g clip-path="url(#clip1_180_3784)"><path d="M121.281 20.968a.738.738 0 011.34 0l1.689 3.66a.737.737 0 00.583.424l4.003.475a.738.738 0 01.414 1.274l-2.96 2.737a.738.738 0 00-.222.686l.785 3.954a.738.738 0 01-1.084.788l-3.517-1.97a.738.738 0 00-.721 0l-3.518 1.97a.738.738 0 01-1.084-.788l.786-3.954a.739.739 0 00-.223-.686l-2.96-2.737a.738.738 0 01.414-1.274l4.004-.475a.74.74 0 00.583-.424l1.688-3.66z" fill="#F5AF40" stroke="#F5AF40" stroke-width="1.476" stroke-linecap="round" stroke-linejoin="round"/></g><g clip-path="url(#clip2_180_3784)"><path d="M143.281 20.968a.738.738 0 011.34 0l1.689 3.66a.737.737 0 00.583.424l4.003.475a.738.738 0 01.414 1.274l-2.96 2.737a.738.738 0 00-.222.686l.785 3.954a.738.738 0 01-1.084.788l-3.517-1.97a.738.738 0 00-.721 0l-3.518 1.97a.738.738 0 01-1.084-.788l.786-3.954a.739.739 0 00-.223-.686l-2.96-2.737a.738.738 0 01.414-1.274l4.004-.475a.74.74 0 00.583-.424l1.688-3.66z" fill="#F5AF40" stroke="#F5AF40" stroke-width="1.476" stroke-linecap="round" stroke-linejoin="round"/></g><g clip-path="url(#clip3_180_3784)"><path d="M165.281 20.968a.738.738 0 011.34 0l1.689 3.66a.737.737 0 00.583.424l4.003.475a.738.738 0 01.414 1.274l-2.96 2.737a.738.738 0 00-.222.686l.785 3.954a.738.738 0 01-1.084.788l-3.517-1.97a.738.738 0 00-.721 0l-3.518 1.97a.738.738 0 01-1.084-.788l.786-3.954a.739.739 0 00-.223-.686l-2.96-2.737a.738.738 0 01.414-1.274l4.004-.475a.74.74 0 00.583-.424l1.688-3.66z" fill="#F5AF40" stroke="#F5AF40" stroke-width="1.476" stroke-linecap="round" stroke-linejoin="round"/></g><g clip-path="url(#clip4_180_3784)"><path d="M187.281 20.968a.738.738 0 011.34 0l1.689 3.66a.737.737 0 00.583.424l4.003.475a.738.738 0 01.414 1.274l-2.96 2.737a.738.738 0 00-.222.686l.785 3.954a.738.738 0 01-1.084.788l-3.517-1.97a.738.738 0 00-.721 0l-3.518 1.97a.738.738 0 01-1.084-.788l.786-3.954a.739.739 0 00-.223-.686l-2.96-2.737a.738.738 0 01.414-1.274l4.004-.475a.74.74 0 00.583-.424l1.688-3.66z" fill="#F5AF40" stroke="#F5AF40" stroke-width="1.476" stroke-linecap="round" stroke-linejoin="round"/></g><path d="M93.148 50.102h6.874v1.456h-5.25v2.814h4.648v1.47h-4.648v2.716h5.25V60h-6.874v-9.898zM101.495 60v-9.898h1.596V60h-1.596zm8.096-.91a2.19 2.19 0 01-.966.77 3.625 3.625 0 01-1.344.238 3.93 3.93 0 01-1.078-.14 2.542 2.542 0 01-.84-.42 2.13 2.13 0 01-.574-.714c-.14-.29-.21-.616-.21-.98 0-.401.079-.742.238-1.022.159-.29.373-.523.644-.7a3.09 3.09 0 01.98-.392 4.83 4.83 0 011.176-.14h1.89c0-.541-.121-.961-.364-1.26-.243-.299-.667-.453-1.274-.462-.355 0-.663.06-.924.182a.934.934 0 00-.504.602h-1.638c.056-.392.182-.723.378-.994a2.76 2.76 0 01.728-.672 3.05 3.05 0 01.952-.378 5.15 5.15 0 011.064-.112c.457 0 .882.06 1.274.182.392.121.733.327 1.022.616.327.336.546.737.658 1.204.112.467.168.975.168 1.526V60h-1.386l-.07-.91zm-.084-2.366h-1.54c-.271 0-.541.023-.812.07a1.389 1.389 0 00-.7.294c-.187.15-.28.369-.28.658 0 .355.126.625.378.812.261.177.579.266.952.266.289 0 .555-.037.798-.112a1.57 1.57 0 00.644-.364c.177-.177.313-.397.406-.658.103-.27.154-.593.154-.966zm5.466-4.102h2.212v1.386h-2.212v3.248c0 .187.009.364.028.532.028.168.074.322.14.462a.92.92 0 00.308.322c.13.084.308.126.532.126.392 0 .728-.117 1.008-.35l.532 1.19a2.542 2.542 0 01-.84.42c-.318.084-.63.126-.938.126-.803 0-1.396-.2-1.778-.602-.383-.41-.574-1.05-.574-1.918v-3.556h-1.162v-1.386h1.162v-2.1h1.582v2.1zm4.873 4.228c.019.27.075.523.168.756.093.233.219.439.378.616.168.168.369.303.602.406.243.103.523.154.84.154a2.3 2.3 0 00.924-.182c.28-.121.485-.331.616-.63h1.638a2.504 2.504 0 01-.462.966 2.69 2.69 0 01-.742.672c-.28.168-.593.294-.938.378a4.958 4.958 0 01-1.078.112c-.588 0-1.106-.089-1.554-.266a2.918 2.918 0 01-1.106-.77 3.307 3.307 0 01-.672-1.19c-.14-.467-.21-.99-.21-1.568 0-.56.079-1.069.238-1.526.159-.467.387-.868.686-1.204a3.23 3.23 0 011.106-.784c.429-.196.919-.294 1.47-.294.579 0 1.078.098 1.498.294.42.187.77.443 1.05.77.289.327.504.71.644 1.148.14.439.21.915.21 1.428 0 .243-.014.48-.042.714h-5.264zm3.752-1.204c-.019-.56-.196-.994-.532-1.302-.336-.308-.77-.462-1.302-.462-.299 0-.56.047-.784.14-.224.093-.415.22-.574.378a1.933 1.933 0 00-.364.56 2.411 2.411 0 00-.182.686h3.738zM130.65 60v-9.898h2.044l2.954 5.068 2.926-5.068h1.988V60h-1.61v-7.714l-2.982 5.138h-.728l-2.982-5.138V60h-1.61zm15.247-7.504c.588 0 1.106.093 1.554.28a3.17 3.17 0 011.134.784c.317.327.555.723.714 1.19.159.467.238.985.238 1.554 0 .579-.079 1.101-.238 1.568a3.208 3.208 0 01-.686 1.19 3.005 3.005 0 01-1.148.77c-.448.177-.971.266-1.568.266-.588 0-1.106-.089-1.554-.266a3.256 3.256 0 01-1.134-.77 3.468 3.468 0 01-.686-1.204 5.092 5.092 0 01-.224-1.554c0-.57.075-1.087.224-1.554.159-.467.392-.863.7-1.19a3.167 3.167 0 011.134-.784c.448-.187.961-.28 1.54-.28zm0 6.216c.364 0 .672-.06.924-.182.261-.13.471-.303.63-.518.168-.215.289-.467.364-.756.084-.29.126-.602.126-.938a3.35 3.35 0 00-.126-.938 2.036 2.036 0 00-.364-.77 1.613 1.613 0 00-.63-.504c-.252-.121-.56-.182-.924-.182-.355 0-.658.06-.91.182-.252.121-.462.29-.63.504a2.2 2.2 0 00-.378.77 3.73 3.73 0 00-.112.938c0 .336.037.649.112.938.084.29.205.541.364.756.168.215.378.387.63.518.261.121.569.182.924.182zm4.25-6.09h1.764l2.044 5.852 2.03-5.852h1.764L154.977 60h-2.058l-2.772-7.378zm9.406-3.066c.29 0 .528.089.714.266.196.177.294.42.294.728 0 .299-.098.537-.294.714a.993.993 0 01-.714.266c-.308 0-.555-.089-.742-.266-.186-.177-.28-.415-.28-.714 0-.308.094-.55.28-.728.187-.177.434-.266.742-.266zM158.741 60v-7.378h1.596V60h-1.596zm3.443 0v-7.378h1.526l.084 1.022a2.534 2.534 0 011.008-.854 2.988 2.988 0 011.302-.294c.523 0 .962.089 1.316.266.364.177.658.42.882.728.234.308.397.672.49 1.092.103.42.154.877.154 1.372V60h-1.596v-3.808a5.17 5.17 0 00-.07-.882 1.88 1.88 0 00-.238-.714 1.28 1.28 0 00-.518-.504c-.214-.121-.494-.182-.84-.182-.326 0-.625.08-.896.238a1.778 1.778 0 00-.616.616c-.14.252-.242.532-.308.84a4.934 4.934 0 00-.084.882V60h-1.596zm15.45-1.302c-.019.41-.028.821-.028 1.232 0 .41-.056.826-.168 1.246-.224.793-.63 1.386-1.218 1.778-.588.392-1.321.588-2.198.588a4.83 4.83 0 01-1.176-.14 3.275 3.275 0 01-.994-.434 2.714 2.714 0 01-.742-.756c-.206-.299-.341-.663-.406-1.092h1.666c.074.336.27.588.588.756a2.32 2.32 0 001.078.252c.448 0 .802-.084 1.064-.252a1.54 1.54 0 00.616-.672c.14-.28.228-.607.266-.98a11.5 11.5 0 00.056-1.162c-.234.364-.537.63-.91.798-.364.168-.822.257-1.372.266-.635-.01-1.162-.112-1.582-.308a2.95 2.95 0 01-1.022-.826 3.475 3.475 0 01-.602-1.19 5.064 5.064 0 01-.196-1.428c0-.56.07-1.073.21-1.54.149-.467.368-.873.658-1.218a3.013 3.013 0 011.078-.812c.429-.196.928-.294 1.498-.294.485 0 .914.084 1.288.252.382.159.714.406.994.742l.126-.882h1.428v6.076zm-3.668-4.746c-.355 0-.663.06-.924.182-.252.121-.462.29-.63.504-.159.215-.28.471-.364.77a3.73 3.73 0 00-.112.938c0 .336.037.649.112.938.084.28.21.527.378.742.168.215.378.387.63.518.261.121.569.182.924.182.364 0 .672-.07.924-.21.261-.14.476-.322.644-.546.168-.233.294-.495.378-.784a3.2 3.2 0 00.126-.896c0-.317-.042-.62-.126-.91a1.954 1.954 0 00-.392-.742 1.728 1.728 0 00-.644-.504 2.18 2.18 0 00-.924-.182zm-77.78 16.544c.588 0 1.106.093 1.554.28a3.17 3.17 0 011.134.784c.317.327.555.723.714 1.19.159.467.238.985.238 1.554a4.87 4.87 0 01-.238 1.568c-.15.457-.378.854-.686 1.19-.308.336-.69.593-1.148.77-.448.177-.97.266-1.568.266-.588 0-1.106-.089-1.554-.266a3.256 3.256 0 01-1.134-.77 3.468 3.468 0 01-.686-1.204 5.082 5.082 0 01-.224-1.554c0-.57.075-1.087.224-1.554.159-.467.392-.863.7-1.19a3.167 3.167 0 011.134-.784c.448-.187.961-.28 1.54-.28zm0 6.216c.364 0 .672-.06.924-.182.261-.13.471-.303.63-.518a2.03 2.03 0 00.364-.756c.084-.29.126-.602.126-.938a3.35 3.35 0 00-.126-.938 2.031 2.031 0 00-.364-.77 1.608 1.608 0 00-.63-.504c-.252-.121-.56-.182-.924-.182-.355 0-.658.06-.91.182-.252.121-.462.29-.63.504a2.2 2.2 0 00-.378.77c-.075.29-.112.602-.112.938 0 .336.037.649.112.938.084.29.205.541.364.756.168.215.378.387.63.518.261.121.57.182.924.182zm5.09 1.288v-7.378h1.526l.084 1.022a2.534 2.534 0 011.008-.854 2.988 2.988 0 011.302-.294c.523 0 .962.089 1.316.266.364.177.658.42.882.728.234.308.397.672.49 1.092.103.42.154.877.154 1.372V78h-1.596v-3.808a5.17 5.17 0 00-.07-.882 1.88 1.88 0 00-.238-.714 1.28 1.28 0 00-.518-.504c-.214-.121-.494-.182-.84-.182-.326 0-.625.08-.896.238a1.778 1.778 0 00-.616.616c-.14.252-.242.532-.308.84a4.934 4.934 0 00-.084.882V78h-1.596zm16.577-8.568c-.523.01-.971.112-1.344.308a2.698 2.698 0 00-.924.784c-.233.327-.406.71-.518 1.148-.112.43-.168.887-.168 1.372 0 .485.056.947.168 1.386.121.43.303.812.546 1.148.252.327.569.588.952.784.383.187.835.28 1.358.28.849 0 1.507-.22 1.974-.658.476-.448.723-1.027.742-1.736h-2.898v-1.372h4.452c0 .355-.009.714-.028 1.078a5.462 5.462 0 01-.154 1.12 4.9 4.9 0 01-.49 1.19 3.5 3.5 0 01-.826.952c-.336.27-.737.485-1.204.644-.457.159-.985.238-1.582.238-.775 0-1.456-.121-2.044-.364a4.052 4.052 0 01-1.456-1.05 4.43 4.43 0 01-.882-1.596 6.618 6.618 0 01-.294-2.016c0-.737.098-1.419.294-2.044a4.527 4.527 0 01.868-1.61 3.977 3.977 0 011.456-1.064c.588-.252 1.269-.378 2.044-.378.541 0 1.041.07 1.498.21.467.13.877.327 1.232.588.355.252.649.57.882.952.233.373.387.803.462 1.288h-1.638a1.848 1.848 0 00-.854-1.162c-.439-.28-.98-.42-1.624-.42zm9.122 1.064c.588 0 1.106.093 1.554.28a3.17 3.17 0 011.134.784c.317.327.555.723.714 1.19.159.467.238.985.238 1.554 0 .579-.079 1.101-.238 1.568a3.208 3.208 0 01-.686 1.19 3.005 3.005 0 01-1.148.77c-.448.177-.971.266-1.568.266-.588 0-1.106-.089-1.554-.266a3.256 3.256 0 01-1.134-.77 3.468 3.468 0 01-.686-1.204 5.092 5.092 0 01-.224-1.554c0-.57.075-1.087.224-1.554.159-.467.392-.863.7-1.19a3.167 3.167 0 011.134-.784c.448-.187.961-.28 1.54-.28zm0 6.216c.364 0 .672-.06.924-.182.261-.13.471-.303.63-.518.168-.215.289-.467.364-.756.084-.29.126-.602.126-.938a3.35 3.35 0 00-.126-.938 2.036 2.036 0 00-.364-.77 1.613 1.613 0 00-.63-.504c-.252-.121-.56-.182-.924-.182-.355 0-.658.06-.91.182-.252.121-.462.29-.63.504a2.2 2.2 0 00-.378.77 3.73 3.73 0 00-.112.938c0 .336.037.649.112.938.084.29.205.541.364.756.168.215.378.387.63.518.261.121.569.182.924.182zm8.408-6.216c.588 0 1.106.093 1.554.28a3.17 3.17 0 011.134.784c.318.327.556.723.714 1.19.159.467.238.985.238 1.554 0 .579-.079 1.101-.238 1.568a3.208 3.208 0 01-.686 1.19c-.308.336-.69.593-1.148.77-.448.177-.97.266-1.568.266-.588 0-1.106-.089-1.554-.266a3.256 3.256 0 01-1.134-.77 3.484 3.484 0 01-.686-1.204 5.092 5.092 0 01-.224-1.554c0-.57.075-1.087.224-1.554.159-.467.392-.863.7-1.19a3.167 3.167 0 011.134-.784c.448-.187.962-.28 1.54-.28zm0 6.216c.364 0 .672-.06.924-.182.262-.13.472-.303.63-.518a2.03 2.03 0 00.364-.756c.084-.29.126-.602.126-.938a3.35 3.35 0 00-.126-.938 2.021 2.021 0 00-.364-.77 1.599 1.599 0 00-.63-.504c-.252-.121-.56-.182-.924-.182-.354 0-.658.06-.91.182-.252.121-.462.29-.63.504a2.2 2.2 0 00-.378.77 3.78 3.78 0 00-.112.938c0 .336.038.649.112.938.084.29.206.541.364.756.168.215.378.387.63.518.262.121.57.182.924.182zm12.09-.014c-.018.41-.028.821-.028 1.232 0 .41-.056.826-.168 1.246-.224.793-.63 1.386-1.218 1.778-.588.392-1.32.588-2.198.588-.41 0-.802-.047-1.176-.14a3.286 3.286 0 01-.994-.434 2.742 2.742 0 01-.742-.756c-.205-.299-.34-.663-.406-1.092h1.666c.075.336.271.588.588.756.327.168.686.252 1.078.252.448 0 .803-.084 1.064-.252.271-.159.476-.383.616-.672.14-.28.229-.607.266-.98.038-.364.056-.751.056-1.162-.233.364-.536.63-.91.798-.364.168-.821.257-1.372.266-.634-.01-1.162-.112-1.582-.308a2.97 2.97 0 01-1.022-.826 3.51 3.51 0 01-.602-1.19 5.1 5.1 0 01-.196-1.428c0-.56.07-1.073.21-1.54.15-.467.369-.873.658-1.218a3.03 3.03 0 011.078-.812c.43-.196.929-.294 1.498-.294.486 0 .915.084 1.288.252.383.159.714.406.994.742l.126-.882h1.428v6.076zm-3.668-4.746c-.354 0-.662.06-.924.182-.252.121-.462.29-.63.504-.158.215-.28.471-.364.77a3.78 3.78 0 00-.112.938c0 .336.038.649.112.938.084.28.21.527.378.742.168.215.378.387.63.518.262.121.57.182.924.182.364 0 .672-.07.924-.21.262-.14.476-.322.644-.546.168-.233.294-.495.378-.784a3.2 3.2 0 00.126-.896c0-.317-.042-.62-.126-.91a1.94 1.94 0 00-.392-.742 1.72 1.72 0 00-.644-.504 2.174 2.174 0 00-.924-.182zM149.21 78v-9.898h1.596V78h-1.596zm4.652-3.15c.018.27.074.523.168.756.093.233.219.439.378.616.168.168.368.303.602.406.242.103.522.154.84.154a2.3 2.3 0 00.924-.182c.28-.121.485-.331.616-.63h1.638a2.532 2.532 0 01-.462.966c-.206.27-.453.495-.742.672-.28.168-.593.294-.938.378a4.964 4.964 0 01-1.078.112c-.588 0-1.106-.089-1.554-.266a2.91 2.91 0 01-1.106-.77 3.307 3.307 0 01-.672-1.19c-.14-.467-.21-.99-.21-1.568 0-.56.079-1.069.238-1.526a3.45 3.45 0 01.686-1.204 3.22 3.22 0 011.106-.784c.429-.196.919-.294 1.47-.294.578 0 1.078.098 1.498.294.42.187.77.443 1.05.77.289.327.504.71.644 1.148.14.439.21.915.21 1.428 0 .243-.014.48-.042.714h-5.264zm3.752-1.204c-.019-.56-.196-.994-.532-1.302-.336-.308-.77-.462-1.302-.462-.299 0-.56.047-.784.14-.224.093-.416.22-.574.378-.15.159-.271.345-.364.56a2.379 2.379 0 00-.182.686h3.738z" fill="#fff"/><defs><clipPath id="clip0_180_3784"><path fill="#fff" transform="translate(92 20)" d="M0 0h16v16H0z"/></clipPath><clipPath id="clip1_180_3784"><path fill="#fff" transform="translate(114 20)" d="M0 0h16v16H0z"/></clipPath><clipPath id="clip2_180_3784"><path fill="#fff" transform="translate(136 20)" d="M0 0h16v16H0z"/></clipPath><clipPath id="clip3_180_3784"><path fill="#fff" transform="translate(158 20)" d="M0 0h16v16H0z"/></clipPath><clipPath id="clip4_180_3784"><path fill="#fff" transform="translate(180 20)" d="M0 0h16v16H0z"/></clipPath></defs></svg>