<svg width="181" height="71" fill="none" xmlns="http://www.w3.org/2000/svg"><path d="M16.767 51.456a9.48 9.48 0 01-.115 1.55H5.024c.096 1.148.498 2.048 1.206 2.699.708.65 1.579.976 2.613.976 1.492 0 2.555-.641 3.186-1.924h4.335c-.459 1.532-1.34 2.795-2.64 3.79-1.302.976-2.9 1.464-4.795 1.464-1.532 0-2.91-.335-4.135-1.005a7.396 7.396 0 01-2.842-2.9C1.282 54.864.947 53.428.947 51.8c0-1.646.335-3.09 1.005-4.335.67-1.244 1.608-2.201 2.814-2.871 1.206-.67 2.593-1.005 4.163-1.005 1.512 0 2.861.326 4.048.976a6.734 6.734 0 012.785 2.785c.67 1.187 1.005 2.555 1.005 4.106zm-4.163-1.149c-.02-1.033-.393-1.856-1.12-2.469-.727-.631-1.617-.947-2.67-.947-.995 0-1.838.306-2.527.919-.67.593-1.081 1.425-1.234 2.497h7.55zm9.967-11.8v21.246h-4.02V38.508h4.02zm1.79 13.236c0-1.608.315-3.034.947-4.278.65-1.244 1.521-2.201 2.613-2.871 1.11-.67 2.344-1.005 3.703-1.005 1.187 0 2.22.24 3.1.718.9.478 1.618 1.081 2.154 1.809v-2.268h4.048v15.905h-4.048v-2.326c-.517.747-1.235 1.369-2.153 1.867-.9.478-1.943.717-3.13.717a6.831 6.831 0 01-3.674-1.033c-1.091-.69-1.962-1.656-2.613-2.9-.632-1.263-.948-2.708-.948-4.335zm12.517.057c0-.976-.191-1.808-.574-2.498-.383-.708-.9-1.244-1.55-1.607a4.064 4.064 0 00-2.096-.575 4.07 4.07 0 00-2.068.546c-.631.364-1.148.9-1.55 1.608-.383.689-.574 1.512-.574 2.469 0 .957.191 1.799.574 2.526.402.708.919 1.254 1.55 1.637.651.383 1.34.574 2.068.574a4.22 4.22 0 002.095-.546 4.177 4.177 0 001.55-1.607c.384-.709.575-1.55.575-2.527zm11.505-4.65v7.693c0 .536.124.929.373 1.178.268.23.708.344 1.32.344h1.867v3.388h-2.526c-3.388 0-5.082-1.646-5.082-4.938v-7.666H42.44v-3.301h1.895v-3.934h4.048v3.934h3.56v3.301h-3.56zm20.088 4.306a9.48 9.48 0 01-.115 1.55H56.73c.096 1.148.498 2.048 1.206 2.699.708.65 1.579.976 2.612.976 1.493 0 2.555-.641 3.187-1.924h4.335c-.46 1.532-1.34 2.795-2.641 3.79-1.302.976-2.9 1.464-4.795 1.464-1.53 0-2.909-.335-4.134-1.005a7.396 7.396 0 01-2.842-2.9c-.67-1.243-1.005-2.679-1.005-4.306 0-1.646.335-3.09 1.005-4.335.67-1.244 1.608-2.201 2.813-2.871 1.206-.67 2.594-1.005 4.163-1.005 1.512 0 2.862.326 4.048.976a6.734 6.734 0 012.785 2.785c.67 1.187 1.005 2.555 1.005 4.106zm-4.163-1.149c-.019-1.033-.392-1.856-1.12-2.469-.727-.631-1.617-.947-2.67-.947-.995 0-1.837.306-2.526.919-.67.593-1.081 1.425-1.234 2.497h7.55zm31.394-6.69c1.952 0 3.521.604 4.708 1.81 1.206 1.186 1.809 2.852 1.809 4.995v9.33h-4.02v-8.784c0-1.245-.316-2.192-.947-2.843-.632-.67-1.493-1.005-2.584-1.005-1.09 0-1.962.335-2.613 1.005-.631.651-.947 1.599-.947 2.843v8.785h-4.02v-8.785c0-1.245-.315-2.192-.947-2.843-.631-.67-1.493-1.005-2.584-1.005-1.11 0-1.99.335-2.641 1.005-.632.651-.947 1.599-.947 2.843v8.785h-4.02V43.848h4.02v1.923a5.377 5.377 0 011.98-1.579c.824-.383 1.723-.574 2.7-.574 1.243 0 2.353.268 3.33.804a5.441 5.441 0 012.268 2.24c.516-.92 1.263-1.657 2.24-2.212a6.495 6.495 0 013.215-.832zm16.245 16.394c-1.531 0-2.909-.335-4.134-1.005a7.538 7.538 0 01-2.9-2.9c-.689-1.243-1.033-2.679-1.033-4.306 0-1.627.354-3.062 1.062-4.306a7.478 7.478 0 012.957-2.871c1.244-.69 2.632-1.034 4.163-1.034 1.531 0 2.919.345 4.163 1.034a7.285 7.285 0 012.928 2.87c.728 1.245 1.091 2.68 1.091 4.307 0 1.627-.373 3.063-1.119 4.307a7.636 7.636 0 01-2.986 2.9c-1.244.67-2.642 1.004-4.192 1.004zm0-3.502a4.2 4.2 0 002.039-.517c.65-.364 1.167-.9 1.55-1.608.383-.708.574-1.57.574-2.584 0-1.512-.402-2.67-1.206-3.474-.785-.823-1.751-1.234-2.899-1.234-1.149 0-2.115.411-2.9 1.234-.766.804-1.149 1.962-1.149 3.474 0 1.512.374 2.68 1.12 3.503.766.804 1.723 1.206 2.871 1.206zm16.729-.46l4.02-12.201h4.277l-5.885 15.905h-4.881l-5.857-15.905h4.307l4.019 12.201zm11.445-14.096c-.708 0-1.302-.22-1.78-.66-.459-.46-.689-1.025-.689-1.694 0-.67.23-1.225.689-1.666.478-.459 1.072-.689 1.78-.689s1.292.23 1.751.69c.479.44.718.995.718 1.665s-.239 1.234-.718 1.693c-.459.44-1.043.66-1.751.66zm1.981 1.895v15.905h-4.019V43.848h4.019zm11.637-.23c1.894 0 3.426.603 4.593 1.809 1.168 1.186 1.751 2.852 1.751 4.995v9.33h-4.019v-8.784c0-1.264-.316-2.23-.947-2.9-.632-.69-1.493-1.034-2.584-1.034-1.11 0-1.991.345-2.642 1.034-.631.67-.947 1.636-.947 2.9v8.785h-4.019V43.848h4.019v1.98a5.45 5.45 0 012.038-1.607 6.32 6.32 0 012.757-.603zm15.248-.029c1.187 0 2.23.24 3.13.718.899.46 1.608 1.062 2.124 1.809v-2.268h4.048v16.02c0 1.474-.296 2.785-.89 3.933-.593 1.168-1.483 2.086-2.67 2.756-1.186.69-2.622 1.034-4.306 1.034-2.259 0-4.115-.527-5.57-1.58-1.435-1.052-2.249-2.488-2.44-4.306h3.99c.211.727.661 1.302 1.35 1.723.708.44 1.56.66 2.555.66 1.168 0 2.115-.354 2.842-1.062.728-.69 1.091-1.742 1.091-3.158v-2.47c-.516.747-1.234 1.37-2.153 1.867-.9.497-1.933.746-3.101.746a6.83 6.83 0 01-3.674-1.033c-1.111-.69-1.991-1.656-2.642-2.9-.631-1.263-.947-2.708-.947-4.335 0-1.608.316-3.034.947-4.278.651-1.244 1.522-2.201 2.613-2.871 1.11-.67 2.344-1.005 3.703-1.005zm5.254 8.211c0-.976-.191-1.808-.574-2.498-.383-.708-.899-1.244-1.55-1.607a4.067 4.067 0 00-2.096-.575c-.747 0-1.436.182-2.067.546-.632.364-1.149.9-1.551 1.608-.382.689-.574 1.512-.574 2.469 0 .957.192 1.799.574 2.526.402.708.919 1.254 1.551 1.637.651.383 1.34.574 2.067.574a4.23 4.23 0 002.096-.546 4.176 4.176 0 001.55-1.607c.383-.709.574-1.55.574-2.527z" fill="#fff"/><path fill-rule="evenodd" clip-rule="evenodd" d="M138.852 12.014c.732.78 1.397 1.489 2.63 1.938 3.625 1.321 4.167 4.54 3.455 7.25-.384-1.367-1.958-4.12-5.183-4.201-3.225-.081-5.657.101-6.47.203 2.213.011 7.242.732 9.654 3.523l-.256-.084c-1.783-.585-3.815-1.253-9.398 1.043-2.503 1.03-5.867.575-9.457.09-4.806-.65-10.017-1.355-14.105 1.373-7.142 4.768-21.124 8.488-36.664 8.965 7.377-2.487 23.718-10.428 23.718-31.95 7.05-.81 12.894 1.52 18.796 3.872 4.338 1.729 8.708 3.47 13.613 3.988 6.572.693 8.246 2.477 9.667 3.99zm-8.987-1.61l5.15 3.766.996-2.16c-.978-.535-3.577-1.606-6.146-1.606z" fill="#fff"/><path d="M20.674 0l11.918 7.768h51.014a61.373 61.373 0 01-2.45 4.512h-43.94l11.918 7.768H76.04a157.343 157.343 0 01-3.305 4.512H55.274l11.777 6.963-.075.083.134-.049.082.049.137-.13c2.211-.835 14.24-5.672 20.16-14.178C94.027 7.908 92.547 0 92.547 0H20.674z" fill="#FE7300"/></svg>