<svg width="34" height="34" fill="none" xmlns="http://www.w3.org/2000/svg"><path fill="#525252" d="M0 0h34v34H0z"/><path d="M13.613 10.213a.77.77 0 00-.545-.225 3.08 3.08 0 00-3.08 3.08v1.454c0 .93.223 1.846.652 2.672a14.478 14.478 0 006.166 6.165 5.78 5.78 0 002.672.653h2.108a2.426 2.426 0 002.426-2.426 1.82 1.82 0 00-.81-1.514c-.267-.177-1.391-.927-1.535-.963a.85.85 0 00-.41 0c-.143.036-1.37.91-1.755 1.08a1.7 1.7 0 01-1.22.062 9.776 9.776 0 01-1.522-.795c-1.018-.68-1.547-1.191-2.216-2.216a9.372 9.372 0 01-.666-1.261c-.166-.46-.104-1.14.24-1.599.345-.458 1.363-1.386 1.426-1.58a.85.85 0 000-.525c-.045-.137-1.931-2.062-1.931-2.062z" stroke="#fff" stroke-width="1.5" stroke-miterlimit="1.414" stroke-linejoin="round"/></svg>