<svg width="91" height="117" viewBox="0 0 91 117" fill="none" xmlns="http://www.w3.org/2000/svg">
<g clip-path="url(#clip0_643_8571)">
<path d="M90.8096 41.4332C90.6891 41.483 90.5085 41.5528 90.2777 41.6325C89.8261 41.8018 89.1939 42.021 88.4814 42.2302C88.1201 42.3398 87.7388 42.4394 87.3474 42.5291C87.1567 42.5789 86.956 42.6188 86.7553 42.6686C86.5546 42.7084 86.3539 42.7483 86.1532 42.7881C85.3504 42.9375 84.5676 43.0272 83.8852 43.0471C83.3433 43.0571 82.8215 43.1766 82.3297 43.3659C81.838 43.5552 81.3864 43.8142 80.975 44.1231C80.1521 44.7507 79.5199 45.5576 79.1987 46.4044C78.9779 46.9922 78.6367 47.4405 78.2755 47.7991C78.6568 46.9225 79.0081 46.0259 79.3292 45.1193C79.6905 44.1031 80.0015 43.077 80.2825 42.021C80.4933 41.2141 80.6739 40.3972 80.8345 39.5703C80.8345 39.5703 80.8345 39.5603 80.8545 39.5504C80.9549 39.4408 81.0653 39.3312 81.1857 39.2316C81.3061 39.1319 81.4466 39.0423 81.5871 38.9626C81.8781 38.8131 82.2294 38.7334 82.6208 38.7932C82.6208 38.7932 82.8215 38.7633 83.1426 38.6936C83.4537 38.6239 83.8752 38.5242 84.3067 38.3947C84.5275 38.325 84.7482 38.2553 84.959 38.1756C85.1697 38.0959 85.3704 38.0062 85.5511 37.9066C85.9123 37.7173 86.2034 37.4981 86.3037 37.269C86.4041 37.0399 86.5145 36.8406 86.6248 36.6613C86.7352 36.472 86.8556 36.2927 86.9761 36.0934C87.0965 35.8942 87.2169 35.675 87.3373 35.416C87.3976 35.2865 87.4578 35.1371 87.518 34.9777C87.5782 34.8183 87.6284 34.6489 87.6886 34.4497C87.7488 34.2604 87.8291 34.0512 87.9395 33.842C88.0498 33.6228 88.1803 33.4036 88.3308 33.1745C88.4713 32.9454 88.6319 32.7063 88.8025 32.4672C88.9631 32.2281 89.1437 31.989 89.3143 31.7598C89.4046 31.6403 89.4849 31.5307 89.5752 31.4211C89.6555 31.3115 89.7458 31.2019 89.8261 31.0924C89.9867 30.8832 90.1573 30.6739 90.2978 30.5145C90.5888 30.1758 90.8196 29.9168 90.9601 29.7973C90.9601 29.7973 90.7493 29.9666 90.378 30.2356C90.1974 30.3651 89.9766 30.5245 89.7358 30.6939C89.4849 30.8632 89.2039 31.0525 88.9129 31.2518C88.3208 31.6303 87.6384 32.0189 86.946 32.3476C86.7754 32.4273 86.6048 32.507 86.4342 32.5867C86.2636 32.6564 86.0829 32.7262 85.9123 32.7959C85.5711 32.9254 85.24 33.035 84.9289 33.1247C84.678 33.1944 84.4472 33.2841 84.2264 33.3937C84.0056 33.5032 83.7949 33.6328 83.5942 33.7822C83.2028 34.0711 82.8616 34.4297 82.5706 34.8083C81.9986 35.5754 81.6373 36.472 81.5369 37.3387C81.4968 37.7671 81.3663 38.1457 81.2058 38.4844C81.1355 38.6338 81.0452 38.7733 80.9649 38.9028C80.9649 38.8829 80.9649 38.863 80.975 38.843C81.3463 36.7011 81.5269 34.5294 81.4567 32.3974C81.4567 32.2679 81.4567 32.1284 81.4466 31.9989C81.4466 31.8694 81.4366 31.7299 81.4266 31.6004C81.4266 31.4709 81.4065 31.3315 81.4065 31.2019C81.3965 31.0724 81.3864 30.933 81.3764 30.8035C81.3663 30.6739 81.3563 30.5345 81.3463 30.405C81.3463 30.3651 81.3463 30.3253 81.3362 30.2854C81.3463 30.2555 81.3563 30.2256 81.3764 30.1958C81.4968 29.9467 81.6574 29.6877 81.8781 29.4785C82.109 29.2693 82.4 29.1099 82.7713 29.07C82.7713 29.07 82.8114 29.0501 82.8917 29.0102C82.972 28.9704 83.0824 28.9206 83.2128 28.8508C83.4838 28.7114 83.835 28.5121 84.1963 28.283C84.5576 28.0539 84.9188 27.7849 85.1998 27.5159C85.4708 27.2469 85.6715 26.9779 85.7016 26.7388C85.7618 26.2706 85.8622 25.892 85.9725 25.4437C86.0026 25.3342 86.0227 25.2146 86.0428 25.0851C86.0629 24.9655 86.0829 24.8261 86.093 24.6866C86.113 24.5471 86.1231 24.3977 86.1331 24.2383C86.1331 24.0789 86.1532 23.8996 86.1331 23.7103C86.1331 23.521 86.1431 23.3118 86.1833 23.0926C86.2034 22.983 86.2234 22.8735 86.2435 22.7539C86.2636 22.6344 86.2937 22.5148 86.3238 22.3953C86.384 22.1562 86.4542 21.9071 86.5345 21.6481C86.5747 21.5286 86.6148 21.399 86.6549 21.2795C86.6951 21.15 86.7352 21.0304 86.7754 20.9109C86.8556 20.6618 86.946 20.4227 87.0363 20.2036C87.1166 19.9744 87.1968 19.7652 87.2771 19.5759C87.4277 19.1974 87.5682 18.8985 87.6585 18.759C87.6585 18.759 87.518 18.9682 87.2571 19.307C87.1266 19.4763 86.9761 19.6756 86.8055 19.8848C86.6248 20.1039 86.4342 20.3331 86.2134 20.5821C85.7819 21.0703 85.2701 21.5883 84.7482 22.0566C84.2164 22.5347 83.6544 22.9532 83.1326 23.272C82.9218 23.4015 82.7412 23.5409 82.5706 23.7003C82.4 23.8597 82.2495 24.0291 82.119 24.2184C81.8581 24.587 81.6674 24.9954 81.5269 25.4238C81.4567 25.633 81.4065 25.8522 81.3663 26.0714C81.3262 26.2905 81.2961 26.5097 81.2861 26.7289C81.2861 26.8385 81.2861 26.948 81.2861 27.0576C81.2861 27.1672 81.2861 27.2768 81.2861 27.3764C81.2961 27.5856 81.3262 27.7948 81.3663 28.004C81.3864 28.1037 81.3965 28.2033 81.4065 28.3029C81.4065 28.4025 81.4165 28.5022 81.4165 28.5918C81.4165 28.7811 81.4065 28.9604 81.3864 29.1298C81.3563 29.3191 81.3061 29.4984 81.256 29.6578C81.2359 29.5183 81.2259 29.3788 81.2058 29.2394C81.0653 28.2033 80.8847 27.1871 80.6639 26.1909C80.4331 25.2046 80.1521 24.2383 79.841 23.3018C79.7607 23.0727 79.6804 22.8436 79.6001 22.6144C79.5098 22.3853 79.4295 22.1661 79.3392 21.937C79.2589 21.7079 79.1586 21.4887 79.0683 21.2695C79.0683 21.2098 79.0683 21.15 79.0783 21.0802C79.1184 20.8212 79.1887 20.5423 79.3292 20.2932C79.4797 20.0442 79.6905 19.825 80.0216 19.6855C80.0216 19.6855 80.1621 19.566 80.3628 19.3667C80.5635 19.1675 80.8244 18.8985 81.0854 18.5897C81.3463 18.2908 81.5972 17.9521 81.7778 17.6333C81.9484 17.3245 82.0487 17.0256 82.0086 16.8064C81.9885 16.6968 81.9785 16.5872 81.9584 16.4876C81.9484 16.378 81.9283 16.2784 81.9183 16.1788C81.8982 15.9696 81.8781 15.7604 81.8581 15.5412C81.828 15.322 81.7979 15.0829 81.7477 14.814C81.7176 14.6844 81.6875 14.545 81.6574 14.3955C81.6172 14.2461 81.5671 14.0867 81.5169 13.9273C81.3061 13.2598 81.266 12.2536 81.2961 11.3272C81.3061 10.8689 81.3362 10.4305 81.3764 10.0719C81.4065 9.71326 81.4567 9.43431 81.5068 9.28488C81.5068 9.28488 81.4266 9.50405 81.2861 9.85273C81.1456 10.2014 80.9248 10.6896 80.6639 11.2275C80.5334 11.4965 80.3829 11.7755 80.2223 12.0544C80.0618 12.3333 79.8912 12.6222 79.7105 12.8912C79.5299 13.1602 79.3493 13.4292 79.1586 13.6783C78.9679 13.9273 78.7672 14.1664 78.5765 14.3657C78.2654 14.6944 78.0647 15.063 77.9343 15.4615C77.8741 15.6608 77.8239 15.86 77.8038 16.0692C77.7737 16.2784 77.7737 16.4777 77.7838 16.6968C77.7838 16.906 77.8139 17.1152 77.854 17.3245C77.8741 17.434 77.8941 17.5337 77.9142 17.6333C77.9343 17.7329 77.9644 17.8325 77.9945 17.9322C78.1149 18.3307 78.2654 18.7192 78.4561 19.0679C78.5464 19.2372 78.6167 19.4165 78.6769 19.5859C78.707 19.6756 78.7271 19.7553 78.7471 19.835C78.7672 19.9147 78.7873 20.0043 78.7973 20.084C78.8274 20.3032 78.8375 20.5024 78.8274 20.6917C78.8174 20.6618 78.7973 20.6319 78.7873 20.612C78.7371 20.5024 78.6869 20.3928 78.6468 20.2932C78.5966 20.1836 78.5565 20.084 78.4963 19.9744C78.3959 19.7652 78.2955 19.556 78.1952 19.3568C78.0948 19.1476 77.9845 18.9483 77.8841 18.7491C77.8339 18.6494 77.7837 18.5498 77.7235 18.4502C77.6734 18.3506 77.6131 18.251 77.563 18.1613C77.5128 18.0617 77.4526 17.972 77.4024 17.8724C77.3723 17.8226 77.3522 17.7728 77.3221 17.723C77.292 17.6731 77.2619 17.6333 77.2418 17.5835C77.1315 17.3942 77.0211 17.2049 76.9107 17.0256C76.8003 16.8363 76.6899 16.657 76.5795 16.4777C76.5293 16.388 76.4691 16.2983 76.419 16.2087C76.3587 16.119 76.3086 16.0294 76.2484 15.9497C75.6864 15.073 75.0341 14.2959 74.4119 13.5687C74.4119 13.5487 74.4019 13.5288 74.3918 13.5089C74.3316 13.3495 74.2614 13.1303 74.2313 12.8813C74.2012 12.6322 74.1911 12.3632 74.2614 12.1042C74.3316 11.8452 74.4821 11.5961 74.7531 11.3969C74.7531 11.3969 74.8534 11.2574 74.9839 11.0382C75.1244 10.8191 75.305 10.5102 75.4656 10.1815C75.8068 9.52397 76.0878 8.75688 75.9272 8.37831C75.6061 7.6411 75.4857 6.9537 74.8936 5.85785C74.7431 5.5789 74.6226 5.23022 74.5122 4.85165C74.4119 4.47308 74.3316 4.06463 74.2714 3.6761C74.161 2.89904 74.1309 2.18175 74.2012 1.91277C74.2012 1.91277 74.151 2.11202 74.0607 2.44077C73.9703 2.76953 73.8298 3.2278 73.6492 3.74584C73.298 4.77195 72.7862 6.0272 72.1941 6.91385C71.9633 7.26253 71.8429 7.6411 71.8127 8.01967C71.7826 8.39823 71.8328 8.78676 71.9532 9.16533C72.1841 9.92247 72.6557 10.6398 73.1575 11.1976C73.2879 11.3371 73.3883 11.4865 73.4886 11.626C73.579 11.7755 73.6592 11.9149 73.7195 12.0644C73.8399 12.3533 73.9202 12.6322 73.9603 12.8713C73.9703 12.951 73.9804 13.0108 73.9804 13.0905C73.7696 12.8414 73.5689 12.6023 73.3783 12.3732C73.1776 12.1142 71.1203 9.85273 69.6451 8.23884C69.3942 7.80049 69.1935 7.27249 69.1935 6.66479C69.1935 5.01105 68.5011 2.92893 66.5543 2.49059C64.0956 1.94266 60.7037 0.0597839 60.7037 0.0597839C61.2657 0.378578 63.0218 2.31126 63.4232 3.57648C63.8247 4.84169 64.2662 5.44939 64.5773 6.25634C64.8884 7.05332 67.9592 7.93001 67.9592 7.93001C68.461 7.92004 68.9025 8.11929 69.2839 8.39823C69.8157 9.18526 71.4214 11.5065 71.8529 12.0245C72.1138 12.3333 72.3747 12.6521 72.6457 12.9909C72.8865 13.2897 73.1274 13.6085 73.3783 13.9373C73.2879 13.9074 73.1976 13.8675 73.1073 13.8277C72.9969 13.7779 72.8865 13.7181 72.7761 13.6484C72.6557 13.5886 72.5453 13.5089 72.4249 13.4192C72.3045 13.3296 72.1941 13.2399 72.0837 13.1303C71.9733 13.0207 71.8629 12.9012 71.7626 12.7717C71.7124 12.7019 71.6622 12.6322 71.602 12.5724C71.5418 12.5027 71.4816 12.4429 71.4214 12.3732C71.3009 12.2437 71.1605 12.1241 71.02 12.0046C70.8795 11.885 70.7289 11.7755 70.5684 11.6758C70.4078 11.5762 70.2472 11.4865 70.0766 11.4168C69.4043 11.1179 68.6416 11.0382 67.909 11.367C66.9757 11.7854 65.7314 12.1142 64.7278 12.3533C64.2261 12.4728 63.7745 12.5625 63.4534 12.6322C63.1322 12.692 62.9416 12.7318 62.9416 12.7318C63.2025 12.692 63.8648 12.7318 64.5673 12.8713C64.9285 12.941 65.2798 13.0207 65.621 13.1303C65.9521 13.2399 66.2432 13.3595 66.474 13.4989C66.9155 13.7779 67.2768 13.9572 67.608 14.1166C67.9391 14.266 68.2302 14.3955 68.5212 14.5649C68.6717 14.6546 68.9226 14.6645 69.2337 14.6346C69.5448 14.6047 69.906 14.535 70.2472 14.4653C70.9296 14.3059 71.5518 14.1166 71.5518 14.1166C71.8027 13.9472 72.0737 13.8775 72.3346 13.8775C72.5955 13.8775 72.8464 13.9572 73.0571 14.0469C73.2779 14.1365 73.4585 14.2561 73.589 14.3557C73.7195 14.4553 73.7897 14.5151 73.7897 14.5151C73.7897 14.5151 73.7997 14.5051 73.8098 14.4952C74.2814 15.1427 74.7631 15.8202 75.2348 16.5574C75.285 16.6371 75.3452 16.7267 75.3953 16.8164C75.4556 16.8961 75.5057 16.9857 75.5559 17.0754C75.6663 17.2448 75.7667 17.4241 75.877 17.6034C75.9774 17.7827 76.0878 17.962 76.1881 18.1513C76.2182 18.2011 76.2383 18.241 76.2684 18.2908C76.2985 18.3406 76.3186 18.3805 76.3487 18.4303C76.3989 18.5299 76.4491 18.6196 76.4992 18.7092C76.5494 18.8088 76.5996 18.8985 76.6598 18.9882C76.71 19.0878 76.7602 19.1774 76.8103 19.2771C76.9107 19.4664 77.011 19.6656 77.1114 19.8648C77.2117 20.0641 77.3021 20.2633 77.4024 20.4626C77.4526 20.5622 77.4927 20.6618 77.5429 20.7714C77.5931 20.881 77.6332 20.9806 77.6834 21.0802C77.7235 21.1799 77.7737 21.2895 77.8239 21.3891C77.864 21.4987 77.9142 21.5983 77.9543 21.7079C77.9242 21.6879 77.8941 21.668 77.854 21.6381C77.7536 21.5584 77.6533 21.4787 77.5529 21.3791C77.4526 21.2895 77.3422 21.1799 77.2519 21.0603C77.1515 20.9507 77.0612 20.8212 76.9709 20.6818C76.8806 20.5423 76.8003 20.4028 76.73 20.2434C76.6999 20.1637 76.6598 20.084 76.6096 20.0043C76.5695 19.9246 76.5193 19.8449 76.4691 19.7652C76.3688 19.6058 76.2584 19.4564 76.148 19.297C76.0276 19.1476 75.8971 19.0081 75.7566 18.8786C75.6864 18.8088 75.6161 18.7491 75.5358 18.6893C75.4656 18.6295 75.3853 18.5697 75.305 18.5199C74.9839 18.3107 74.6327 18.1513 74.2513 18.0816C73.87 18.0119 73.4786 18.0218 73.0571 18.1414C72.5253 18.2908 71.9231 18.4104 71.321 18.5199C70.7189 18.6196 70.1068 18.7092 69.5648 18.7889C69.2939 18.8188 69.043 18.8587 68.8122 18.8885C68.5814 18.9184 68.3807 18.9483 68.2101 18.9682C67.8689 19.0081 67.6682 19.028 67.6682 19.028C67.9391 18.9981 68.6015 19.0878 69.2839 19.2771C69.3742 19.297 69.4545 19.3269 69.5448 19.3568C69.6351 19.3767 69.7154 19.4165 69.7957 19.4365C69.9663 19.4962 70.1268 19.556 70.2874 19.6258C70.5985 19.7652 70.8694 19.9246 71.0701 20.094C71.2608 20.2534 71.4314 20.4028 71.602 20.5224C71.6823 20.5821 71.7626 20.6419 71.8429 20.7017C71.9231 20.7615 71.9934 20.8113 72.0737 20.8611C72.3747 21.0603 72.6356 21.2396 72.8865 21.4588C73.017 21.5684 73.2779 21.6282 73.6091 21.6581C73.9402 21.6879 74.3316 21.6879 74.7029 21.678C75.4556 21.6581 76.148 21.6082 76.148 21.6082C76.4591 21.4887 76.7602 21.4787 77.0311 21.5385C77.1014 21.5584 77.1616 21.5684 77.2318 21.5983C77.292 21.6182 77.3522 21.6481 77.4124 21.678C77.5329 21.7378 77.6433 21.8075 77.7436 21.8872C77.9343 22.0366 78.0948 22.196 78.2052 22.3255C78.2052 22.3455 78.2153 22.3554 78.2253 22.3753C78.3056 22.5945 78.3859 22.8137 78.4762 23.0329C78.5565 23.252 78.6267 23.4712 78.707 23.7003C79.0081 24.6069 79.269 25.5334 79.4998 26.4898C79.7206 27.4462 79.8912 28.4324 80.0317 29.4386C80.0618 29.6877 80.0919 29.9467 80.122 30.1958C80.122 30.2456 80.122 30.3053 80.142 30.3552C79.9915 30.1559 79.841 29.9168 79.7206 29.6478C79.6905 29.5681 79.6603 29.4984 79.6302 29.4187C79.6001 29.339 79.57 29.2593 79.55 29.1796C79.4998 29.0202 79.4596 28.8409 79.4396 28.6516C79.4195 28.4623 79.3794 28.283 79.3191 28.0937C79.269 27.9044 79.1987 27.7151 79.1285 27.5259C79.0482 27.3366 78.9579 27.1573 78.8475 26.9879C78.7471 26.8185 78.6267 26.6492 78.4963 26.4997C78.3658 26.3503 78.2153 26.2108 78.0647 26.0913C77.9845 26.0315 77.9042 25.9717 77.8139 25.9219C77.7235 25.8721 77.6433 25.8223 77.5429 25.7825C77.1716 25.6131 76.7601 25.5234 76.2985 25.5434C76.148 25.5434 75.9975 25.5434 75.8469 25.5434C75.6964 25.5434 75.5358 25.5434 75.3753 25.5434C75.0541 25.5434 74.723 25.5135 74.4019 25.5035C74.0707 25.4836 73.7496 25.4637 73.4385 25.4437C73.1274 25.4238 72.8163 25.4039 72.5253 25.384C71.3913 25.3043 70.5182 25.2345 70.5182 25.2345C70.6587 25.2445 70.8995 25.3043 71.1705 25.3939C71.4414 25.4935 71.7626 25.6231 72.0937 25.7924C72.2543 25.8721 72.4149 25.9717 72.5654 26.0614C72.7159 26.161 72.8765 26.2606 73.017 26.3603C73.1575 26.4699 73.2779 26.5794 73.3883 26.6791C73.4485 26.7388 73.4987 26.7886 73.5489 26.8385C73.5689 26.8683 73.599 26.8883 73.6191 26.9182C73.6392 26.948 73.6592 26.9779 73.6793 26.9979C73.8198 27.2071 73.9603 27.3963 74.1008 27.5657C74.2313 27.7351 74.3517 27.8845 74.4721 28.024C74.723 28.3029 74.9337 28.552 75.1244 28.8409C75.1746 28.9106 75.2649 28.9804 75.3753 29.0501C75.4857 29.1099 75.6362 29.1796 75.7968 29.2394C76.1179 29.3589 76.5293 29.4685 76.9207 29.5582C77.3121 29.6478 77.6934 29.7275 77.9744 29.7873C78.2554 29.8471 78.436 29.877 78.436 29.877C78.7973 29.8371 79.1084 29.9068 79.3593 30.0463C79.6202 30.1858 79.8309 30.385 79.9815 30.5942C80.0718 30.7138 80.142 30.8234 80.2023 30.9429C80.2023 30.9429 80.2023 30.9429 80.2023 30.9629C80.2123 31.0924 80.2223 31.2219 80.2324 31.3514C80.2324 31.4809 80.2424 31.6104 80.2524 31.73C80.2524 31.8595 80.2725 31.989 80.2725 32.1185C80.2725 32.248 80.2725 32.3775 80.2825 32.507C80.3427 34.5592 80.1721 36.6613 79.8109 38.7434C79.7808 38.8928 79.7507 39.0423 79.7206 39.1917C79.7005 39.1319 79.6804 39.0722 79.6603 39.0124C79.6202 38.863 79.5901 38.7036 79.56 38.5342C79.55 38.4545 79.5399 38.3648 79.5299 38.2752C79.5299 38.1855 79.5199 38.0959 79.5199 38.0062C79.5199 37.9165 79.5199 37.8169 79.5199 37.7273C79.5199 37.6276 79.5399 37.538 79.55 37.4384C79.5801 37.2391 79.6001 37.0299 79.6001 36.8307C79.6001 36.6214 79.6001 36.4122 79.57 36.1931C79.5399 35.9839 79.4998 35.7746 79.4496 35.5654C79.3894 35.3562 79.3191 35.157 79.2288 34.9677C79.1385 34.7784 79.0281 34.5991 78.9077 34.4297C78.7772 34.2604 78.6367 34.1109 78.4762 33.9715C78.145 33.7025 77.7436 33.5032 77.2619 33.3937C76.6498 33.2641 75.9774 33.0649 75.3251 32.8657C74.9939 32.766 74.6628 32.6564 74.3416 32.5568C74.0205 32.4572 73.7195 32.3576 73.4284 32.258C73.1374 32.1683 72.8665 32.0786 72.6256 32.0089C72.5052 31.969 72.3848 31.9392 72.2844 31.8993C72.174 31.8694 72.0737 31.8296 71.9834 31.7997C71.6221 31.6801 71.4013 31.6004 71.4013 31.6004C71.4716 31.6303 71.5619 31.6702 71.6723 31.73C71.7224 31.7598 71.7826 31.7897 71.8429 31.8296C71.9031 31.8694 71.9633 31.8993 72.0335 31.9491C72.164 32.0288 72.2944 32.1185 72.4349 32.2281C72.5052 32.2779 72.5754 32.3277 72.6457 32.3875C72.7159 32.4472 72.7862 32.507 72.8564 32.5668C72.9267 32.6266 72.9969 32.6963 73.0672 32.7561C73.1374 32.8158 73.2077 32.8856 73.2679 32.9553C73.3983 33.0948 73.5187 33.2343 73.6392 33.3737C73.7496 33.5132 73.8499 33.6626 73.9302 33.8021C73.9703 33.8718 74.0105 33.9416 74.0406 34.0113C74.0707 34.0811 74.1008 34.1508 74.1209 34.2106C74.161 34.3401 74.2112 34.4596 74.2513 34.5692C74.2915 34.6788 74.3316 34.7884 74.3818 34.898C74.4219 34.9976 74.4721 35.0972 74.5122 35.1968C74.5524 35.2965 74.5925 35.3861 74.6327 35.4758C74.6728 35.5654 74.7129 35.6551 74.7531 35.7348C74.7932 35.8245 74.8233 35.9042 74.8635 35.9839C74.9337 36.1532 75.004 36.3126 75.0542 36.4919C75.1043 36.6713 75.3251 36.8705 75.6362 37.0797C75.9373 37.2889 76.3186 37.5081 76.6899 37.7073C77.0612 37.9066 77.4325 38.0959 77.6934 38.2254C77.9644 38.3549 78.145 38.4445 78.145 38.4445C78.5264 38.5043 78.8174 38.6538 79.0482 38.8729C79.269 39.0821 79.4195 39.3511 79.5199 39.6002C79.55 39.6699 79.56 39.7396 79.5801 39.8094C79.4396 40.4968 79.289 41.1742 79.1184 41.8417C78.8475 42.8678 78.5364 43.864 78.1952 44.8503C77.844 45.8465 77.4626 46.8129 77.0411 47.7693C77.0411 47.7493 77.0411 47.7394 77.0411 47.7195C77.0411 47.5501 77.0411 47.3807 77.0612 47.2014C77.0813 47.0221 77.1013 46.8328 77.1515 46.6435C77.2017 46.4542 77.2519 46.255 77.3322 46.0557C77.6533 45.2588 77.8139 44.2825 77.6332 43.4058C77.5931 43.1866 77.5329 42.9674 77.4425 42.7682C77.3522 42.5689 77.2519 42.3697 77.1214 42.1904C76.8605 41.8317 76.4992 41.5229 76.0276 41.2938C75.4355 41.0148 74.8033 40.6462 74.1811 40.2577C73.5589 39.8791 72.9467 39.4806 72.4048 39.1319C71.3411 38.4445 70.5182 37.9165 70.5182 37.9165C70.6487 38.0062 70.8494 38.1855 71.0601 38.4346C71.1705 38.5541 71.2809 38.6936 71.3913 38.853C71.5017 39.0024 71.612 39.1718 71.7224 39.3412C71.8328 39.5105 71.9332 39.6898 72.0335 39.8692C72.1339 40.0485 72.2242 40.2378 72.2944 40.4171C72.3647 40.5964 72.4349 40.7757 72.4751 40.9451C72.5152 41.1144 72.5453 41.2738 72.5554 41.4233C72.5654 41.5727 72.5754 41.7122 72.5855 41.8417C72.5955 41.9712 72.6156 42.1007 72.6356 42.2203C72.6657 42.4594 72.7059 42.6785 72.746 42.8877C72.8163 43.2962 72.8966 43.6648 72.9166 44.0633C72.9267 44.2625 73.1073 44.5215 73.3582 44.8105C73.4886 44.9599 73.6392 45.1093 73.7997 45.2588C73.9603 45.4082 74.1209 45.5576 74.2915 45.7071C74.6226 45.996 74.9638 46.265 75.2047 46.4642C75.3351 46.5638 75.4355 46.6435 75.5057 46.7033C75.576 46.7631 75.6161 46.793 75.6161 46.793C75.9975 46.9324 76.2684 47.1616 76.4491 47.4305C76.5394 47.5601 76.6096 47.7095 76.6598 47.8589C76.71 48.0084 76.7401 48.1478 76.7601 48.2973C76.7601 48.3172 76.7601 48.3371 76.7601 48.357C76.429 49.0843 76.0778 49.8016 75.7064 50.489C74.7531 52.2523 73.6994 53.8861 72.5754 55.3406C72.5353 55.4004 72.4952 55.4502 72.445 55.5C72.4751 55.3705 72.5052 55.251 72.5554 55.1214C72.6156 54.9421 72.6959 54.7528 72.7862 54.5735C72.8765 54.3842 72.9869 54.2049 73.1274 54.0156C73.6592 53.2685 74.0506 52.3021 74.0807 51.3557C74.0908 50.8875 74.0205 50.4192 73.8298 49.9909C73.6392 49.5625 73.3381 49.1739 72.9066 48.8452C72.6356 48.636 72.3547 48.4068 72.0737 48.1578C71.7927 47.9187 71.5117 47.6497 71.2307 47.3907C70.9497 47.1317 70.6788 46.8627 70.4178 46.6037C70.1569 46.3447 69.896 46.0956 69.6552 45.8565C68.7119 44.92 67.9893 44.2028 67.9893 44.2028C68.0495 44.2625 68.1198 44.3522 68.19 44.4618C68.2603 44.5714 68.3405 44.7009 68.4309 44.8603C68.5111 45.0097 68.6015 45.1791 68.6817 45.3584C68.762 45.5377 68.8423 45.727 68.9125 45.9262C68.9928 46.1255 69.053 46.3247 69.1133 46.5339C69.1735 46.7431 69.2236 46.9524 69.2538 47.1516C69.2738 47.2512 69.2839 47.3508 69.3039 47.4505C69.314 47.5501 69.324 47.6398 69.324 47.7294C69.324 47.9087 69.324 48.0881 69.3039 48.2375C69.2738 48.3869 69.2638 48.5364 69.2437 48.6758C69.2337 48.8153 69.2136 48.9448 69.2036 49.0644C69.1935 49.1939 69.1835 49.3134 69.1835 49.423C69.1835 49.5426 69.1735 49.6521 69.1634 49.7617C69.1634 49.8713 69.1634 49.9809 69.1534 50.0805C69.1534 50.1901 69.1434 50.2798 69.1333 50.3893C69.1333 50.489 69.1233 50.5886 69.1133 50.6882C69.1032 50.7878 69.0832 50.8875 69.0731 50.9871C69.053 51.0867 69.0731 51.2162 69.1333 51.3557C69.1835 51.4952 69.2638 51.6645 69.3641 51.8339C69.4645 52.0032 69.5849 52.1925 69.7053 52.3818C69.8358 52.5711 69.9663 52.7604 70.1068 52.9497C70.3777 53.3183 70.6487 53.6769 70.8594 53.9359C71.0601 54.1949 71.2006 54.3643 71.2006 54.3643C71.5619 54.5934 71.7726 54.8923 71.883 55.2011C71.9934 55.49 72.0034 55.7989 71.9733 56.0778C71.03 57.2235 70.0566 58.2596 69.0731 59.1362C67.9793 60.1126 66.8754 60.8996 65.8317 61.5073C65.8819 61.4475 65.9321 61.3877 65.9923 61.318C66.2532 61.0191 66.5643 60.7302 66.9557 60.4513C67.347 60.1823 67.7184 59.8336 68.0294 59.4451C68.3405 59.0466 68.5914 58.6082 68.742 58.14C68.7821 58.0205 68.8122 57.9109 68.8323 57.7913C68.8523 57.6718 68.8724 57.5522 68.8824 57.4327C68.8824 57.3131 68.8925 57.1936 68.8925 57.0741C68.8925 56.9545 68.8724 56.835 68.8523 56.7154C68.8122 56.4763 68.742 56.2472 68.6416 56.018C68.5312 55.7889 68.3907 55.5598 68.2201 55.3406C67.9993 55.0617 67.7685 54.7628 67.5477 54.454C67.327 54.1451 67.0962 53.8164 66.8754 53.4876C66.6546 53.1688 66.4439 52.8401 66.2331 52.5213C66.0224 52.2124 65.8217 51.9036 65.631 51.6147C65.4403 51.3258 65.2597 51.0568 65.0991 50.8177C64.9386 50.5786 64.7881 50.3595 64.6676 50.1801C64.4268 49.8215 64.2863 49.6123 64.2863 49.6123C64.3766 49.7518 64.497 50.0108 64.6074 50.3395C64.6576 50.4989 64.7178 50.6783 64.7579 50.8775C64.768 50.9273 64.778 50.9771 64.7981 51.0269C64.7981 51.0767 64.8182 51.1266 64.8282 51.1764C64.8483 51.276 64.8683 51.3756 64.8884 51.4852C64.9285 51.6944 64.9486 51.9036 64.9687 52.1128C64.9888 52.322 64.9888 52.5312 64.9888 52.7305C64.9888 52.9297 64.9687 53.119 64.9386 53.2884C64.9285 53.378 64.9085 53.4577 64.8884 53.5374C64.8683 53.6072 64.8382 53.6869 64.8181 53.7466C64.788 53.8164 64.768 53.8762 64.7379 53.9459C64.7078 54.0057 64.6877 54.0654 64.6676 54.1252C64.6275 54.2448 64.5873 54.3643 64.5472 54.4739C64.477 54.6931 64.4167 54.9023 64.3666 55.0916C64.3365 55.1912 64.3164 55.2808 64.2863 55.3705C64.2562 55.4602 64.2361 55.5498 64.206 55.6395C64.196 55.6793 64.1759 55.7291 64.1659 55.769L64.1458 55.8387L64.1157 55.8985C64.0856 55.9782 64.0454 56.0679 64.0053 56.1476C63.9852 56.1874 63.9752 56.2472 63.9652 56.307C63.9652 56.3667 63.9652 56.4265 63.9652 56.5062C63.9752 56.6556 64.0153 56.835 64.0555 57.0342C64.1458 57.4227 64.2863 57.891 64.4268 58.3393C64.5673 58.7975 64.7078 59.2259 64.8081 59.5447C64.9185 59.8635 64.9787 60.0727 64.9787 60.0727C65.2296 60.4314 65.33 60.79 65.3099 61.1387C65.3099 61.2283 65.2999 61.308 65.2798 61.3977C65.2597 61.4774 65.2396 61.5571 65.2196 61.6368C65.1895 61.7165 65.1594 61.7962 65.1292 61.8659C65.1292 61.8759 65.1192 61.8858 65.1092 61.8958C64.7078 62.105 64.3164 62.2843 63.9551 62.4338C63.8247 62.4836 63.7042 62.5334 63.5838 62.5832C63.4634 62.6231 63.343 62.6729 63.2225 62.7127C63.1021 62.7526 62.9917 62.7924 62.8713 62.8223C62.7609 62.8522 62.6505 62.892 62.5401 62.9219C61.6671 63.1511 60.9746 63.2407 60.503 63.2806C60.4428 63.2806 60.3926 63.2806 60.3324 63.2905C60.3023 63.2905 60.2822 63.2905 60.2621 63.2905C60.2421 63.2905 60.212 63.2905 60.1919 63.2905C60.1016 63.2905 60.0213 63.2905 59.9611 63.2905C59.8407 63.2905 58.1949 63.161 58.1949 63.161C58.1949 63.161 55.114 63.0116 54.3313 62.643C53.9198 62.4537 53.408 62.4736 53.0869 62.7725C52.7959 63.0415 53.0167 63.5296 53.1873 64.2868C53.5485 65.9007 54.9133 66.8371 54.7026 68.2318C54.7026 68.2318 55.7463 66.6877 54.9635 65.3826C54.9635 65.3826 55.0839 64.0178 57.7834 64.2868C57.7834 64.2868 58.1648 64.3067 58.6063 64.3366C58.0042 65.0339 57.4322 66.4386 59.0178 68.8097C61.2657 72.1869 61.1452 73.8008 61.1051 74.0399C61.1653 73.6713 61.7775 69.6266 60.3826 68.2418C58.5461 66.4187 59.2987 65.1535 60.1919 64.3963C60.212 64.3963 60.222 64.3963 60.2421 64.3963H60.3223C60.3223 64.3963 60.3826 64.3963 60.4127 64.3963C60.4729 64.3963 60.5331 64.3963 60.6033 64.3864C61.1352 64.3465 61.918 64.2469 62.8813 63.9879C63.0018 63.958 63.1222 63.9182 63.2526 63.8783C63.3731 63.8385 63.5035 63.8086 63.634 63.7588C63.7644 63.7189 63.8949 63.6691 64.0354 63.6193C64.1659 63.5695 64.3064 63.5097 64.4468 63.4599C64.8683 63.2905 65.3099 63.0813 65.7514 62.8522C66.0425 62.8721 66.3536 62.9319 66.6446 63.0315C66.9958 63.171 67.327 63.3902 67.5578 63.7687C67.5578 63.7687 67.7384 63.9082 68.0395 64.1174C68.3405 64.3167 68.762 64.5856 69.2236 64.8247C69.4545 64.9443 69.6953 65.0638 69.9462 65.1635C70.1971 65.2631 70.4379 65.3527 70.6788 65.4125C71.1504 65.5321 71.602 65.5719 71.9031 65.4524C72.0536 65.3926 72.2041 65.3428 72.3346 65.3029C72.4751 65.2631 72.5955 65.2332 72.726 65.2033C72.9768 65.1435 73.2277 65.1037 73.4886 65.0539C73.6191 65.024 73.7596 64.9941 73.9001 64.9542C73.9703 64.9343 74.0506 64.9144 74.1209 64.8845C74.2012 64.8646 74.2714 64.8347 74.3617 64.8048C74.5223 64.745 74.7029 64.6753 74.8936 64.5856C75.0843 64.496 75.285 64.3864 75.5057 64.2569C75.7265 64.1274 75.9874 64.0178 76.2785 63.9182C76.5795 63.8185 76.9006 63.7289 77.2418 63.6492C77.5931 63.5695 77.9443 63.4997 78.3156 63.43C78.6869 63.3702 79.0582 63.3005 79.4295 63.2507C80.9047 63.0315 82.2996 62.8821 82.7211 62.8622C82.7211 62.8622 82.6408 62.8622 82.4903 62.8522C82.3398 62.8522 82.119 62.8323 81.848 62.8123C81.5771 62.7924 81.2459 62.7526 80.8947 62.7127C80.5334 62.6729 80.132 62.6231 79.7206 62.5533C78.8876 62.4238 77.9744 62.2445 77.1014 62.0054C76.2283 61.7763 75.4054 61.4874 74.733 61.1686C74.2012 60.9195 73.6191 60.7701 73.017 60.6904C72.7159 60.6505 72.4149 60.6306 72.1138 60.6306C71.9633 60.6306 71.8128 60.6306 71.6622 60.6406C71.5117 60.6406 71.3612 60.6605 71.2207 60.6704C71.1504 60.6704 71.0701 60.6904 70.9999 60.7003C70.9296 60.7003 70.8494 60.7203 70.7791 60.7302C70.6286 60.7501 70.4881 60.78 70.3476 60.8099C70.2071 60.8398 70.0666 60.8697 69.9261 60.9095C69.7856 60.9494 69.6552 60.9892 69.5247 61.0391C69.3942 61.0789 69.2638 61.1287 69.1333 61.1785C69.0029 61.2283 68.8824 61.2881 68.762 61.3479C68.5212 61.4674 68.3004 61.6069 68.0796 61.7464C67.9793 61.8161 67.8689 61.8958 67.7585 61.9556C67.6481 62.0154 67.5377 62.0751 67.4273 62.1249C67.2166 62.2246 66.9958 62.3043 66.7851 62.3541C66.7349 62.374 66.6847 62.384 66.6245 62.3939C66.5844 62.3939 66.5342 62.4138 66.494 62.4238C67.5979 61.7763 68.742 60.9594 69.8659 59.9432C70.9296 58.9968 71.9834 57.881 72.9869 56.6357C73.1073 56.5959 73.2277 56.5461 73.3682 56.5261C73.5388 56.4863 73.7195 56.4664 73.9001 56.4664C74.2614 56.4664 74.6427 56.5461 74.9939 56.7951C74.9939 56.7951 75.0441 56.815 75.1445 56.835C75.2348 56.8648 75.3753 56.8947 75.5459 56.9445C75.8871 57.0242 76.3487 57.1338 76.8505 57.2036C77.3422 57.2833 77.8741 57.3331 78.3257 57.3131C78.436 57.3131 78.5565 57.3032 78.6568 57.2932C78.7572 57.2833 78.8575 57.2633 78.9478 57.2434C79.1285 57.1936 79.279 57.1338 79.3994 57.0442C79.5098 56.9545 79.6202 56.8748 79.7206 56.815C79.8209 56.7453 79.9313 56.6855 80.0317 56.6257C80.132 56.566 80.2324 56.5162 80.3427 56.4564C80.4431 56.4066 80.5535 56.3468 80.6538 56.287C81.0854 56.0479 81.5671 55.7491 82.1892 55.1214C82.5003 54.8027 82.982 54.5038 83.534 54.2149C83.815 54.0754 84.106 53.9359 84.4171 53.7965C84.7181 53.657 85.0393 53.5275 85.3504 53.4079C85.6615 53.2884 85.9625 53.1688 86.2636 53.0592C86.5546 52.9497 86.8356 52.86 87.0865 52.7604C87.5882 52.591 87.9796 52.4615 88.1803 52.4217C88.1803 52.4217 88.1 52.4316 87.9595 52.4515C87.819 52.4715 87.6183 52.5014 87.3574 52.5312C87.1065 52.5611 86.8055 52.601 86.4643 52.6408C86.1231 52.6807 85.7518 52.7106 85.3604 52.7305C84.959 52.7604 84.5475 52.7803 84.1261 52.7903C83.7046 52.7903 83.263 52.7903 82.8415 52.7903C82.6308 52.7903 82.42 52.7703 82.2093 52.7604C81.9986 52.7404 81.7979 52.7305 81.5871 52.7106C81.1857 52.6707 80.8044 52.6209 80.4531 52.5512C80.1721 52.4914 79.8912 52.4715 79.6102 52.4715C79.3292 52.4715 79.0482 52.4814 78.7672 52.5213C78.2153 52.601 77.6633 52.7504 77.1616 52.9696C76.148 53.4079 75.2749 54.0555 74.723 54.8525C74.5825 55.0517 74.432 55.231 74.2814 55.3904C74.1209 55.5498 73.9603 55.6893 73.7897 55.8088C73.6994 55.8786 73.6091 55.9284 73.5188 55.9782C74.6728 54.4739 75.7566 52.8002 76.7401 50.9871C77.1616 50.21 77.5529 49.3931 77.9343 48.5662C78.1852 48.3969 78.4662 48.2474 78.7873 48.1678C78.9579 48.1279 79.1385 48.108 79.3191 48.108C79.4998 48.108 79.6905 48.1578 79.8811 48.2275C79.8811 48.2275 80.7442 48.2773 81.6975 48.2076C82.1792 48.1777 82.6709 48.108 83.0924 47.9984C83.5139 47.8888 83.8551 47.7394 84.0157 47.5302C84.0959 47.4305 84.1762 47.3409 84.2565 47.2512C84.3368 47.1616 84.4171 47.0819 84.4974 47.0121C84.6579 46.8627 84.8285 46.7133 84.9991 46.5539C85.1697 46.3945 85.3504 46.2151 85.5511 45.986C85.7417 45.7569 85.9424 45.4879 86.1632 45.1292C86.2736 44.9499 86.4141 44.7706 86.5847 44.5813C86.7653 44.402 86.956 44.2127 87.1768 44.0234C87.2872 43.9338 87.3976 43.8341 87.518 43.7445C87.6284 43.6548 87.7488 43.5552 87.8792 43.4655C88.1201 43.2763 88.381 43.0969 88.6319 42.9176C88.8828 42.7383 89.1337 42.5689 89.3745 42.4095C89.6153 42.2501 89.8361 42.1007 90.0469 41.9712C90.2576 41.8417 90.4382 41.7221 90.5988 41.6325C90.7493 41.5428 90.8798 41.4731 90.9601 41.4233C90.9601 41.4233 90.8898 41.4532 90.7694 41.503L90.8096 41.4332Z" fill="#FE7300"/>
<path d="M36.6689 62.5637C35.8862 62.9223 32.8054 63.0817 32.8054 63.0817C32.8054 63.0817 31.1596 63.2112 31.0391 63.2112C30.9789 63.2112 30.8987 63.2112 30.8083 63.2112C30.7883 63.2112 30.7582 63.2112 30.7381 63.2112C30.718 63.2112 30.6879 63.2112 30.6678 63.2112C30.6177 63.2112 30.5575 63.2112 30.4972 63.2013C30.0256 63.1714 29.3231 63.0817 28.4601 62.8426C28.3497 62.8127 28.2393 62.7729 28.1289 62.743C28.0185 62.7131 27.8981 62.6732 27.7777 62.6334C27.6573 62.5936 27.5368 62.5537 27.4164 62.5039C27.296 62.4541 27.1655 62.4043 27.0451 62.3545C26.6738 62.205 26.2824 62.0157 25.891 61.8165C25.891 61.8065 25.881 61.7966 25.871 61.7866C25.8308 61.7069 25.8007 61.6372 25.7807 61.5575C25.7506 61.4778 25.7305 61.3981 25.7204 61.3184C25.7004 61.2387 25.7004 61.149 25.6903 61.0594C25.6803 60.7107 25.7706 60.352 26.0215 59.9934C26.0215 59.9934 26.0917 59.7842 26.1921 59.4654C26.2925 59.1466 26.4329 58.7182 26.5734 58.2599C26.7139 57.8116 26.8544 57.3434 26.9447 56.9549C26.9949 56.7556 27.025 56.5763 27.0351 56.4269C27.0351 56.3571 27.0351 56.2874 27.0351 56.2276C27.0351 56.1679 27.015 56.1181 26.9949 56.0682C26.9548 55.9786 26.9247 55.8989 26.8946 55.8192L26.8745 55.7594L26.8544 55.6897C26.8544 55.6897 26.8243 55.6 26.8143 55.5602C26.7842 55.4705 26.7641 55.3808 26.734 55.2912C26.7039 55.2015 26.6838 55.1019 26.6537 55.0122C26.6035 54.823 26.5433 54.6137 26.4631 54.3946C26.4229 54.285 26.3928 54.1654 26.3426 54.0459C26.3226 53.9861 26.2925 53.9263 26.2724 53.8666C26.2523 53.8068 26.2222 53.7371 26.1921 53.6673C26.162 53.5976 26.1419 53.5279 26.1219 53.4581C26.1018 53.3784 26.0817 53.2987 26.0717 53.2091C26.0416 53.0297 26.0215 52.8504 26.0215 52.6512C26.0215 52.4519 26.0215 52.2527 26.0416 52.0335C26.0616 51.8243 26.0817 51.6151 26.1219 51.4059C26.1419 51.3063 26.162 51.1967 26.1821 51.0971C26.1921 51.0472 26.2021 50.9974 26.2122 50.9476C26.2222 50.8978 26.2322 50.848 26.2423 50.7982C26.2925 50.5989 26.3426 50.4196 26.3928 50.2602C26.5032 49.9315 26.6136 49.6724 26.7139 49.533C26.7139 49.533 26.5734 49.7521 26.3326 50.1008C26.2122 50.2801 26.0717 50.4993 25.9011 50.7384C25.7405 50.9775 25.5599 51.2564 25.3692 51.5354C25.1785 51.8243 24.9778 52.1331 24.7671 52.442C24.5564 52.7608 24.3356 53.0895 24.1248 53.4083C23.9041 53.7371 23.6833 54.0658 23.4525 54.3747C23.2317 54.6835 23.0009 54.9824 22.7801 55.2613C22.5995 55.4805 22.459 55.6996 22.3586 55.9387C22.2482 56.1679 22.188 56.397 22.1479 56.6361C22.1278 56.7556 22.1178 56.8752 22.1077 56.9947C22.1077 57.1143 22.1077 57.2338 22.1178 57.3534C22.1278 57.4729 22.1479 57.5925 22.168 57.712C22.188 57.8316 22.2282 57.9412 22.2583 58.0607C22.4088 58.5289 22.6597 58.9673 22.9708 59.3658C23.2819 59.7543 23.6532 60.1129 24.0445 60.372C24.4259 60.6409 24.747 60.9398 25.0079 61.2387C25.0581 61.2985 25.1083 61.3682 25.1685 61.428C24.1248 60.8203 23.031 60.0332 21.9271 59.0569C20.9436 58.1802 19.9702 57.1442 19.0269 55.9985C19.0068 55.7096 19.0169 55.4107 19.1172 55.1218C19.2276 54.803 19.4484 54.5141 19.7996 54.285C19.7996 54.285 19.9401 54.1156 20.1408 53.8566C20.3516 53.5976 20.6225 53.2489 20.8935 52.8703C21.034 52.6811 21.1644 52.4918 21.2949 52.3025C21.4253 52.1132 21.5357 51.9239 21.6361 51.7546C21.7364 51.5752 21.8167 51.4158 21.8669 51.2764C21.9171 51.1369 21.9371 51.0074 21.9271 50.9078C21.907 50.8081 21.897 50.7085 21.887 50.6089C21.8769 50.5093 21.8669 50.4097 21.8669 50.31C21.8669 50.2104 21.8569 50.1108 21.8468 50.0012C21.8468 49.9016 21.8468 49.792 21.8368 49.6824C21.8368 49.5728 21.8368 49.4632 21.8167 49.3437C21.8167 49.2341 21.8067 49.1046 21.7966 48.985C21.7866 48.8555 21.7665 48.726 21.7565 48.5965C21.7364 48.457 21.7264 48.3176 21.6963 48.1582C21.6662 48.0087 21.6662 47.8394 21.6762 47.6501C21.6762 47.5604 21.6863 47.4608 21.6963 47.3712C21.7063 47.2715 21.7264 47.1719 21.7465 47.0723C21.7866 46.873 21.8268 46.6638 21.887 46.4546C21.9472 46.2454 22.0074 46.0462 22.0877 45.8469C22.1579 45.6477 22.2382 45.4484 22.3185 45.2791C22.3988 45.0997 22.4891 44.9304 22.5694 44.781C22.6496 44.6315 22.7299 44.502 22.8102 44.3825C22.8905 44.2729 22.9507 44.1832 23.0109 44.1234C23.0109 44.1234 22.2884 44.8507 21.3451 45.7772C21.1042 46.0163 20.8533 46.2653 20.5824 46.5244C20.3114 46.7834 20.0405 47.0424 19.7695 47.3114C19.4885 47.5704 19.2075 47.8294 18.9266 48.0785C18.6456 48.3275 18.3646 48.5567 18.0936 48.7659C17.6621 49.0946 17.361 49.4832 17.1704 49.9115C16.9797 50.3399 16.9095 50.8081 16.9195 51.2764C16.9496 52.2228 17.351 53.1891 17.8728 53.9363C18.0033 54.1256 18.1137 54.3049 18.214 54.4942C18.3144 54.6835 18.3846 54.8628 18.4449 55.0421C18.495 55.1716 18.5251 55.3011 18.5552 55.4207C18.5151 55.3709 18.475 55.3211 18.4248 55.2613C17.3008 53.8068 16.2471 52.173 15.2938 50.4097C14.9225 49.7223 14.5712 49.005 14.2401 48.2777C14.2401 48.2578 14.2401 48.2379 14.2401 48.2179C14.2601 48.0685 14.2903 47.929 14.3404 47.7796C14.3906 47.6302 14.4609 47.4907 14.5512 47.3512C14.7318 47.0822 14.9927 46.8531 15.3841 46.7136C15.3841 46.7136 15.4242 46.6838 15.4945 46.624C15.5647 46.5642 15.6651 46.4845 15.7955 46.3849C16.0464 46.1856 16.3776 45.9167 16.7088 45.6277C16.8794 45.4783 17.0399 45.3289 17.2005 45.1794C17.361 45.03 17.5116 44.8806 17.642 44.7311C17.903 44.4422 18.0736 44.1832 18.0836 43.984C18.1037 43.5855 18.1839 43.2169 18.2542 42.8084C18.2943 42.5992 18.3345 42.38 18.3646 42.1409C18.3846 42.0214 18.3947 41.8919 18.4148 41.7624C18.4248 41.6329 18.4348 41.4934 18.4449 41.344C18.4549 41.1945 18.485 41.0351 18.5251 40.8658C18.5753 40.6964 18.6355 40.5171 18.7058 40.3378C18.776 40.1584 18.8663 39.9692 18.9667 39.7898C19.067 39.6105 19.1674 39.4312 19.2778 39.2618C19.3882 39.0925 19.4986 38.9231 19.609 38.7737C19.7193 38.6242 19.8398 38.4848 19.9401 38.3553C20.1509 38.1062 20.3516 37.9269 20.482 37.8372C20.482 37.8372 19.6591 38.3652 18.5954 39.0526C18.0535 39.4013 17.4413 39.7998 16.8191 40.1784C16.197 40.5569 15.5647 40.9255 14.9727 41.2144C14.511 41.4436 14.1397 41.7425 13.8788 42.1111C13.7483 42.2904 13.638 42.4896 13.5476 42.6889C13.4573 42.8981 13.3971 43.1073 13.357 43.3265C13.1864 44.2131 13.3369 45.1794 13.658 45.9764C13.7383 46.1757 13.7985 46.3749 13.8387 46.5642C13.8888 46.7535 13.9189 46.9428 13.929 47.1221C13.9491 47.3014 13.949 47.4807 13.949 47.6401C13.949 47.6601 13.949 47.67 13.949 47.6899C13.5276 46.7435 13.1462 45.7672 12.795 44.771C12.4438 43.7847 12.1427 42.7785 11.8717 41.7624C11.6911 41.0849 11.5406 40.4075 11.4101 39.7301C11.4302 39.6603 11.4503 39.5906 11.4703 39.5209C11.5707 39.2618 11.7212 39.0028 11.942 38.7936C12.1628 38.5844 12.4638 38.425 12.8452 38.3652C12.8452 38.3652 13.0258 38.2855 13.2968 38.1461C13.5677 38.0165 13.929 37.8273 14.3003 37.628C14.6716 37.4288 15.0529 37.2096 15.354 37.0004C15.6551 36.7912 15.8758 36.582 15.936 36.4126C15.9862 36.2333 16.0565 36.0739 16.1267 35.9045C16.1668 35.8248 16.197 35.7352 16.2371 35.6555C16.2772 35.5758 16.3174 35.4861 16.3575 35.3965C16.3977 35.3068 16.4378 35.2171 16.4779 35.1175C16.5181 35.0179 16.5683 34.9282 16.6084 34.8186C16.6485 34.7091 16.6987 34.6094 16.7389 34.4899C16.779 34.3703 16.8292 34.2508 16.8693 34.1312C16.8894 34.0715 16.9195 34.0017 16.9496 33.932C16.9797 33.8623 17.0198 33.7925 17.06 33.7228C17.1403 33.5833 17.2406 33.4438 17.351 33.2944C17.4614 33.1549 17.5919 33.0155 17.7223 32.876C17.7825 32.8063 17.8528 32.7465 17.923 32.6768C17.9933 32.617 18.0635 32.5472 18.1338 32.4875C18.204 32.4277 18.2743 32.3679 18.3445 32.3081C18.4148 32.2484 18.485 32.1986 18.5552 32.1488C18.6957 32.0392 18.8362 31.9495 18.9567 31.8698C19.0269 31.83 19.0871 31.7901 19.1473 31.7503C19.2075 31.7104 19.2678 31.6805 19.3179 31.6506C19.4283 31.5909 19.5186 31.551 19.5889 31.5211C19.5889 31.5211 19.3681 31.5909 19.0068 31.7204C18.9165 31.7503 18.8162 31.7801 18.7058 31.82C18.5954 31.8499 18.485 31.8897 18.3646 31.9296C18.1237 32.0093 17.8427 32.089 17.5618 32.1786C17.2707 32.2683 16.9697 32.3679 16.6485 32.4775C16.3274 32.5771 15.9962 32.6867 15.6651 32.7863C15.0028 32.9955 14.3404 33.1848 13.7283 33.3143C13.2466 33.4239 12.8452 33.6232 12.514 33.8922C12.3434 34.0316 12.2029 34.1811 12.0825 34.3504C11.952 34.5198 11.8416 34.6991 11.7614 34.8884C11.671 35.0777 11.5908 35.2869 11.5406 35.4861C11.4904 35.6953 11.4503 35.9045 11.4202 36.1137C11.4001 36.323 11.3901 36.5421 11.3901 36.7513C11.3901 36.9605 11.4101 37.1598 11.4402 37.359C11.4503 37.4587 11.4603 37.5483 11.4703 37.6479C11.4703 37.7476 11.4804 37.8372 11.4703 37.9269C11.4703 38.0165 11.4703 38.1062 11.4603 38.1959C11.4603 38.2855 11.4503 38.3652 11.4302 38.4549C11.4101 38.6242 11.37 38.7836 11.3298 38.9331C11.3098 38.9929 11.2897 39.0526 11.2696 39.1124C11.2395 38.963 11.2094 38.8135 11.1793 38.6641C10.818 36.5919 10.6474 34.4899 10.7077 32.4277C10.7077 32.2982 10.7077 32.1687 10.7177 32.0392C10.7177 31.9097 10.7277 31.7801 10.7378 31.6506C10.7378 31.5211 10.7578 31.4016 10.7578 31.2721C10.7679 31.1426 10.7779 31.013 10.7879 30.8835C10.7879 30.8835 10.7879 30.8736 10.7879 30.8636C10.8481 30.754 10.9184 30.6345 11.0087 30.5149C11.1592 30.3057 11.37 30.1065 11.6309 29.967C11.8918 29.8275 12.1929 29.7578 12.5541 29.7976C12.5541 29.7976 12.7348 29.7678 13.0158 29.708C13.2968 29.6482 13.6681 29.5685 14.0695 29.4789C14.4609 29.3792 14.8623 29.2796 15.1934 29.1601C15.354 29.1003 15.5045 29.0405 15.6149 28.9708C15.7353 28.911 15.8257 28.8413 15.8658 28.7616C16.0565 28.4727 16.2672 28.2236 16.5181 27.9447C16.6385 27.8052 16.7589 27.6558 16.8894 27.4864C17.0299 27.317 17.1603 27.1377 17.3109 26.9185C17.3309 26.8986 17.351 26.8687 17.3711 26.8388C17.3912 26.809 17.4112 26.789 17.4413 26.7591C17.4915 26.6994 17.5417 26.6496 17.6019 26.5997C17.7123 26.4902 17.8427 26.3806 17.9732 26.281C18.1137 26.1813 18.2642 26.0717 18.4148 25.9821C18.5753 25.8825 18.7258 25.7928 18.8864 25.7131C19.2176 25.5437 19.5387 25.4142 19.8097 25.3146C20.0906 25.215 20.3215 25.1652 20.462 25.1552C20.462 25.1552 19.5889 25.215 18.4549 25.3046C18.1639 25.3246 17.8528 25.3445 17.5417 25.3644C17.2306 25.3843 16.8994 25.4142 16.5783 25.4242C16.2572 25.4441 15.926 25.4541 15.6049 25.464C15.4443 25.464 15.2837 25.464 15.1332 25.464C14.9827 25.464 14.8322 25.464 14.6816 25.464C14.22 25.4441 13.8086 25.5338 13.4373 25.7031C13.3469 25.743 13.2566 25.7928 13.1663 25.8426C13.076 25.8924 12.9957 25.9522 12.9255 26.012C12.7649 26.1315 12.6244 26.271 12.4839 26.4204C12.3434 26.5699 12.233 26.7392 12.1327 26.9086C12.0323 27.0779 11.932 27.2672 11.8517 27.4465C11.7814 27.6358 11.7112 27.8251 11.661 28.0144C11.6108 28.2037 11.5707 28.393 11.5406 28.5723C11.5205 28.7616 11.4804 28.9309 11.4302 29.1003C11.4101 29.18 11.38 29.2597 11.3499 29.3394C11.3198 29.4191 11.2897 29.4888 11.2596 29.5685C11.1392 29.8375 10.9886 30.0766 10.8481 30.2758C10.8481 30.226 10.8481 30.1762 10.8682 30.1164C10.8983 29.8674 10.9284 29.6084 10.9585 29.3593C11.089 28.3531 11.2696 27.3668 11.4904 26.4105C11.7112 25.4541 11.9821 24.5176 12.2832 23.621C12.3635 23.3919 12.4438 23.1727 12.514 22.9535C12.5943 22.7344 12.6846 22.5152 12.7649 22.296C12.7649 22.2761 12.7749 22.2661 12.785 22.2462C12.8853 22.1167 13.0459 21.9573 13.2466 21.8079C13.3469 21.7381 13.4573 21.6584 13.5777 21.5987C13.638 21.5688 13.6982 21.5389 13.7584 21.519C13.8186 21.499 13.8888 21.4791 13.9591 21.4592C14.23 21.3994 14.5211 21.3994 14.8422 21.5289C14.8422 21.5289 15.5346 21.5887 16.2873 21.5987C16.6686 21.6086 17.06 21.5987 17.3811 21.5787C17.7123 21.5489 17.9732 21.4891 18.0936 21.3795C18.3445 21.1603 18.6054 20.981 18.9065 20.7818C18.9767 20.7319 19.057 20.6821 19.1373 20.6224C19.2176 20.5626 19.2979 20.5028 19.3781 20.443C19.5487 20.3235 19.7193 20.1741 19.91 20.0147C20.1007 19.8453 20.3716 19.6959 20.6928 19.5464C20.8533 19.4767 21.0139 19.4169 21.1845 19.3572C21.2748 19.3273 21.3551 19.2974 21.4354 19.2775C21.5257 19.2476 21.606 19.2276 21.6963 19.1978C22.3787 19.0085 23.041 18.9188 23.312 18.9487C23.312 18.9487 23.1113 18.9288 22.7701 18.8889C22.5995 18.869 22.3988 18.8391 22.168 18.8092C21.9371 18.7793 21.6863 18.7395 21.4153 18.7096C20.8734 18.6399 20.2612 18.5502 19.6591 18.4406C19.057 18.341 18.4549 18.2115 17.923 18.062C17.5116 17.9425 17.1102 17.9325 16.7288 18.0023C16.3475 18.072 15.9962 18.2314 15.6751 18.4406C15.5948 18.5004 15.5146 18.5502 15.4443 18.61C15.3741 18.6698 15.2938 18.7295 15.2235 18.7993C15.083 18.9288 14.9526 19.0682 14.8322 19.2177C14.7117 19.3671 14.6114 19.5265 14.511 19.6859C14.4609 19.7656 14.4107 19.8453 14.3705 19.925C14.3304 20.0047 14.2903 20.0844 14.2501 20.1641C14.1799 20.3235 14.0996 20.4729 14.0093 20.6024C13.9189 20.7419 13.8286 20.8615 13.7283 20.981C13.6279 21.0906 13.5276 21.2002 13.4272 21.2998C13.3269 21.3895 13.2265 21.4791 13.1262 21.5588C13.0961 21.5887 13.0659 21.6086 13.0258 21.6286C13.0659 21.519 13.1161 21.4193 13.1563 21.3098C13.1964 21.2002 13.2466 21.1006 13.2968 21.0009C13.3469 20.8913 13.3871 20.7917 13.4373 20.6921C13.4874 20.5925 13.5276 20.4829 13.5777 20.3833C13.6781 20.184 13.7684 19.9848 13.8688 19.7855C13.9691 19.5863 14.0695 19.397 14.1698 19.1978C14.22 19.0981 14.2702 19.0085 14.3204 18.9088C14.3705 18.8192 14.4207 18.7196 14.4809 18.6299C14.5311 18.5402 14.5813 18.4406 14.6315 18.351C14.6616 18.3011 14.6816 18.2613 14.7117 18.2115C14.7418 18.1617 14.7619 18.1218 14.792 18.072C14.9024 17.8827 15.0028 17.7034 15.1131 17.5241C15.2235 17.3448 15.3339 17.1654 15.4343 16.9961C15.4845 16.9064 15.5346 16.8168 15.5948 16.7371C15.645 16.6474 15.7052 16.5677 15.7554 16.478C16.2271 15.7408 16.7088 15.0534 17.1804 14.4158L17.2005 14.4358C17.2005 14.4358 17.2707 14.366 17.4012 14.2764C17.5316 14.1768 17.7123 14.0672 17.9331 13.9675C18.1538 13.8679 18.3947 13.7982 18.6556 13.7982C18.9165 13.7982 19.1875 13.858 19.4384 14.0373C19.4384 14.0373 20.0605 14.2266 20.7429 14.386C21.0841 14.4657 21.4454 14.5354 21.7565 14.5553C22.0676 14.5852 22.3285 14.5752 22.469 14.4856C22.76 14.3162 23.0511 14.1867 23.3822 14.0373C23.7034 13.8779 24.0747 13.6986 24.5162 13.4196C24.737 13.2801 25.038 13.1506 25.3692 13.051C25.7004 12.9414 26.0616 12.8617 26.4129 12.792C27.1153 12.6625 27.7877 12.6027 28.0386 12.6525C28.0386 12.6525 27.8479 12.6226 27.5268 12.5529C27.2057 12.4931 26.7541 12.3935 26.2523 12.274C25.2388 12.0349 23.9944 11.7061 23.0711 11.2877C22.3386 10.9589 21.5759 11.0386 20.9035 11.3375C20.7329 11.4072 20.5723 11.4969 20.4118 11.5965C20.2512 11.6961 20.1007 11.8057 19.9602 11.9253C19.8197 12.0448 19.6892 12.1644 19.5588 12.2939C19.4986 12.3537 19.4384 12.4234 19.3781 12.4931C19.3179 12.5529 19.2678 12.6226 19.2176 12.6924C19.1172 12.8219 19.0068 12.9414 18.8964 13.051C18.7861 13.1606 18.6656 13.2602 18.5552 13.3399C18.4348 13.4196 18.3244 13.4993 18.204 13.5691C18.0836 13.6388 17.9732 13.6986 17.8728 13.7484C17.7725 13.7882 17.6822 13.8281 17.6019 13.858C17.8528 13.5292 18.0936 13.2104 18.3345 12.9115C18.6054 12.5728 18.8764 12.2441 19.1273 11.9452C19.5588 11.4272 21.1544 9.10594 21.6963 8.31892C22.0676 8.03997 22.5192 7.84073 23.021 7.85069C23.021 7.85069 26.0917 6.97401 26.4028 6.17702C26.7139 5.38004 27.1555 4.76237 27.5569 3.49716C27.9583 2.23195 29.7145 0.299262 30.2765 -0.0195312C30.2765 -0.0195312 26.8946 1.86334 24.4259 2.41127C22.479 2.84961 21.7866 4.93173 21.7866 6.58548C21.7866 7.19318 21.5859 7.73114 21.335 8.15952C19.8598 9.77341 17.8026 12.0448 17.6019 12.2939C17.4213 12.523 17.2105 12.7721 16.9998 13.0112C16.9998 12.9414 17.0098 12.8717 17.0198 12.792C17.06 12.5429 17.1403 12.274 17.2607 11.985C17.3209 11.8356 17.4012 11.6961 17.4915 11.5467C17.5818 11.4072 17.6922 11.2578 17.8126 11.1183C18.3144 10.5505 18.7861 9.84315 19.0169 9.08601C19.1373 8.70745 19.1875 8.31892 19.1574 7.94035C19.1273 7.56178 19.0068 7.19318 18.776 6.83453C18.1839 5.94789 17.6721 4.69264 17.3209 3.66652C17.1503 3.14848 17.0098 2.69022 16.9095 2.36146C16.8191 2.0327 16.769 1.83346 16.769 1.83346C16.8392 2.10244 16.8091 2.80976 16.6987 3.59679C16.6385 3.98531 16.5582 4.39377 16.4579 4.77234C16.3575 5.1509 16.2271 5.49959 16.0866 5.77853C15.4945 6.87438 15.3741 7.56178 15.0529 8.29899C14.8924 8.67756 15.1734 9.4347 15.5146 10.1022C15.6852 10.4309 15.8658 10.7398 15.9962 10.9589C16.1367 11.1781 16.2271 11.3176 16.2271 11.3176C16.498 11.5168 16.6385 11.7659 16.7188 12.0249C16.789 12.2839 16.779 12.5529 16.7489 12.802C16.7188 13.051 16.6485 13.2702 16.5883 13.4296C16.5883 13.4595 16.5683 13.4694 16.5683 13.4894C15.9461 14.2166 15.2938 14.9937 14.7318 15.8703C14.6716 15.96 14.6214 16.0497 14.5612 16.1294C14.501 16.219 14.4508 16.3087 14.3906 16.3983C14.2802 16.5777 14.1698 16.757 14.0594 16.9463C13.9491 17.1356 13.8387 17.3149 13.7383 17.5042C13.7082 17.554 13.6881 17.5938 13.658 17.6436C13.6279 17.6934 13.6079 17.7433 13.5777 17.7931C13.5276 17.8927 13.4774 17.9824 13.4172 18.082C13.367 18.1816 13.3068 18.2812 13.2566 18.3709C13.2064 18.4705 13.1563 18.5701 13.0961 18.6698C12.9957 18.869 12.8853 19.0682 12.785 19.2775C12.6846 19.4867 12.5843 19.6959 12.4839 19.8951C12.4337 20.0047 12.3835 20.1043 12.3434 20.2139C12.2932 20.3235 12.2431 20.4231 12.2029 20.5327C12.1929 20.5626 12.1828 20.5925 12.1628 20.6124C12.1628 20.4231 12.1628 20.2239 12.1929 20.0047C12.2029 19.925 12.223 19.8453 12.2431 19.7556C12.2631 19.6759 12.2832 19.5863 12.3133 19.5066C12.3735 19.3372 12.4438 19.1579 12.5341 18.9885C12.7247 18.6399 12.8753 18.2513 12.9957 17.8528C13.0258 17.7532 13.0559 17.6536 13.076 17.554C13.0961 17.4444 13.1161 17.3448 13.1362 17.2451C13.1763 17.0359 13.1964 16.8267 13.2064 16.6175C13.2064 16.4083 13.2064 16.1991 13.1864 15.9899C13.1663 15.7807 13.1161 15.5814 13.0559 15.3822C12.9355 14.9837 12.7247 14.6151 12.4137 14.2863C12.2129 14.0771 12.0223 13.848 11.8316 13.5989C11.6409 13.3499 11.4603 13.0809 11.2797 12.8119C11.099 12.533 10.9284 12.254 10.7779 11.9751C10.6173 11.6961 10.4768 11.4172 10.3363 11.1482C10.0754 10.6102 9.85465 10.1221 9.71416 9.77341C9.57367 9.42473 9.49338 9.20556 9.49338 9.20556C9.54356 9.355 9.59374 9.63394 9.62384 9.99258C9.66398 10.3512 9.69409 10.7896 9.70412 11.2478C9.73423 12.1743 9.70412 13.1706 9.48335 13.848C9.43317 14.0174 9.38299 14.1668 9.34285 14.3162C9.30271 14.4657 9.27261 14.6051 9.25254 14.7346C9.20236 15.0036 9.16222 15.2328 9.14215 15.4619C9.12208 15.691 9.10201 15.9002 9.08194 16.0995C9.0719 16.1991 9.06187 16.3087 9.04179 16.4083C9.03176 16.5079 9.01169 16.6175 8.99162 16.7271C8.95148 16.9463 9.05183 17.2451 9.22243 17.554C9.40306 17.8728 9.65395 18.2015 9.91486 18.5104C10.1758 18.8192 10.4367 19.0882 10.6374 19.2874C10.8381 19.4767 10.9786 19.6062 10.9786 19.6062C11.3098 19.7457 11.5305 19.9649 11.671 20.2139C11.8216 20.463 11.8818 20.7419 11.9219 21.0009C11.9219 21.0707 11.9219 21.1205 11.932 21.1902C11.8416 21.4094 11.7413 21.6286 11.661 21.8577C11.5707 22.0868 11.4904 22.306 11.4001 22.5351C11.3198 22.7643 11.2395 22.9934 11.1592 23.2225C10.8481 24.159 10.5772 25.1253 10.3363 26.1116C10.1156 27.1078 9.93494 28.124 9.79444 29.1601C9.77437 29.2995 9.76434 29.439 9.74426 29.5785C9.69409 29.4191 9.64391 29.2398 9.61381 29.0505C9.59374 28.8811 9.57367 28.7018 9.5837 28.5125C9.5837 28.4228 9.5837 28.3232 9.59374 28.2236C9.59374 28.124 9.61381 28.0244 9.63388 27.9247C9.67402 27.7255 9.70412 27.5163 9.71416 27.2971C9.71416 27.1875 9.71416 27.0779 9.71416 26.9783C9.71416 26.8687 9.71416 26.7591 9.71416 26.6496C9.70412 26.4304 9.67402 26.2112 9.63388 25.992C9.59374 25.7729 9.54356 25.5537 9.47331 25.3445C9.33282 24.9161 9.14215 24.5077 8.88123 24.1391C8.75077 23.9498 8.60024 23.7804 8.42964 23.621C8.25904 23.4616 8.07841 23.3221 7.86767 23.1926C7.34583 22.8738 6.78385 22.4554 6.25198 21.9772C5.72011 21.509 5.21835 20.991 4.78683 20.5028C4.56606 20.2538 4.37539 20.0246 4.19475 19.8055C4.01412 19.5863 3.86359 19.387 3.74316 19.2276C3.49228 18.8889 3.34175 18.6797 3.34175 18.6797C3.43207 18.8192 3.56253 19.1181 3.72309 19.4966C3.80337 19.6859 3.88366 19.8951 3.96394 20.1242C4.05426 20.3534 4.13454 20.5925 4.22486 20.8316C4.265 20.9511 4.30514 21.0806 4.34528 21.2002C4.38542 21.3197 4.42556 21.4492 4.4657 21.5688C4.54599 21.8178 4.61623 22.0769 4.67644 22.316C4.70655 22.4355 4.73666 22.555 4.75673 22.6746C4.78683 22.7941 4.8069 22.9037 4.81694 23.0133C4.84704 23.2325 4.86711 23.4417 4.86711 23.631C4.86711 23.8203 4.86711 23.9896 4.86711 24.159C4.86711 24.3184 4.88719 24.4678 4.90726 24.6073C4.92733 24.7468 4.93736 24.8763 4.95743 25.0058C4.9775 25.1253 5.00761 25.2449 5.02768 25.3644C5.12803 25.8127 5.22839 26.1813 5.29863 26.6595C5.32874 26.8887 5.51941 27.1676 5.8004 27.4366C6.08139 27.7056 6.44266 27.9646 6.80393 28.2037C7.1652 28.4328 7.51643 28.6321 7.78738 28.7715C7.91784 28.8413 8.02823 28.901 8.10851 28.9309C8.1888 28.9708 8.22894 28.9907 8.22894 28.9907C8.61028 29.0305 8.9013 29.1899 9.12208 29.3992C9.35289 29.6084 9.51345 29.8674 9.62384 30.1164C9.64391 30.1463 9.64391 30.1762 9.66398 30.2061C9.66398 30.2459 9.66398 30.2858 9.65395 30.3256C9.65395 30.4552 9.63388 30.5847 9.62384 30.7241C9.61381 30.8537 9.60377 30.9931 9.59374 31.1226C9.59374 31.2521 9.57366 31.3817 9.57366 31.5211C9.57366 31.6506 9.55359 31.7901 9.55359 31.9196C9.55359 32.0491 9.55359 32.1886 9.54356 32.3181C9.48335 34.45 9.65395 36.6218 10.0253 38.7637C10.0253 38.7836 10.0253 38.8036 10.0353 38.8235C9.95501 38.694 9.86469 38.5545 9.79444 38.4051C9.63388 38.0763 9.51345 37.6878 9.46328 37.2594C9.36292 36.4027 9.00165 35.506 8.42964 34.729C8.14865 34.3405 7.79742 33.9918 7.40604 33.7029C7.20534 33.5534 6.9946 33.4239 6.77382 33.3143C6.55304 33.2048 6.32223 33.1051 6.07135 33.0454C5.76026 32.9557 5.42909 32.8461 5.08789 32.7166C4.91729 32.6469 4.74669 32.5771 4.57609 32.5074C4.40549 32.4277 4.23489 32.348 4.06429 32.2683C3.37186 31.9395 2.68946 31.551 2.09738 31.1724C1.79632 30.9832 1.52536 30.7939 1.27448 30.6146C1.0236 30.4452 0.812858 30.2958 0.632223 30.1563C0.270953 29.8873 0.0501764 29.7179 0.0501764 29.7179C0.180635 29.8375 0.421482 30.0965 0.712505 30.4352C0.853 30.6046 1.01356 30.8038 1.18416 31.013C1.26445 31.1127 1.35476 31.2223 1.43505 31.3418C1.51533 31.4514 1.60565 31.5709 1.69596 31.6805C1.86656 31.9097 2.0472 32.1487 2.20776 32.3878C2.37836 32.6269 2.53893 32.8561 2.67942 33.0952C2.81992 33.3243 2.96041 33.5534 3.0708 33.7626C3.18119 33.9818 3.26147 34.1811 3.32168 34.3703C3.38189 34.5596 3.43207 34.7389 3.49228 34.8983C3.55249 35.0577 3.6127 35.1972 3.67292 35.3367C3.79334 35.5957 3.91376 35.8149 4.03419 36.0141C4.15461 36.2134 4.27503 36.3927 4.38542 36.582C4.49581 36.7713 4.6062 36.9605 4.70655 37.1897C4.8069 37.4188 5.08789 37.638 5.4592 37.8273C5.63983 37.9269 5.84054 38.0165 6.05128 38.0962C6.26202 38.1759 6.4828 38.2457 6.70357 38.3154C7.13509 38.4449 7.55657 38.5445 7.86767 38.6143C8.17876 38.684 8.3895 38.7139 8.3895 38.7139C8.78088 38.6541 9.13211 38.7338 9.42314 38.8833C9.57367 38.953 9.70412 39.0526 9.82455 39.1522C9.94497 39.2519 10.0554 39.3615 10.1557 39.471C10.1557 39.471 10.1557 39.481 10.1758 39.491C10.3363 40.3079 10.517 41.1347 10.7277 41.9417C10.9987 42.9877 11.3198 44.0238 11.6811 45.04C12.0022 45.9565 12.3534 46.8432 12.7348 47.7198C12.3835 47.3712 12.0323 46.9129 11.8115 46.3251C11.4904 45.4683 10.8582 44.6614 10.0353 44.0437C9.62384 43.7349 9.17225 43.4759 8.67049 43.2866C8.17876 43.0973 7.65693 42.9778 7.11502 42.9678C6.42258 42.9579 5.63983 42.8582 4.84704 42.7088C4.64634 42.6689 4.44563 42.6291 4.24493 42.5892C4.04422 42.5494 3.85355 42.4996 3.65285 42.4498C3.26147 42.3502 2.88013 42.2505 2.51886 42.1509C1.79632 41.9417 1.17413 41.7225 0.722541 41.5532C0.491729 41.4735 0.321129 41.4037 0.19067 41.3539C0.070247 41.3041 0 41.2742 0 41.2742C0.0802823 41.3141 0.210741 41.3838 0.36127 41.4834C0.5118 41.5731 0.70247 41.6926 0.913211 41.8221C1.12395 41.9517 1.34473 42.1011 1.58558 42.2605C1.82642 42.4199 2.0773 42.5892 2.32819 42.7686C2.57907 42.9479 2.82995 43.1272 3.08083 43.3165C3.20126 43.4062 3.32168 43.5058 3.4421 43.5954C3.56253 43.6951 3.67292 43.7847 3.7833 43.8744C4.00408 44.0637 4.20479 44.2529 4.37539 44.4323C4.54599 44.6216 4.69652 44.8009 4.79687 44.9802C5.01764 45.3289 5.21835 45.6078 5.40902 45.837C5.59969 46.0661 5.78033 46.2355 5.96096 46.4048C6.13156 46.5642 6.30216 46.7037 6.46273 46.8631C6.54301 46.9428 6.62329 47.0225 6.70357 47.1022C6.78385 47.1918 6.86414 47.2815 6.94442 47.3811C7.10498 47.5804 7.44618 47.7398 7.86767 47.8493C8.28915 47.9589 8.78088 48.0187 9.26257 48.0586C10.2159 48.1283 11.079 48.0785 11.079 48.0785C11.2696 47.9988 11.4603 47.9589 11.6409 47.9589C11.8216 47.9589 12.0022 47.9689 12.1728 48.0187C12.4939 48.0984 12.7749 48.2478 13.0258 48.4172C13.3971 49.2441 13.7985 50.051 14.22 50.838C15.1934 52.6512 16.2772 54.3248 17.4413 55.8291C17.351 55.7694 17.2607 55.7196 17.1704 55.6598C17.0098 55.5402 16.8392 55.4008 16.6786 55.2414C16.5181 55.082 16.3776 54.9027 16.2371 54.7034C15.6852 53.9064 14.8121 53.2589 13.7985 52.8205C13.2968 52.6113 12.7448 52.4519 12.1929 52.3722C11.9119 52.3324 11.6309 52.3125 11.3499 52.3224C11.0689 52.3224 10.7879 52.3523 10.5069 52.4021C10.1557 52.4718 9.77437 52.5217 9.37296 52.5615C9.17225 52.5814 8.96151 52.6014 8.75077 52.6113C8.54003 52.6213 8.32929 52.6312 8.11855 52.6412C7.69707 52.6512 7.25551 52.6512 6.83403 52.6412C6.40251 52.6412 5.99107 52.6113 5.59969 52.5814C5.20831 52.5615 4.82697 52.5217 4.49581 52.4918C4.15461 52.4619 3.85355 52.422 3.60267 52.3822C3.35179 52.3523 3.15108 52.3224 3.00055 52.3025C2.86006 52.2826 2.77977 52.2726 2.77977 52.2726C2.97045 52.3224 3.37186 52.442 3.87362 52.6113C4.1245 52.701 4.40549 52.8006 4.69651 52.9102C4.98754 53.0198 5.2886 53.1393 5.60973 53.2589C5.92082 53.3784 6.23191 53.5079 6.54301 53.6474C6.8541 53.7769 7.14513 53.9164 7.42611 54.0658C7.98809 54.3547 8.45975 54.6536 8.77084 54.9724C9.39303 55.61 9.87472 55.9088 10.3062 56.138C10.4166 56.1978 10.517 56.2476 10.6173 56.3073C10.7177 56.3671 10.818 56.4169 10.9284 56.4767C11.0288 56.5365 11.1291 56.5962 11.2395 56.666C11.3399 56.7357 11.4503 56.8154 11.5607 56.8951C11.671 56.9848 11.8216 57.0445 12.0122 57.0944C12.1026 57.1143 12.2029 57.1342 12.3033 57.1442C12.4036 57.1541 12.524 57.1641 12.6344 57.1641C13.0961 57.184 13.6179 57.1342 14.1096 57.0545C14.6013 56.9748 15.073 56.8752 15.4142 56.7955C15.5848 56.7556 15.7253 56.7158 15.8156 56.6859C15.916 56.656 15.9661 56.6461 15.9661 56.6461C16.3174 56.397 16.6987 56.3073 17.06 56.3173C17.2406 56.3173 17.4213 56.3372 17.5919 56.3771C17.7223 56.407 17.8427 56.4468 17.9732 56.4867C18.9767 57.722 20.0304 58.8378 21.0942 59.7941C22.2282 60.8103 23.3722 61.6272 24.466 62.2748C24.4259 62.2748 24.3757 62.2548 24.3356 62.2449C24.2854 62.2349 24.2352 62.215 24.175 62.205C23.9643 62.1452 23.7435 62.0755 23.5328 61.9759C23.4224 61.9261 23.312 61.8663 23.2116 61.8065C23.1012 61.7468 23.0009 61.677 22.8905 61.5973C22.6798 61.4479 22.459 61.3084 22.2081 61.1988C22.0877 61.1391 21.9672 61.0793 21.8368 61.0295C21.7063 60.9797 21.5759 60.9298 21.4454 60.89C21.315 60.8402 21.1845 60.8003 21.044 60.7605C20.9035 60.7206 20.763 60.6908 20.6225 60.6609C20.482 60.631 20.3415 60.6011 20.191 60.5812C20.1208 60.5712 20.0505 60.5612 19.9702 60.5513C19.9 60.5513 19.8297 60.5314 19.7494 60.5214C19.5989 60.5015 19.4584 60.4915 19.3079 60.4915C19.1574 60.4915 19.0068 60.4815 18.8563 60.4815C18.5552 60.4815 18.2542 60.5015 17.9531 60.5413C17.361 60.6111 16.779 60.7705 16.2471 61.0195C15.5748 61.3383 14.7519 61.6272 13.8788 61.8563C13.0158 62.0954 12.0925 62.2748 11.2596 62.4043C10.8481 62.464 10.4467 62.5238 10.0855 62.5637C9.72419 62.6035 9.40307 62.6334 9.13211 62.6633C8.86116 62.6832 8.64038 62.7031 8.48985 62.7031C8.33932 62.7031 8.25904 62.7131 8.25904 62.7131C8.69056 62.733 10.0754 62.8825 11.5506 63.1016C11.9219 63.1614 12.2932 63.2212 12.6645 63.281C13.0358 63.3507 13.3971 63.4204 13.7383 63.5001C14.0895 63.5798 14.4006 63.6695 14.7017 63.7691C15.0028 63.8687 15.2536 63.9883 15.4744 64.1078C15.6952 64.2373 15.8959 64.3469 16.0866 64.4366C16.2772 64.5262 16.4579 64.596 16.6184 64.6557C16.6987 64.6856 16.779 64.7155 16.8593 64.7354C16.9396 64.7554 17.0098 64.7853 17.0801 64.8052C17.2206 64.845 17.361 64.8749 17.4915 64.9048C17.7524 64.9646 18.0033 65.0044 18.2542 65.0542C18.3846 65.0841 18.5051 65.114 18.6456 65.1539C18.7861 65.1937 18.9266 65.2435 19.0771 65.3033C19.3781 65.4228 19.8297 65.393 20.3014 65.2635C20.5422 65.2037 20.7831 65.114 21.034 65.0144C21.2748 64.9148 21.5257 64.7952 21.7565 64.6757C22.2181 64.4366 22.6396 64.1676 22.9407 63.9683C23.2417 63.7691 23.4224 63.6197 23.4224 63.6197C23.6532 63.2511 23.9843 63.0219 24.3356 62.8825C24.6266 62.7729 24.9277 62.7231 25.2287 62.7031C25.6803 62.9323 26.1219 63.1415 26.5333 63.3108C26.6738 63.3706 26.8043 63.4204 26.9447 63.4702C27.0852 63.52 27.2157 63.5699 27.3462 63.6097C27.4766 63.6595 27.6071 63.6894 27.7275 63.7293C27.858 63.7691 27.9784 63.809 28.0988 63.8388C29.0622 64.0979 29.8449 64.1975 30.3768 64.2373C30.4471 64.2373 30.5073 64.2373 30.5675 64.2473C30.5976 64.2473 30.6277 64.2473 30.6578 64.2473H30.7381C30.7381 64.2473 30.7682 64.2473 30.7883 64.2473C31.6814 65.0044 32.4341 66.2696 30.5976 68.0927C29.2027 69.4775 29.8148 73.5222 29.8751 73.8908C29.8449 73.6517 29.7145 72.0378 31.9624 68.6606C33.548 66.2896 32.976 64.8849 32.3738 64.1875C32.8154 64.1676 33.1967 64.1377 33.1967 64.1377C35.8962 63.8687 36.0166 65.2336 36.0166 65.2336C35.2339 66.5287 36.2776 68.0828 36.2776 68.0828C36.0668 66.688 37.4216 65.7516 37.7929 64.1377C37.9635 63.3806 38.1742 62.8924 37.8932 62.6234C37.5621 62.3146 37.0603 62.2947 36.6489 62.4939L36.6689 62.5637Z" fill="#FE7300"/>
<path d="M27.967 34.36C28.287 34.0933 28.607 33.8067 28.927 33.5C29.2604 33.1933 29.5804 32.8733 29.887 32.54C30.1937 32.2333 30.4537 31.9 30.667 31.54C30.8937 31.18 31.0137 30.78 31.027 30.34C31.0537 29.6333 30.867 29.1067 30.467 28.76C30.067 28.4133 29.5337 28.2467 28.867 28.26C28.267 28.2733 27.7804 28.4133 27.407 28.68C27.047 28.9467 26.8337 29.3333 26.767 29.84H24.067C24.0937 29.0533 24.2804 28.3733 24.627 27.8C24.987 27.2133 25.4604 26.7467 26.047 26.4C26.4737 26.1467 26.9404 25.9667 27.447 25.86C27.9537 25.74 28.487 25.68 29.047 25.68C30.5537 25.6533 31.7404 26.0533 32.607 26.88C32.9804 27.2267 33.2804 27.66 33.507 28.18C33.7337 28.6867 33.847 29.2867 33.847 29.98C33.847 30.4867 33.7937 30.9667 33.687 31.42C33.5804 31.8733 33.4004 32.2933 33.147 32.68C32.987 32.9467 32.8137 33.1933 32.627 33.42C32.4537 33.6333 32.2737 33.8333 32.087 34.02C31.9137 34.2067 31.7204 34.3933 31.507 34.58C31.307 34.7667 31.0804 34.9733 30.827 35.2C30.3337 35.6267 29.8604 36.02 29.407 36.38C28.967 36.74 28.547 37.0933 28.147 37.44H33.687V40H24.167V37.64L27.967 34.36ZM41.0655 25.66C41.8788 25.66 42.6255 25.8 43.3055 26.08C43.9988 26.36 44.5855 26.8 45.0655 27.4C45.5588 27.9867 45.9388 28.7333 46.2055 29.64C46.4855 30.5467 46.6255 31.6267 46.6255 32.88C46.6255 34.1467 46.4921 35.2333 46.2255 36.14C45.9588 37.0467 45.5855 37.7933 45.1055 38.38C44.6255 38.9667 44.0388 39.4 43.3455 39.68C42.6655 39.96 41.9055 40.1 41.0655 40.1C40.2255 40.1 39.4588 39.96 38.7655 39.68C38.0855 39.4 37.4988 38.9667 37.0055 38.38C36.5255 37.7933 36.1521 37.0467 35.8855 36.14C35.6321 35.2333 35.5055 34.1467 35.5055 32.88C35.5055 31.6267 35.6388 30.5467 35.9055 29.64C36.1721 28.7333 36.5521 27.9867 37.0455 27.4C37.5388 26.8 38.1255 26.36 38.8055 26.08C39.4855 25.8 40.2388 25.66 41.0655 25.66ZM41.0655 37.54C41.9188 37.54 42.5855 37.18 43.0655 36.46C43.5455 35.74 43.7855 34.5467 43.7855 32.88C43.7855 31.2267 43.5455 30.04 43.0655 29.32C42.5855 28.5867 41.9188 28.22 41.0655 28.22C40.1988 28.22 39.5255 28.5867 39.0455 29.32C38.5788 30.04 38.3455 31.2267 38.3455 32.88C38.3455 34.5467 38.5788 35.74 39.0455 36.46C39.5255 37.18 40.1988 37.54 41.0655 37.54ZM51.4631 34.36C51.7831 34.0933 52.1031 33.8067 52.4231 33.5C52.7565 33.1933 53.0765 32.8733 53.3831 32.54C53.6898 32.2333 53.9498 31.9 54.1631 31.54C54.3898 31.18 54.5098 30.78 54.5231 30.34C54.5498 29.6333 54.3631 29.1067 53.9631 28.76C53.5631 28.4133 53.0298 28.2467 52.3631 28.26C51.7631 28.2733 51.2765 28.4133 50.9031 28.68C50.5431 28.9467 50.3298 29.3333 50.2631 29.84H47.5631C47.5898 29.0533 47.7765 28.3733 48.1231 27.8C48.4831 27.2133 48.9565 26.7467 49.5431 26.4C49.9698 26.1467 50.4365 25.9667 50.9431 25.86C51.4498 25.74 51.9831 25.68 52.5431 25.68C54.0498 25.6533 55.2365 26.0533 56.1031 26.88C56.4765 27.2267 56.7765 27.66 57.0031 28.18C57.2298 28.6867 57.3431 29.2867 57.3431 29.98C57.3431 30.4867 57.2898 30.9667 57.1831 31.42C57.0765 31.8733 56.8965 32.2933 56.6431 32.68C56.4831 32.9467 56.3098 33.1933 56.1231 33.42C55.9498 33.6333 55.7698 33.8333 55.5831 34.02C55.4098 34.2067 55.2165 34.3933 55.0031 34.58C54.8031 34.7667 54.5765 34.9733 54.3231 35.2C53.8298 35.6267 53.3565 36.02 52.9031 36.38C52.4631 36.74 52.0431 37.0933 51.6431 37.44H57.1831V40H47.6631V37.64L51.4631 34.36ZM62.6545 34.36C62.9745 34.0933 63.2945 33.8067 63.6145 33.5C63.9479 33.1933 64.2679 32.8733 64.5745 32.54C64.8812 32.2333 65.1412 31.9 65.3545 31.54C65.5812 31.18 65.7012 30.78 65.7145 30.34C65.7412 29.6333 65.5545 29.1067 65.1545 28.76C64.7545 28.4133 64.2212 28.2467 63.5545 28.26C62.9545 28.2733 62.4679 28.4133 62.0945 28.68C61.7345 28.9467 61.5212 29.3333 61.4545 29.84H58.7545C58.7812 29.0533 58.9679 28.3733 59.3145 27.8C59.6745 27.2133 60.1479 26.7467 60.7345 26.4C61.1612 26.1467 61.6279 25.9667 62.1345 25.86C62.6412 25.74 63.1745 25.68 63.7345 25.68C65.2412 25.6533 66.4279 26.0533 67.2945 26.88C67.6679 27.2267 67.9679 27.66 68.1945 28.18C68.4212 28.6867 68.5345 29.2867 68.5345 29.98C68.5345 30.4867 68.4812 30.9667 68.3745 31.42C68.2679 31.8733 68.0879 32.2933 67.8345 32.68C67.6745 32.9467 67.5012 33.1933 67.3145 33.42C67.1412 33.6333 66.9612 33.8333 66.7745 34.02C66.6012 34.2067 66.4079 34.3933 66.1945 34.58C65.9945 34.7667 65.7679 34.9733 65.5145 35.2C65.0212 35.6267 64.5479 36.02 64.0945 36.38C63.6545 36.74 63.2345 37.0933 62.8345 37.44H68.3745V40H58.8545V37.64L62.6545 34.36Z" fill="white"/>
</g>
<path d="M8.58616 85.102H12.0162C13.1082 85.102 13.9622 85.3727 14.5782 85.914C15.1942 86.446 15.5022 87.272 15.5022 88.392C15.5022 88.9613 15.3995 89.4607 15.1942 89.89C14.9982 90.3193 14.7228 90.674 14.3682 90.954C14.0695 91.1967 13.6962 91.388 13.2482 91.528C12.8002 91.668 12.3055 91.738 11.7642 91.738H9.80416V95H8.58616V85.102ZM11.7082 90.632C12.0628 90.632 12.4082 90.59 12.7442 90.506C13.0802 90.4127 13.3555 90.268 13.5702 90.072C13.7848 89.8853 13.9528 89.6567 14.0742 89.386C14.1955 89.1153 14.2562 88.7653 14.2562 88.336C14.2562 86.9173 13.4908 86.208 11.9602 86.208H9.80416V90.632H11.7082ZM17.9118 91.752C17.9398 92.0787 18.0051 92.382 18.1078 92.662C18.2198 92.9327 18.3691 93.1707 18.5558 93.376C18.7425 93.5813 18.9711 93.7447 19.2418 93.866C19.5218 93.978 19.8438 94.034 20.2078 94.034C20.3851 94.034 20.5671 94.02 20.7538 93.992C20.9498 93.9547 21.1318 93.8987 21.2998 93.824C21.4678 93.74 21.6171 93.6327 21.7478 93.502C21.8785 93.3713 21.9765 93.2127 22.0418 93.026H23.2598C23.1758 93.3807 23.0311 93.6887 22.8258 93.95C22.6298 94.2113 22.3918 94.426 22.1118 94.594C21.8411 94.762 21.5378 94.888 21.2018 94.972C20.8658 95.0467 20.5251 95.084 20.1798 95.084C19.5918 95.084 19.0785 94.9907 18.6398 94.804C18.2105 94.6173 17.8511 94.3607 17.5618 94.034C17.2725 93.698 17.0578 93.3013 16.9178 92.844C16.7778 92.3773 16.7078 91.8687 16.7078 91.318C16.7078 90.7673 16.7825 90.2633 16.9318 89.806C17.0905 89.3393 17.3145 88.938 17.6038 88.602C17.8931 88.266 18.2478 88.0047 18.6678 87.818C19.0878 87.6313 19.5871 87.538 20.1658 87.538C20.7538 87.538 21.2625 87.6547 21.6918 87.888C22.1211 88.1213 22.4665 88.4293 22.7278 88.812C22.9891 89.1853 23.1711 89.5913 23.2738 90.03C23.3858 90.4687 23.4325 90.8747 23.4138 91.248C23.4138 91.332 23.4091 91.416 23.3998 91.5C23.3998 91.584 23.3951 91.668 23.3858 91.752H17.9118ZM22.2098 90.716C22.1911 90.0907 21.9951 89.582 21.6218 89.19C21.2485 88.798 20.7491 88.602 20.1238 88.602C19.7785 88.602 19.4751 88.658 19.2138 88.77C18.9525 88.882 18.7331 89.036 18.5558 89.232C18.3785 89.428 18.2385 89.6567 18.1358 89.918C18.0331 90.17 17.9678 90.436 17.9398 90.716H22.2098ZM28.2612 87.538C28.8492 87.538 29.3579 87.6313 29.7872 87.818C30.2165 88.0047 30.5759 88.266 30.8652 88.602C31.1639 88.938 31.3832 89.3393 31.5232 89.806C31.6725 90.2633 31.7472 90.7673 31.7472 91.318C31.7472 91.8687 31.6725 92.3773 31.5232 92.844C31.3832 93.3013 31.1639 93.698 30.8652 94.034C30.5759 94.3607 30.2119 94.6173 29.7732 94.804C29.3345 94.9907 28.8212 95.084 28.2332 95.084C27.6452 95.084 27.1319 94.9907 26.6932 94.804C26.2639 94.6173 25.8999 94.3607 25.6012 94.034C25.3119 93.698 25.0925 93.3013 24.9432 92.844C24.8032 92.3773 24.7332 91.8687 24.7332 91.318C24.7332 90.7673 24.8032 90.2633 24.9432 89.806C25.0925 89.3393 25.3119 88.938 25.6012 88.602C25.8999 88.266 26.2732 88.0047 26.7212 87.818C27.1692 87.6313 27.6825 87.538 28.2612 87.538ZM28.2332 94.034C28.6345 94.034 28.9799 93.964 29.2692 93.824C29.5679 93.684 29.8105 93.4927 29.9972 93.25C30.1932 92.998 30.3332 92.7087 30.4172 92.382C30.5105 92.0553 30.5572 91.7007 30.5572 91.318C30.5572 90.9447 30.5105 90.5947 30.4172 90.268C30.3332 89.932 30.1932 89.6427 29.9972 89.4C29.8105 89.148 29.5679 88.952 29.2692 88.812C28.9799 88.672 28.6345 88.602 28.2332 88.602C27.8319 88.602 27.4865 88.672 27.1972 88.812C26.9079 88.952 26.6652 89.148 26.4692 89.4C26.2825 89.6427 26.1425 89.932 26.0492 90.268C25.9652 90.5947 25.9232 90.9447 25.9232 91.318C25.9232 91.7007 25.9652 92.0553 26.0492 92.382C26.1425 92.7087 26.2825 92.998 26.4692 93.25C26.6652 93.4927 26.9079 93.684 27.1972 93.824C27.4865 93.964 27.8319 94.034 28.2332 94.034ZM33.3394 97.66V87.622H34.4734L34.5294 88.728C34.7814 88.3453 35.122 88.056 35.5514 87.86C35.99 87.6547 36.4614 87.5473 36.9654 87.538C37.5347 87.538 38.0154 87.636 38.4074 87.832C38.8087 88.0187 39.14 88.2847 39.4014 88.63C39.672 88.966 39.8727 89.3673 40.0034 89.834C40.134 90.2913 40.1994 90.786 40.1994 91.318C40.1994 91.8593 40.134 92.3587 40.0034 92.816C39.8727 93.2733 39.672 93.67 39.4014 94.006C39.1307 94.342 38.79 94.608 38.3794 94.804C37.9687 94.9907 37.4787 95.084 36.9094 95.084C36.3494 95.084 35.8734 94.9953 35.4814 94.818C35.0894 94.6407 34.772 94.3933 34.5294 94.076V97.66H33.3394ZM36.8114 94.034C37.2127 94.034 37.5487 93.964 37.8194 93.824C38.0994 93.6747 38.3234 93.4787 38.4914 93.236C38.6687 92.984 38.7947 92.6947 38.8694 92.368C38.9534 92.0413 39 91.6913 39.0094 91.318C39.0094 90.9447 38.9674 90.5947 38.8834 90.268C38.8087 89.932 38.6827 89.6427 38.5054 89.4C38.328 89.1573 38.0947 88.966 37.8054 88.826C37.5254 88.6767 37.1847 88.602 36.7834 88.602C36.3074 88.602 35.8967 88.7327 35.5514 88.994C35.206 89.246 34.9447 89.568 34.7674 89.96C34.6647 90.1747 34.5947 90.3987 34.5574 90.632C34.52 90.856 34.5014 91.0893 34.5014 91.332C34.5014 91.612 34.52 91.8733 34.5574 92.116C34.5947 92.3493 34.6647 92.5733 34.7674 92.788C34.9447 93.1427 35.2014 93.4413 35.5374 93.684C35.8827 93.9173 36.3074 94.034 36.8114 94.034ZM41.7886 95V85.102H42.9786V95H41.7886ZM45.7751 91.752C45.8031 92.0787 45.8684 92.382 45.9711 92.662C46.0831 92.9327 46.2324 93.1707 46.4191 93.376C46.6058 93.5813 46.8344 93.7447 47.1051 93.866C47.3851 93.978 47.7071 94.034 48.0711 94.034C48.2484 94.034 48.4304 94.02 48.6171 93.992C48.8131 93.9547 48.9951 93.8987 49.1631 93.824C49.3311 93.74 49.4804 93.6327 49.6111 93.502C49.7418 93.3713 49.8398 93.2127 49.9051 93.026H51.1231C51.0391 93.3807 50.8944 93.6887 50.6891 93.95C50.4931 94.2113 50.2551 94.426 49.9751 94.594C49.7044 94.762 49.4011 94.888 49.0651 94.972C48.7291 95.0467 48.3884 95.084 48.0431 95.084C47.4551 95.084 46.9418 94.9907 46.5031 94.804C46.0738 94.6173 45.7144 94.3607 45.4251 94.034C45.1358 93.698 44.9211 93.3013 44.7811 92.844C44.6411 92.3773 44.5711 91.8687 44.5711 91.318C44.5711 90.7673 44.6458 90.2633 44.7951 89.806C44.9538 89.3393 45.1778 88.938 45.4671 88.602C45.7564 88.266 46.1111 88.0047 46.5311 87.818C46.9511 87.6313 47.4504 87.538 48.0291 87.538C48.6171 87.538 49.1258 87.6547 49.5551 87.888C49.9844 88.1213 50.3298 88.4293 50.5911 88.812C50.8524 89.1853 51.0344 89.5913 51.1371 90.03C51.2491 90.4687 51.2958 90.8747 51.2771 91.248C51.2771 91.332 51.2724 91.416 51.2631 91.5C51.2631 91.584 51.2584 91.668 51.2491 91.752H45.7751ZM50.0731 90.716C50.0544 90.0907 49.8584 89.582 49.4851 89.19C49.1118 88.798 48.6124 88.602 47.9871 88.602C47.6418 88.602 47.3384 88.658 47.0771 88.77C46.8158 88.882 46.5964 89.036 46.4191 89.232C46.2418 89.428 46.1018 89.6567 45.9991 89.918C45.8964 90.17 45.8311 90.436 45.8031 90.716H50.0731ZM56.6499 95V85.102H57.8399V95H56.6499ZM62.9604 87.538C63.5484 87.538 64.0571 87.6313 64.4864 87.818C64.9157 88.0047 65.2751 88.266 65.5644 88.602C65.8631 88.938 66.0824 89.3393 66.2224 89.806C66.3717 90.2633 66.4464 90.7673 66.4464 91.318C66.4464 91.8687 66.3717 92.3773 66.2224 92.844C66.0824 93.3013 65.8631 93.698 65.5644 94.034C65.2751 94.3607 64.9111 94.6173 64.4724 94.804C64.0337 94.9907 63.5204 95.084 62.9324 95.084C62.3444 95.084 61.8311 94.9907 61.3924 94.804C60.9631 94.6173 60.5991 94.3607 60.3004 94.034C60.0111 93.698 59.7917 93.3013 59.6424 92.844C59.5024 92.3773 59.4324 91.8687 59.4324 91.318C59.4324 90.7673 59.5024 90.2633 59.6424 89.806C59.7917 89.3393 60.0111 88.938 60.3004 88.602C60.5991 88.266 60.9724 88.0047 61.4204 87.818C61.8684 87.6313 62.3817 87.538 62.9604 87.538ZM62.9324 94.034C63.3337 94.034 63.6791 93.964 63.9684 93.824C64.2671 93.684 64.5097 93.4927 64.6964 93.25C64.8924 92.998 65.0324 92.7087 65.1164 92.382C65.2097 92.0553 65.2564 91.7007 65.2564 91.318C65.2564 90.9447 65.2097 90.5947 65.1164 90.268C65.0324 89.932 64.8924 89.6427 64.6964 89.4C64.5097 89.148 64.2671 88.952 63.9684 88.812C63.6791 88.672 63.3337 88.602 62.9324 88.602C62.5311 88.602 62.1857 88.672 61.8964 88.812C61.6071 88.952 61.3644 89.148 61.1684 89.4C60.9817 89.6427 60.8417 89.932 60.7484 90.268C60.6644 90.5947 60.6224 90.9447 60.6224 91.318C60.6224 91.7007 60.6644 92.0553 60.7484 92.382C60.8417 92.7087 60.9817 92.998 61.1684 93.25C61.3644 93.4927 61.6071 93.684 61.8964 93.824C62.1857 93.964 62.5311 94.034 62.9324 94.034ZM67.1986 87.622H68.5426L70.8666 93.852L73.1486 87.622H74.5066L71.6646 95H70.0406L67.1986 87.622ZM76.4684 91.752C76.4964 92.0787 76.5618 92.382 76.6644 92.662C76.7764 92.9327 76.9258 93.1707 77.1124 93.376C77.2991 93.5813 77.5278 93.7447 77.7984 93.866C78.0784 93.978 78.4004 94.034 78.7644 94.034C78.9418 94.034 79.1238 94.02 79.3104 93.992C79.5064 93.9547 79.6884 93.8987 79.8564 93.824C80.0244 93.74 80.1738 93.6327 80.3044 93.502C80.4351 93.3713 80.5331 93.2127 80.5984 93.026H81.8164C81.7324 93.3807 81.5878 93.6887 81.3824 93.95C81.1864 94.2113 80.9484 94.426 80.6684 94.594C80.3978 94.762 80.0944 94.888 79.7584 94.972C79.4224 95.0467 79.0818 95.084 78.7364 95.084C78.1484 95.084 77.6351 94.9907 77.1964 94.804C76.7671 94.6173 76.4078 94.3607 76.1184 94.034C75.8291 93.698 75.6144 93.3013 75.4744 92.844C75.3344 92.3773 75.2644 91.8687 75.2644 91.318C75.2644 90.7673 75.3391 90.2633 75.4884 89.806C75.6471 89.3393 75.8711 88.938 76.1604 88.602C76.4498 88.266 76.8044 88.0047 77.2244 87.818C77.6444 87.6313 78.1438 87.538 78.7224 87.538C79.3104 87.538 79.8191 87.6547 80.2484 87.888C80.6778 88.1213 81.0231 88.4293 81.2844 88.812C81.5458 89.1853 81.7278 89.5913 81.8304 90.03C81.9424 90.4687 81.9891 90.8747 81.9704 91.248C81.9704 91.332 81.9658 91.416 81.9564 91.5C81.9564 91.584 81.9518 91.668 81.9424 91.752H76.4684ZM80.7664 90.716C80.7478 90.0907 80.5518 89.582 80.1784 89.19C79.8051 88.798 79.3058 88.602 78.6804 88.602C78.3351 88.602 78.0318 88.658 77.7704 88.77C77.5091 88.882 77.2898 89.036 77.1124 89.232C76.9351 89.428 76.7951 89.6567 76.6924 89.918C76.5898 90.17 76.5244 90.436 76.4964 90.716H80.7664ZM15.7748 112.034C16.4468 112.034 16.9368 111.833 17.2448 111.432C17.5622 111.021 17.7208 110.452 17.7208 109.724V105.622H18.9108V109.78C18.9108 110.9 18.6402 111.731 18.0988 112.272C17.5668 112.813 16.7922 113.084 15.7748 113.084C14.7575 113.084 13.9828 112.813 13.4508 112.272C12.9282 111.731 12.6668 110.9 12.6668 109.78V105.622H13.8568V109.724C13.8568 110.452 14.0155 111.021 14.3328 111.432C14.6502 111.833 15.1308 112.034 15.7748 112.034ZM23.3932 106.602C23.2252 106.602 23.0526 106.616 22.8752 106.644C22.7072 106.663 22.5392 106.709 22.3712 106.784C22.2126 106.849 22.0726 106.952 21.9512 107.092C21.8392 107.223 21.7786 107.4 21.7692 107.624C21.7692 107.941 21.8859 108.179 22.1192 108.338C22.3619 108.497 22.6746 108.613 23.0572 108.688C23.2159 108.725 23.3886 108.763 23.5752 108.8C23.7619 108.828 23.9439 108.861 24.1212 108.898C24.3079 108.926 24.4806 108.959 24.6392 108.996C24.8072 109.033 24.9472 109.071 25.0592 109.108C25.9552 109.388 26.4032 109.99 26.4032 110.914C26.3939 111.362 26.2959 111.726 26.1092 112.006C25.9319 112.277 25.7032 112.491 25.4232 112.65C25.1526 112.809 24.8399 112.921 24.4852 112.986C24.1399 113.051 23.7946 113.084 23.4492 113.084C23.1132 113.084 22.7726 113.051 22.4272 112.986C22.0819 112.921 21.7646 112.809 21.4752 112.65C21.1952 112.482 20.9526 112.267 20.7472 112.006C20.5512 111.735 20.4252 111.399 20.3692 110.998H21.5732C21.6479 111.222 21.7646 111.399 21.9232 111.53C22.0819 111.661 22.2499 111.763 22.4272 111.838C22.6139 111.913 22.7866 111.964 22.9452 111.992C23.1132 112.02 23.2999 112.034 23.5052 112.034C23.6546 112.034 23.8272 112.025 24.0232 112.006C24.2192 111.987 24.4059 111.945 24.5832 111.88C24.7606 111.805 24.9099 111.698 25.0312 111.558C25.1526 111.418 25.2132 111.222 25.2132 110.97C25.2132 110.69 25.1199 110.48 24.9332 110.34C24.7559 110.2 24.5086 110.097 24.1912 110.032C23.9672 109.985 23.7339 109.943 23.4912 109.906C23.2579 109.859 23.0199 109.813 22.7772 109.766C22.5439 109.71 22.3152 109.649 22.0912 109.584C21.8672 109.509 21.6572 109.411 21.4612 109.29C21.1999 109.131 20.9899 108.917 20.8312 108.646C20.6726 108.375 20.5932 108.044 20.5932 107.652C20.6119 107.241 20.7052 106.905 20.8732 106.644C21.0412 106.373 21.2559 106.154 21.5172 105.986C21.7972 105.818 22.0959 105.701 22.4132 105.636C22.7306 105.571 23.0666 105.538 23.4212 105.538C24.1772 105.538 24.7792 105.701 25.2272 106.028C25.4979 106.215 25.7079 106.439 25.8572 106.7C26.0066 106.961 26.0999 107.237 26.1372 107.526H25.0312C24.9659 107.255 24.7886 107.036 24.4992 106.868C24.2099 106.7 23.8412 106.611 23.3932 106.602ZM34.9057 105.538C35.4937 105.538 36.0024 105.631 36.4317 105.818C36.8611 106.005 37.2204 106.266 37.5097 106.602C37.8084 106.938 38.0277 107.339 38.1677 107.806C38.3171 108.263 38.3917 108.767 38.3917 109.318C38.3917 109.869 38.3171 110.377 38.1677 110.844C38.0277 111.301 37.8084 111.698 37.5097 112.034C37.2204 112.361 36.8564 112.617 36.4177 112.804C35.9791 112.991 35.4657 113.084 34.8777 113.084C34.2897 113.084 33.7764 112.991 33.3377 112.804C32.9084 112.617 32.5444 112.361 32.2457 112.034C31.9564 111.698 31.7371 111.301 31.5877 110.844C31.4477 110.377 31.3777 109.869 31.3777 109.318C31.3777 108.767 31.4477 108.263 31.5877 107.806C31.7371 107.339 31.9564 106.938 32.2457 106.602C32.5444 106.266 32.9177 106.005 33.3657 105.818C33.8137 105.631 34.3271 105.538 34.9057 105.538ZM34.8777 112.034C35.2791 112.034 35.6244 111.964 35.9137 111.824C36.2124 111.684 36.4551 111.493 36.6417 111.25C36.8377 110.998 36.9777 110.709 37.0617 110.382C37.1551 110.055 37.2017 109.701 37.2017 109.318C37.2017 108.945 37.1551 108.595 37.0617 108.268C36.9777 107.932 36.8377 107.643 36.6417 107.4C36.4551 107.148 36.2124 106.952 35.9137 106.812C35.6244 106.672 35.2791 106.602 34.8777 106.602C34.4764 106.602 34.1311 106.672 33.8417 106.812C33.5524 106.952 33.3097 107.148 33.1137 107.4C32.9271 107.643 32.7871 107.932 32.6937 108.268C32.6097 108.595 32.5677 108.945 32.5677 109.318C32.5677 109.701 32.6097 110.055 32.6937 110.382C32.7871 110.709 32.9271 110.998 33.1137 111.25C33.3097 111.493 33.5524 111.684 33.8417 111.824C34.1311 111.964 34.4764 112.034 34.8777 112.034ZM39.9839 113V105.622H41.1319L41.1879 106.742C41.3092 106.537 41.4586 106.359 41.6359 106.21C41.8226 106.061 42.0232 105.935 42.2379 105.832C42.4526 105.729 42.6766 105.655 42.9099 105.608C43.1526 105.561 43.3859 105.538 43.6099 105.538C44.1419 105.538 44.5899 105.627 44.9539 105.804C45.3179 105.972 45.6072 106.21 45.8219 106.518C46.0366 106.817 46.1906 107.176 46.2839 107.596C46.3772 108.007 46.4239 108.45 46.4239 108.926V113H45.2339V109.248C45.2339 108.903 45.2106 108.571 45.1639 108.254C45.1266 107.937 45.0426 107.657 44.9119 107.414C44.7906 107.162 44.6132 106.961 44.3799 106.812C44.1466 106.663 43.8339 106.588 43.4419 106.588C43.0592 106.597 42.7186 106.691 42.4199 106.868C42.1306 107.045 41.8972 107.255 41.7199 107.498C41.5052 107.806 41.3606 108.147 41.2859 108.52C41.2112 108.884 41.1739 109.253 41.1739 109.626V113H39.9839ZM58.1048 103.102H59.4908L56.0048 109.276V113H54.7868V109.29L51.2868 103.102H52.7008L55.4168 108.058L58.1048 103.102ZM60.5681 109.752C60.5961 110.079 60.6614 110.382 60.7641 110.662C60.8761 110.933 61.0254 111.171 61.2121 111.376C61.3987 111.581 61.6274 111.745 61.8981 111.866C62.1781 111.978 62.5001 112.034 62.8641 112.034C63.0414 112.034 63.2234 112.02 63.4101 111.992C63.6061 111.955 63.7881 111.899 63.9561 111.824C64.1241 111.74 64.2734 111.633 64.4041 111.502C64.5347 111.371 64.6327 111.213 64.6981 111.026H65.9161C65.8321 111.381 65.6874 111.689 65.4821 111.95C65.2861 112.211 65.0481 112.426 64.7681 112.594C64.4974 112.762 64.1941 112.888 63.8581 112.972C63.5221 113.047 63.1814 113.084 62.8361 113.084C62.2481 113.084 61.7347 112.991 61.2961 112.804C60.8667 112.617 60.5074 112.361 60.2181 112.034C59.9287 111.698 59.7141 111.301 59.5741 110.844C59.4341 110.377 59.3641 109.869 59.3641 109.318C59.3641 108.767 59.4387 108.263 59.5881 107.806C59.7467 107.339 59.9707 106.938 60.2601 106.602C60.5494 106.266 60.9041 106.005 61.3241 105.818C61.7441 105.631 62.2434 105.538 62.8221 105.538C63.4101 105.538 63.9187 105.655 64.3481 105.888C64.7774 106.121 65.1227 106.429 65.3841 106.812C65.6454 107.185 65.8274 107.591 65.9301 108.03C66.0421 108.469 66.0887 108.875 66.0701 109.248C66.0701 109.332 66.0654 109.416 66.0561 109.5C66.0561 109.584 66.0514 109.668 66.0421 109.752H60.5681ZM64.8661 108.716C64.8474 108.091 64.6514 107.582 64.2781 107.19C63.9047 106.798 63.4054 106.602 62.7801 106.602C62.4347 106.602 62.1314 106.658 61.8701 106.77C61.6087 106.882 61.3894 107.036 61.2121 107.232C61.0347 107.428 60.8947 107.657 60.7921 107.918C60.6894 108.17 60.6241 108.436 60.5961 108.716H64.8661ZM67.6694 113V103.102H68.8594V113H67.6694ZM70.7319 115.66V105.622H71.8659L71.9219 106.728C72.1739 106.345 72.5146 106.056 72.9439 105.86C73.3826 105.655 73.8539 105.547 74.3579 105.538C74.9273 105.538 75.4079 105.636 75.7999 105.832C76.2013 106.019 76.5326 106.285 76.7939 106.63C77.0646 106.966 77.2653 107.367 77.3959 107.834C77.5266 108.291 77.5919 108.786 77.5919 109.318C77.5919 109.859 77.5266 110.359 77.3959 110.816C77.2653 111.273 77.0646 111.67 76.7939 112.006C76.5233 112.342 76.1826 112.608 75.7719 112.804C75.3613 112.991 74.8713 113.084 74.3019 113.084C73.7419 113.084 73.2659 112.995 72.8739 112.818C72.4819 112.641 72.1646 112.393 71.9219 112.076V115.66H70.7319ZM74.2039 112.034C74.6053 112.034 74.9413 111.964 75.2119 111.824C75.4919 111.675 75.7159 111.479 75.8839 111.236C76.0613 110.984 76.1873 110.695 76.2619 110.368C76.3459 110.041 76.3926 109.691 76.4019 109.318C76.4019 108.945 76.3599 108.595 76.2759 108.268C76.2013 107.932 76.0753 107.643 75.8979 107.4C75.7206 107.157 75.4873 106.966 75.1979 106.826C74.9179 106.677 74.5773 106.602 74.1759 106.602C73.6999 106.602 73.2893 106.733 72.9439 106.994C72.5986 107.246 72.3373 107.568 72.1599 107.96C72.0573 108.175 71.9873 108.399 71.9499 108.632C71.9126 108.856 71.8939 109.089 71.8939 109.332C71.8939 109.612 71.9126 109.873 71.9499 110.116C71.9873 110.349 72.0573 110.573 72.1599 110.788C72.3373 111.143 72.5939 111.441 72.9299 111.684C73.2753 111.917 73.6999 112.034 74.2039 112.034Z" fill="white"/>
<defs>
<clipPath id="clip0_643_8571">
<rect width="91" height="74" fill="white"/>
</clipPath>
</defs>
</svg>
