<svg width="24" height="24" viewBox="0 0 24 24" fill="none" xmlns="http://www.w3.org/2000/svg">
<path fill-rule="evenodd" clip-rule="evenodd" d="M6.22707 6.22715C6.51997 5.93426 6.99484 5.93426 7.28773 6.22715L12 10.9395L16.7124 6.22715C17.0052 5.93426 17.4801 5.93426 17.773 6.22715C18.0659 6.52004 18.0659 6.99492 17.773 7.28781L13.0607 12.0001L17.773 16.7124C18.0659 17.0053 18.0659 17.4802 17.773 17.7731C17.4801 18.066 17.0052 18.066 16.7124 17.7731L12 13.0608L7.28773 17.7731C6.99484 18.066 6.51997 18.066 6.22707 17.7731C5.93418 17.4802 5.93418 17.0053 6.22707 16.7124L10.9394 12.0001L6.22707 7.28781C5.93418 6.99492 5.93418 6.52004 6.22707 6.22715Z" fill="#19242B"/>
</svg>
