<svg width="34" height="34" viewBox="0 0 34 34" fill="none" xmlns="http://www.w3.org/2000/svg">
<rect width="34" height="34" fill="#525252"/>
<g clip-path="url(#clip0_133_1331)">
<path d="M17.4998 23.5125C13.6269 23.5125 10.4873 20.3729 10.4873 16.5C10.4873 12.6272 13.6269 9.48755 17.4998 9.48755C21.3727 9.48755 24.5123 12.6272 24.5123 16.5V18.2C24.5123 19.2563 23.656 20.1125 22.5998 20.1125C21.5436 20.1125 20.6873 19.2563 20.6873 18.2M21.1123 16.5C21.1123 18.4952 19.4949 20.1125 17.4998 20.1125C15.5047 20.1125 13.8873 18.4952 13.8873 16.5C13.8873 14.5049 15.5047 12.8875 17.4998 12.8875C19.4949 12.8875 21.1123 14.5049 21.1123 16.5Z" stroke="white" stroke-width="1.5" stroke-linecap="round" stroke-linejoin="round"/>
</g>
<defs>
<clipPath id="clip0_133_1331">
<rect width="17" height="17" fill="white" transform="translate(9 8)"/>
</clipPath>
</defs>
</svg>
