<svg width="386" height="92" viewBox="0 0 386 92" fill="none" xmlns="http://www.w3.org/2000/svg">
<rect width="386" height="92" rx="16" fill="white" fill-opacity="0.05"/>
<path d="M79.3265 47.6047C79.3265 45.9706 79.1954 44.3366 78.9331 42.7358H56.6719V51.9734H69.4254C68.9008 54.9414 67.196 57.6093 64.7043 59.2767V65.2794H72.3105C76.7693 61.1109 79.3265 54.9414 79.3265 47.6047Z" fill="#4285F4"/>
<path d="M56.6728 71.0819C63.0331 71.0819 68.4099 68.9476 72.3114 65.2793L64.7052 59.2766C62.5741 60.7439 59.8529 61.5776 56.6728 61.5776C50.5091 61.5776 45.2963 57.3423 43.4275 51.6731H35.5918V57.8759C39.5916 65.9796 47.7551 71.0819 56.6728 71.0819Z" fill="#34A853"/>
<path d="M43.4286 51.6732C42.4449 48.7052 42.4449 45.4704 43.4286 42.469V36.2996H35.5917C32.2142 43.0693 32.2142 51.0729 35.5917 57.8427L43.4286 51.6732Z" fill="#FBBC04"/>
<path d="M56.6728 32.5646C60.0496 32.4979 63.2954 33.7985 65.7215 36.1663L72.4753 29.2965C68.1804 25.2279 62.5413 22.9936 56.6728 23.0603C47.7552 23.0603 39.5916 28.196 35.5918 36.2996L43.4275 42.5025C45.2963 36.7999 50.5091 32.5646 56.6728 32.5646Z" fill="#EA4335"/>
<path d="M99.148 32.102H106.022V33.558H100.772V36.372H105.42V37.842H100.772V40.558H106.022V42H99.148V32.102ZM107.495 42V32.102H109.091V42H107.495ZM115.591 41.09C115.348 41.4353 115.026 41.692 114.625 41.86C114.224 42.0187 113.776 42.098 113.281 42.098C112.889 42.098 112.53 42.0513 112.203 41.958C111.886 41.8647 111.606 41.7247 111.363 41.538C111.12 41.342 110.929 41.104 110.789 40.824C110.649 40.5347 110.579 40.208 110.579 39.844C110.579 39.4427 110.658 39.102 110.817 38.822C110.976 38.5327 111.19 38.2993 111.461 38.122C111.741 37.9447 112.068 37.814 112.441 37.73C112.814 37.6367 113.206 37.59 113.617 37.59H115.507C115.507 37.0487 115.386 36.6287 115.143 36.33C114.9 36.0313 114.476 35.8773 113.869 35.868C113.514 35.868 113.206 35.9287 112.945 36.05C112.693 36.1713 112.525 36.372 112.441 36.652H110.803C110.859 36.26 110.985 35.9287 111.181 35.658C111.386 35.3873 111.629 35.1633 111.909 34.986C112.198 34.8087 112.516 34.6827 112.861 34.608C113.216 34.5333 113.57 34.496 113.925 34.496C114.382 34.496 114.807 34.5567 115.199 34.678C115.591 34.7993 115.932 35.0047 116.221 35.294C116.548 35.63 116.767 36.0313 116.879 36.498C116.991 36.9647 117.047 37.4733 117.047 38.024V42H115.661L115.591 41.09ZM115.507 38.724H113.967C113.696 38.724 113.426 38.7473 113.155 38.794C112.884 38.8313 112.651 38.9293 112.455 39.088C112.268 39.2373 112.175 39.4567 112.175 39.746C112.175 40.1007 112.301 40.3713 112.553 40.558C112.814 40.7353 113.132 40.824 113.505 40.824C113.794 40.824 114.06 40.7867 114.303 40.712C114.555 40.6373 114.77 40.516 114.947 40.348C115.124 40.1707 115.26 39.9513 115.353 39.69C115.456 39.4193 115.507 39.0973 115.507 38.724ZM120.973 34.622H123.185V36.008H120.973V39.256C120.973 39.4427 120.982 39.62 121.001 39.788C121.029 39.956 121.075 40.11 121.141 40.25C121.215 40.3807 121.318 40.488 121.449 40.572C121.579 40.656 121.757 40.698 121.981 40.698C122.373 40.698 122.709 40.5813 122.989 40.348L123.521 41.538C123.278 41.7247 122.998 41.8647 122.681 41.958C122.363 42.042 122.051 42.084 121.743 42.084C120.94 42.084 120.347 41.8833 119.965 41.482C119.582 41.0713 119.391 40.432 119.391 39.564V36.008H118.229V34.622H119.391V32.522H120.973V34.622ZM125.846 38.85C125.865 39.1207 125.921 39.3727 126.014 39.606C126.107 39.8393 126.233 40.0447 126.392 40.222C126.56 40.39 126.761 40.5253 126.994 40.628C127.237 40.7307 127.517 40.782 127.834 40.782C128.17 40.782 128.478 40.7213 128.758 40.6C129.038 40.4787 129.243 40.2687 129.374 39.97H131.012C130.919 40.3433 130.765 40.6653 130.55 40.936C130.345 41.2067 130.097 41.4307 129.808 41.608C129.528 41.776 129.215 41.902 128.87 41.986C128.534 42.0607 128.175 42.098 127.792 42.098C127.204 42.098 126.686 42.0093 126.238 41.832C125.799 41.6547 125.431 41.398 125.132 41.062C124.833 40.726 124.609 40.3293 124.46 39.872C124.32 39.4053 124.25 38.8827 124.25 38.304C124.25 37.744 124.329 37.2353 124.488 36.778C124.647 36.3113 124.875 35.91 125.174 35.574C125.482 35.238 125.851 34.9767 126.28 34.79C126.709 34.594 127.199 34.496 127.75 34.496C128.329 34.496 128.828 34.594 129.248 34.79C129.668 34.9767 130.018 35.2333 130.298 35.56C130.587 35.8867 130.802 36.2693 130.942 36.708C131.082 37.1467 131.152 37.6227 131.152 38.136C131.152 38.3787 131.138 38.6167 131.11 38.85H125.846ZM129.598 37.646C129.579 37.086 129.402 36.652 129.066 36.344C128.73 36.036 128.296 35.882 127.764 35.882C127.465 35.882 127.204 35.9287 126.98 36.022C126.756 36.1153 126.565 36.2413 126.406 36.4C126.257 36.5587 126.135 36.7453 126.042 36.96C125.949 37.1747 125.888 37.4033 125.86 37.646H129.598ZM136.65 42V32.102H138.694L141.648 37.17L144.574 32.102H146.562V42H144.952V34.286L141.97 39.424H141.242L138.26 34.286V42H136.65ZM151.897 34.496C152.485 34.496 153.003 34.5893 153.451 34.776C153.899 34.9627 154.277 35.224 154.585 35.56C154.902 35.8867 155.14 36.2833 155.299 36.75C155.458 37.2167 155.537 37.7347 155.537 38.304C155.537 38.8827 155.458 39.4053 155.299 39.872C155.15 40.3293 154.921 40.726 154.613 41.062C154.305 41.398 153.922 41.6547 153.465 41.832C153.017 42.0093 152.494 42.098 151.897 42.098C151.309 42.098 150.791 42.0093 150.343 41.832C149.895 41.6453 149.517 41.3887 149.209 41.062C148.91 40.726 148.682 40.3247 148.523 39.858C148.374 39.3913 148.299 38.8733 148.299 38.304C148.299 37.7347 148.374 37.2167 148.523 36.75C148.682 36.2833 148.915 35.8867 149.223 35.56C149.531 35.224 149.909 34.9627 150.357 34.776C150.805 34.5893 151.318 34.496 151.897 34.496ZM151.897 40.712C152.261 40.712 152.569 40.6513 152.821 40.53C153.082 40.3993 153.292 40.2267 153.451 40.012C153.619 39.7973 153.74 39.5453 153.815 39.256C153.899 38.9667 153.941 38.654 153.941 38.318C153.941 37.982 153.899 37.6693 153.815 37.38C153.74 37.0813 153.619 36.8247 153.451 36.61C153.292 36.3953 153.082 36.2273 152.821 36.106C152.569 35.9847 152.261 35.924 151.897 35.924C151.542 35.924 151.239 35.9847 150.987 36.106C150.735 36.2273 150.525 36.3953 150.357 36.61C150.189 36.8247 150.063 37.0813 149.979 37.38C149.904 37.6693 149.867 37.982 149.867 38.318C149.867 38.654 149.904 38.9667 149.979 39.256C150.063 39.5453 150.184 39.7973 150.343 40.012C150.511 40.2267 150.721 40.3993 150.973 40.53C151.234 40.6513 151.542 40.712 151.897 40.712ZM156.147 34.622H157.911L159.955 40.474L161.985 34.622H163.749L160.977 42H158.919L156.147 34.622ZM165.553 31.556C165.843 31.556 166.081 31.6447 166.267 31.822C166.463 31.9993 166.561 32.242 166.561 32.55C166.561 32.8487 166.463 33.0867 166.267 33.264C166.081 33.4413 165.843 33.53 165.553 33.53C165.245 33.53 164.998 33.4413 164.811 33.264C164.625 33.0867 164.531 32.8487 164.531 32.55C164.531 32.242 164.625 31.9993 164.811 31.822C164.998 31.6447 165.245 31.556 165.553 31.556ZM164.741 42V34.622H166.337V42H164.741ZM168.184 42V34.622H169.71L169.794 35.644C170.065 35.2613 170.401 34.9767 170.802 34.79C171.213 34.594 171.647 34.496 172.104 34.496C172.627 34.496 173.066 34.5847 173.42 34.762C173.784 34.9393 174.078 35.182 174.302 35.49C174.536 35.798 174.699 36.162 174.792 36.582C174.895 37.002 174.946 37.4593 174.946 37.954V42H173.35V38.192C173.35 37.8747 173.327 37.5807 173.28 37.31C173.243 37.0393 173.164 36.8013 173.042 36.596C172.921 36.3813 172.748 36.2133 172.524 36.092C172.31 35.9707 172.03 35.91 171.684 35.91C171.358 35.91 171.059 35.9893 170.788 36.148C170.527 36.3067 170.322 36.512 170.172 36.764C170.032 37.016 169.93 37.296 169.864 37.604C169.808 37.912 169.78 38.206 169.78 38.486V42H168.184ZM183.634 40.698C183.615 41.1087 183.606 41.5193 183.606 41.93C183.606 42.3407 183.55 42.756 183.438 43.176C183.214 43.9693 182.808 44.562 182.22 44.954C181.632 45.346 180.899 45.542 180.022 45.542C179.611 45.542 179.219 45.4953 178.846 45.402C178.482 45.3087 178.15 45.164 177.852 44.968C177.562 44.772 177.315 44.52 177.11 44.212C176.904 43.9133 176.769 43.5493 176.704 43.12H178.37C178.444 43.456 178.64 43.708 178.958 43.876C179.284 44.044 179.644 44.128 180.036 44.128C180.484 44.128 180.838 44.044 181.1 43.876C181.37 43.7173 181.576 43.4933 181.716 43.204C181.856 42.924 181.944 42.5973 181.982 42.224C182.019 41.86 182.038 41.4727 182.038 41.062C181.804 41.426 181.501 41.692 181.128 41.86C180.764 42.028 180.306 42.1167 179.756 42.126C179.121 42.1167 178.594 42.014 178.174 41.818C177.763 41.6127 177.422 41.3373 177.152 40.992C176.881 40.6467 176.68 40.25 176.55 39.802C176.419 39.354 176.354 38.878 176.354 38.374C176.354 37.814 176.424 37.3007 176.564 36.834C176.713 36.3673 176.932 35.9613 177.222 35.616C177.511 35.2707 177.87 35 178.3 34.804C178.729 34.608 179.228 34.51 179.798 34.51C180.283 34.51 180.712 34.594 181.086 34.762C181.468 34.9207 181.8 35.168 182.08 35.504L182.206 34.622H183.634V40.698ZM179.966 35.952C179.611 35.952 179.303 36.0127 179.042 36.134C178.79 36.2553 178.58 36.4233 178.412 36.638C178.253 36.8527 178.132 37.1093 178.048 37.408C177.973 37.6973 177.936 38.01 177.936 38.346C177.936 38.682 177.973 38.9947 178.048 39.284C178.132 39.564 178.258 39.8113 178.426 40.026C178.594 40.2407 178.804 40.4133 179.056 40.544C179.317 40.6653 179.625 40.726 179.98 40.726C180.344 40.726 180.652 40.656 180.904 40.516C181.165 40.376 181.38 40.194 181.548 39.97C181.716 39.7367 181.842 39.4753 181.926 39.186C182.01 38.8967 182.052 38.598 182.052 38.29C182.052 37.9727 182.01 37.6693 181.926 37.38C181.842 37.0907 181.711 36.8433 181.534 36.638C181.366 36.4233 181.151 36.2553 180.89 36.134C180.628 36.0127 180.32 35.952 179.966 35.952ZM102.186 52.496C102.774 52.496 103.292 52.5893 103.74 52.776C104.188 52.9627 104.566 53.224 104.874 53.56C105.191 53.8867 105.429 54.2833 105.588 54.75C105.747 55.2167 105.826 55.7347 105.826 56.304C105.826 56.8827 105.747 57.4053 105.588 57.872C105.439 58.3293 105.21 58.726 104.902 59.062C104.594 59.398 104.211 59.6547 103.754 59.832C103.306 60.0093 102.783 60.098 102.186 60.098C101.598 60.098 101.08 60.0093 100.632 59.832C100.184 59.6453 99.806 59.3887 99.498 59.062C99.1993 58.726 98.9707 58.3247 98.812 57.858C98.6627 57.3913 98.588 56.8733 98.588 56.304C98.588 55.7347 98.6627 55.2167 98.812 54.75C98.9707 54.2833 99.204 53.8867 99.512 53.56C99.82 53.224 100.198 52.9627 100.646 52.776C101.094 52.5893 101.607 52.496 102.186 52.496ZM102.186 58.712C102.55 58.712 102.858 58.6513 103.11 58.53C103.371 58.3993 103.581 58.2267 103.74 58.012C103.908 57.7973 104.029 57.5453 104.104 57.256C104.188 56.9667 104.23 56.654 104.23 56.318C104.23 55.982 104.188 55.6693 104.104 55.38C104.029 55.0813 103.908 54.8247 103.74 54.61C103.581 54.3953 103.371 54.2273 103.11 54.106C102.858 53.9847 102.55 53.924 102.186 53.924C101.831 53.924 101.528 53.9847 101.276 54.106C101.024 54.2273 100.814 54.3953 100.646 54.61C100.478 54.8247 100.352 55.0813 100.268 55.38C100.193 55.6693 100.156 55.982 100.156 56.318C100.156 56.654 100.193 56.9667 100.268 57.256C100.352 57.5453 100.473 57.7973 100.632 58.012C100.8 58.2267 101.01 58.3993 101.262 58.53C101.523 58.6513 101.831 58.712 102.186 58.712ZM107.276 60V52.622H108.802L108.886 53.644C109.157 53.2613 109.493 52.9767 109.894 52.79C110.305 52.594 110.739 52.496 111.196 52.496C111.719 52.496 112.158 52.5847 112.512 52.762C112.876 52.9393 113.17 53.182 113.394 53.49C113.628 53.798 113.791 54.162 113.884 54.582C113.987 55.002 114.038 55.4593 114.038 55.954V60H112.442V56.192C112.442 55.8747 112.419 55.5807 112.372 55.31C112.335 55.0393 112.256 54.8013 112.134 54.596C112.013 54.3813 111.84 54.2133 111.616 54.092C111.402 53.9707 111.122 53.91 110.776 53.91C110.45 53.91 110.151 53.9893 109.88 54.148C109.619 54.3067 109.414 54.512 109.264 54.764C109.124 55.016 109.022 55.296 108.956 55.604C108.9 55.912 108.872 56.206 108.872 56.486V60H107.276ZM123.853 51.432C123.33 51.4413 122.882 51.544 122.509 51.74C122.136 51.936 121.828 52.1973 121.585 52.524C121.352 52.8507 121.179 53.2333 121.067 53.672C120.955 54.1013 120.899 54.5587 120.899 55.044C120.899 55.5293 120.955 55.9913 121.067 56.43C121.188 56.8593 121.37 57.242 121.613 57.578C121.865 57.9047 122.182 58.166 122.565 58.362C122.948 58.5487 123.4 58.642 123.923 58.642C124.772 58.642 125.43 58.4227 125.897 57.984C126.373 57.536 126.62 56.9573 126.639 56.248H123.741V54.876H128.193C128.193 55.2307 128.184 55.59 128.165 55.954C128.156 56.3087 128.104 56.682 128.011 57.074C127.899 57.494 127.736 57.8907 127.521 58.264C127.306 58.628 127.031 58.9453 126.695 59.216C126.359 59.4867 125.958 59.7013 125.491 59.86C125.034 60.0187 124.506 60.098 123.909 60.098C123.134 60.098 122.453 59.9767 121.865 59.734C121.286 59.482 120.801 59.132 120.409 58.684C120.017 58.236 119.723 57.704 119.527 57.088C119.331 56.472 119.233 55.8 119.233 55.072C119.233 54.3347 119.331 53.6533 119.527 53.028C119.723 52.4027 120.012 51.866 120.395 51.418C120.787 50.9607 121.272 50.606 121.851 50.354C122.439 50.102 123.12 49.976 123.895 49.976C124.436 49.976 124.936 50.046 125.393 50.186C125.86 50.3167 126.27 50.5127 126.625 50.774C126.98 51.026 127.274 51.3433 127.507 51.726C127.74 52.0993 127.894 52.5287 127.969 53.014H126.331C126.21 52.5193 125.925 52.132 125.477 51.852C125.038 51.572 124.497 51.432 123.853 51.432ZM132.975 52.496C133.563 52.496 134.081 52.5893 134.529 52.776C134.977 52.9627 135.355 53.224 135.663 53.56C135.98 53.8867 136.218 54.2833 136.377 54.75C136.536 55.2167 136.615 55.7347 136.615 56.304C136.615 56.8827 136.536 57.4053 136.377 57.872C136.228 58.3293 135.999 58.726 135.691 59.062C135.383 59.398 135 59.6547 134.543 59.832C134.095 60.0093 133.572 60.098 132.975 60.098C132.387 60.098 131.869 60.0093 131.421 59.832C130.973 59.6453 130.595 59.3887 130.287 59.062C129.988 58.726 129.76 58.3247 129.601 57.858C129.452 57.3913 129.377 56.8733 129.377 56.304C129.377 55.7347 129.452 55.2167 129.601 54.75C129.76 54.2833 129.993 53.8867 130.301 53.56C130.609 53.224 130.987 52.9627 131.435 52.776C131.883 52.5893 132.396 52.496 132.975 52.496ZM132.975 58.712C133.339 58.712 133.647 58.6513 133.899 58.53C134.16 58.3993 134.37 58.2267 134.529 58.012C134.697 57.7973 134.818 57.5453 134.893 57.256C134.977 56.9667 135.019 56.654 135.019 56.318C135.019 55.982 134.977 55.6693 134.893 55.38C134.818 55.0813 134.697 54.8247 134.529 54.61C134.37 54.3953 134.16 54.2273 133.899 54.106C133.647 53.9847 133.339 53.924 132.975 53.924C132.62 53.924 132.317 53.9847 132.065 54.106C131.813 54.2273 131.603 54.3953 131.435 54.61C131.267 54.8247 131.141 55.0813 131.057 55.38C130.982 55.6693 130.945 55.982 130.945 56.318C130.945 56.654 130.982 56.9667 131.057 57.256C131.141 57.5453 131.262 57.7973 131.421 58.012C131.589 58.2267 131.799 58.3993 132.051 58.53C132.312 58.6513 132.62 58.712 132.975 58.712ZM141.383 52.496C141.971 52.496 142.489 52.5893 142.937 52.776C143.385 52.9627 143.763 53.224 144.071 53.56C144.389 53.8867 144.627 54.2833 144.785 54.75C144.944 55.2167 145.023 55.7347 145.023 56.304C145.023 56.8827 144.944 57.4053 144.785 57.872C144.636 58.3293 144.407 58.726 144.099 59.062C143.791 59.398 143.409 59.6547 142.951 59.832C142.503 60.0093 141.981 60.098 141.383 60.098C140.795 60.098 140.277 60.0093 139.829 59.832C139.381 59.6453 139.003 59.3887 138.695 59.062C138.397 58.726 138.168 58.3247 138.009 57.858C137.86 57.3913 137.785 56.8733 137.785 56.304C137.785 55.7347 137.86 55.2167 138.009 54.75C138.168 54.2833 138.401 53.8867 138.709 53.56C139.017 53.224 139.395 52.9627 139.843 52.776C140.291 52.5893 140.805 52.496 141.383 52.496ZM141.383 58.712C141.747 58.712 142.055 58.6513 142.307 58.53C142.569 58.3993 142.779 58.2267 142.937 58.012C143.105 57.7973 143.227 57.5453 143.301 57.256C143.385 56.9667 143.427 56.654 143.427 56.318C143.427 55.982 143.385 55.6693 143.301 55.38C143.227 55.0813 143.105 54.8247 142.937 54.61C142.779 54.3953 142.569 54.2273 142.307 54.106C142.055 53.9847 141.747 53.924 141.383 53.924C141.029 53.924 140.725 53.9847 140.473 54.106C140.221 54.2273 140.011 54.3953 139.843 54.61C139.675 54.8247 139.549 55.0813 139.465 55.38C139.391 55.6693 139.353 55.982 139.353 56.318C139.353 56.654 139.391 56.9667 139.465 57.256C139.549 57.5453 139.671 57.7973 139.829 58.012C139.997 58.2267 140.207 58.3993 140.459 58.53C140.721 58.6513 141.029 58.712 141.383 58.712ZM153.473 58.698C153.455 59.1087 153.445 59.5193 153.445 59.93C153.445 60.3407 153.389 60.756 153.277 61.176C153.053 61.9693 152.647 62.562 152.059 62.954C151.471 63.346 150.739 63.542 149.861 63.542C149.451 63.542 149.059 63.4953 148.685 63.402C148.321 63.3087 147.99 63.164 147.691 62.968C147.402 62.772 147.155 62.52 146.949 62.212C146.744 61.9133 146.609 61.5493 146.543 61.12H148.209C148.284 61.456 148.48 61.708 148.797 61.876C149.124 62.044 149.483 62.128 149.875 62.128C150.323 62.128 150.678 62.044 150.939 61.876C151.21 61.7173 151.415 61.4933 151.555 61.204C151.695 60.924 151.784 60.5973 151.821 60.224C151.859 59.86 151.877 59.4727 151.877 59.062C151.644 59.426 151.341 59.692 150.967 59.86C150.603 60.028 150.146 60.1167 149.595 60.126C148.961 60.1167 148.433 60.014 148.013 59.818C147.603 59.6127 147.262 59.3373 146.991 58.992C146.721 58.6467 146.52 58.25 146.389 57.802C146.259 57.354 146.193 56.878 146.193 56.374C146.193 55.814 146.263 55.3007 146.403 54.834C146.553 54.3673 146.772 53.9613 147.061 53.616C147.351 53.2707 147.71 53 148.139 52.804C148.569 52.608 149.068 52.51 149.637 52.51C150.123 52.51 150.552 52.594 150.925 52.762C151.308 52.9207 151.639 53.168 151.919 53.504L152.045 52.622H153.473V58.698ZM149.805 53.952C149.451 53.952 149.143 54.0127 148.881 54.134C148.629 54.2553 148.419 54.4233 148.251 54.638C148.093 54.8527 147.971 55.1093 147.887 55.408C147.813 55.6973 147.775 56.01 147.775 56.346C147.775 56.682 147.813 56.9947 147.887 57.284C147.971 57.564 148.097 57.8113 148.265 58.026C148.433 58.2407 148.643 58.4133 148.895 58.544C149.157 58.6653 149.465 58.726 149.819 58.726C150.183 58.726 150.491 58.656 150.743 58.516C151.005 58.376 151.219 58.194 151.387 57.97C151.555 57.7367 151.681 57.4753 151.765 57.186C151.849 56.8967 151.891 56.598 151.891 56.29C151.891 55.9727 151.849 55.6693 151.765 55.38C151.681 55.0907 151.551 54.8433 151.373 54.638C151.205 54.4233 150.991 54.2553 150.729 54.134C150.468 54.0127 150.16 53.952 149.805 53.952ZM155.21 60V50.102H156.806V60H155.21ZM159.862 56.85C159.88 57.1207 159.936 57.3727 160.03 57.606C160.123 57.8393 160.249 58.0447 160.408 58.222C160.576 58.39 160.776 58.5253 161.01 58.628C161.252 58.7307 161.532 58.782 161.85 58.782C162.186 58.782 162.494 58.7213 162.774 58.6C163.054 58.4787 163.259 58.2687 163.39 57.97H165.028C164.934 58.3433 164.78 58.6653 164.566 58.936C164.36 59.2067 164.113 59.4307 163.824 59.608C163.544 59.776 163.231 59.902 162.886 59.986C162.55 60.0607 162.19 60.098 161.808 60.098C161.22 60.098 160.702 60.0093 160.254 59.832C159.815 59.6547 159.446 59.398 159.148 59.062C158.849 58.726 158.625 58.3293 158.476 57.872C158.336 57.4053 158.266 56.8827 158.266 56.304C158.266 55.744 158.345 55.2353 158.504 54.778C158.662 54.3113 158.891 53.91 159.19 53.574C159.498 53.238 159.866 52.9767 160.296 52.79C160.725 52.594 161.215 52.496 161.766 52.496C162.344 52.496 162.844 52.594 163.264 52.79C163.684 52.9767 164.034 53.2333 164.314 53.56C164.603 53.8867 164.818 54.2693 164.958 54.708C165.098 55.1467 165.168 55.6227 165.168 56.136C165.168 56.3787 165.154 56.6167 165.126 56.85H159.862ZM163.614 55.646C163.595 55.086 163.418 54.652 163.082 54.344C162.746 54.036 162.312 53.882 161.78 53.882C161.481 53.882 161.22 53.9287 160.996 54.022C160.772 54.1153 160.58 54.2413 160.422 54.4C160.272 54.5587 160.151 54.7453 160.058 54.96C159.964 55.1747 159.904 55.4033 159.876 55.646H163.614Z" fill="white"/>
<g clip-path="url(#clip0_811_14616)">
<path d="M220.282 38.9676C220.545 38.3959 221.358 38.3959 221.621 38.9676L223.31 42.6284C223.418 42.8614 223.638 43.0219 223.893 43.0521L227.897 43.5268C228.522 43.6009 228.773 44.3737 228.311 44.8011L225.351 47.5383C225.162 47.7125 225.078 47.9721 225.128 48.2238L225.914 52.178C226.036 52.7955 225.379 53.2731 224.83 52.9656L221.312 50.9964C221.088 50.8711 220.815 50.8711 220.591 50.9964L217.073 52.9656C216.524 53.2731 215.867 52.7955 215.989 52.178L216.775 48.2238C216.825 47.9721 216.741 47.7125 216.552 47.5383L213.592 44.8011C213.13 44.3737 213.381 43.6009 214.006 43.5268L218.01 43.0521C218.265 43.0219 218.485 42.8614 218.593 42.6284L220.282 38.9676Z" fill="#F5AF40" stroke="#F5AF40" stroke-width="1.47561" stroke-linecap="round" stroke-linejoin="round"/>
</g>
<g clip-path="url(#clip1_811_14616)">
<path d="M242.282 38.9676C242.545 38.3959 243.358 38.3959 243.621 38.9676L245.31 42.6284C245.418 42.8614 245.638 43.0219 245.893 43.0521L249.897 43.5268C250.522 43.6009 250.773 44.3737 250.311 44.8011L247.351 47.5383C247.162 47.7125 247.078 47.9721 247.128 48.2238L247.914 52.178C248.036 52.7955 247.379 53.2731 246.83 52.9656L243.312 50.9964C243.088 50.8711 242.815 50.8711 242.591 50.9964L239.073 52.9656C238.524 53.2731 237.867 52.7955 237.989 52.178L238.775 48.2238C238.825 47.9721 238.741 47.7125 238.552 47.5383L235.592 44.8011C235.13 44.3737 235.381 43.6009 236.006 43.5268L240.01 43.0521C240.265 43.0219 240.485 42.8614 240.593 42.6284L242.282 38.9676Z" fill="#F5AF40" stroke="#F5AF40" stroke-width="1.47561" stroke-linecap="round" stroke-linejoin="round"/>
</g>
<g clip-path="url(#clip2_811_14616)">
<path d="M264.282 38.9676C264.545 38.3959 265.358 38.3959 265.621 38.9676L267.31 42.6284C267.418 42.8614 267.638 43.0219 267.893 43.0521L271.897 43.5268C272.522 43.6009 272.773 44.3737 272.311 44.8011L269.351 47.5383C269.162 47.7125 269.078 47.9721 269.128 48.2238L269.914 52.178C270.036 52.7955 269.379 53.2731 268.83 52.9656L265.312 50.9964C265.088 50.8711 264.815 50.8711 264.591 50.9964L261.073 52.9656C260.524 53.2731 259.867 52.7955 259.989 52.178L260.775 48.2238C260.825 47.9721 260.741 47.7125 260.552 47.5383L257.592 44.8011C257.13 44.3737 257.381 43.6009 258.006 43.5268L262.01 43.0521C262.265 43.0219 262.485 42.8614 262.593 42.6284L264.282 38.9676Z" fill="#F5AF40" stroke="#F5AF40" stroke-width="1.47561" stroke-linecap="round" stroke-linejoin="round"/>
</g>
<g clip-path="url(#clip3_811_14616)">
<path d="M286.282 38.9676C286.545 38.3959 287.358 38.3959 287.621 38.9676L289.31 42.6284C289.418 42.8614 289.638 43.0219 289.893 43.0521L293.897 43.5268C294.522 43.6009 294.773 44.3737 294.311 44.8011L291.351 47.5383C291.162 47.7125 291.078 47.9721 291.128 48.2238L291.914 52.178C292.036 52.7955 291.379 53.2731 290.83 52.9656L287.312 50.9964C287.088 50.8711 286.815 50.8711 286.591 50.9964L283.073 52.9656C282.524 53.2731 281.867 52.7955 281.989 52.178L282.775 48.2238C282.825 47.9721 282.741 47.7125 282.552 47.5383L279.592 44.8011C279.13 44.3737 279.381 43.6009 280.006 43.5268L284.01 43.0521C284.265 43.0219 284.485 42.8614 284.593 42.6284L286.282 38.9676Z" fill="#F5AF40" stroke="#F5AF40" stroke-width="1.47561" stroke-linecap="round" stroke-linejoin="round"/>
</g>
<g clip-path="url(#clip4_811_14616)">
<path d="M308.282 38.9676C308.545 38.3959 309.358 38.3959 309.621 38.9676L311.31 42.6284C311.418 42.8614 311.638 43.0219 311.893 43.0521L315.897 43.5268C316.522 43.6009 316.773 44.3737 316.311 44.8011L313.351 47.5383C313.162 47.7125 313.078 47.9721 313.128 48.2238L313.914 52.178C314.036 52.7955 313.379 53.2731 312.83 52.9656L309.312 50.9964C309.088 50.8711 308.815 50.8711 308.591 50.9964L305.073 52.9656C304.524 53.2731 303.867 52.7955 303.989 52.178L304.775 48.2238C304.825 47.9721 304.741 47.7125 304.552 47.5383L301.592 44.8011C301.13 44.3737 301.381 43.6009 302.006 43.5268L306.01 43.0521C306.265 43.0219 306.485 42.8614 306.593 42.6284L308.282 38.9676Z" fill="#F5AF40" stroke="#F5AF40" stroke-width="1.47561" stroke-linecap="round" stroke-linejoin="round"/>
</g>
<defs>
<clipPath id="clip0_811_14616">
<rect width="16" height="16" fill="white" transform="translate(213 38)"/>
</clipPath>
<clipPath id="clip1_811_14616">
<rect width="16" height="16" fill="white" transform="translate(235 38)"/>
</clipPath>
<clipPath id="clip2_811_14616">
<rect width="16" height="16" fill="white" transform="translate(257 38)"/>
</clipPath>
<clipPath id="clip3_811_14616">
<rect width="16" height="16" fill="white" transform="translate(279 38)"/>
</clipPath>
<clipPath id="clip4_811_14616">
<rect width="16" height="16" fill="white" transform="translate(301 38)"/>
</clipPath>
</defs>
</svg>
