<svg width="226" height="102" viewBox="0 0 226 102" fill="none" xmlns="http://www.w3.org/2000/svg">
<rect width="226" height="102" rx="16" fill="white" fill-opacity="0.05"/>
<path d="M79.3268 52.6042C79.3268 50.9702 79.1956 49.3361 78.9334 47.7354H56.6721V56.9729H69.4256C68.901 59.9409 67.1962 62.6088 64.7045 64.2762V70.2789H72.3107C76.7695 66.1104 79.3268 59.9409 79.3268 52.6042Z" fill="#4285F4"/>
<path d="M56.6731 76.0817C63.0335 76.0817 68.4103 73.9474 72.3117 70.279L64.7055 64.2763C62.5745 65.7436 59.8533 66.5774 56.6731 66.5774C50.5095 66.5774 45.2966 62.3421 43.4279 56.6729H35.5922V62.8757C39.592 70.9794 47.7555 76.0817 56.6731 76.0817Z" fill="#34A853"/>
<path d="M43.4288 56.673C42.4451 53.705 42.4451 50.4702 43.4288 47.4688V41.2993H35.5919C32.2145 48.0691 32.2145 56.0727 35.5919 62.8425L43.4288 56.673Z" fill="#FBBC04"/>
<path d="M56.6731 37.5644C60.05 37.4977 63.2958 38.7983 65.7219 41.166L72.4756 34.2962C68.1808 30.2277 62.5417 27.9933 56.6731 28.06C47.7555 28.06 39.592 33.1957 35.5922 41.2994L43.4279 47.5022C45.2966 41.7996 50.5095 37.5644 56.6731 37.5644Z" fill="#EA4335"/>
<g clip-path="url(#clip0_180_3784)">
<path d="M99.2812 20.9676C99.5449 20.3959 100.357 20.3959 100.621 20.9676L102.31 24.6284C102.417 24.8614 102.638 25.0219 102.893 25.0521L106.896 25.5268C107.521 25.6009 107.773 26.3737 107.31 26.8011L104.35 29.5383C104.162 29.7125 104.078 29.9721 104.128 30.2238L104.913 34.178C105.036 34.7955 104.379 35.2731 103.829 34.9656L100.312 32.9964C100.088 32.8711 99.8147 32.8711 99.5908 32.9964L96.0729 34.9656C95.5235 35.2731 94.8662 34.7955 94.9889 34.178L95.7746 30.2238C95.8246 29.9721 95.7402 29.7125 95.5518 29.5383L92.592 26.8011C92.1298 26.3737 92.3808 25.6009 93.0061 25.5268L97.0095 25.0521C97.2643 25.0219 97.4851 24.8614 97.5926 24.6284L99.2812 20.9676Z" fill="#F5AF40" stroke="#F5AF40" stroke-width="1.47561" stroke-linecap="round" stroke-linejoin="round"/>
</g>
<g clip-path="url(#clip1_180_3784)">
<path d="M121.281 20.9676C121.545 20.3959 122.357 20.3959 122.621 20.9676L124.31 24.6284C124.417 24.8614 124.638 25.0219 124.893 25.0521L128.896 25.5268C129.521 25.6009 129.773 26.3737 129.31 26.8011L126.35 29.5383C126.162 29.7125 126.078 29.9721 126.128 30.2238L126.913 34.178C127.036 34.7955 126.379 35.2731 125.829 34.9656L122.312 32.9964C122.088 32.8711 121.815 32.8711 121.591 32.9964L118.073 34.9656C117.524 35.2731 116.866 34.7955 116.989 34.178L117.775 30.2238C117.825 29.9721 117.74 29.7125 117.552 29.5383L114.592 26.8011C114.13 26.3737 114.381 25.6009 115.006 25.5268L119.01 25.0521C119.264 25.0219 119.485 24.8614 119.593 24.6284L121.281 20.9676Z" fill="#F5AF40" stroke="#F5AF40" stroke-width="1.47561" stroke-linecap="round" stroke-linejoin="round"/>
</g>
<g clip-path="url(#clip2_180_3784)">
<path d="M143.281 20.9676C143.545 20.3959 144.357 20.3959 144.621 20.9676L146.31 24.6284C146.417 24.8614 146.638 25.0219 146.893 25.0521L150.896 25.5268C151.521 25.6009 151.773 26.3737 151.31 26.8011L148.35 29.5383C148.162 29.7125 148.078 29.9721 148.128 30.2238L148.913 34.178C149.036 34.7955 148.379 35.2731 147.829 34.9656L144.312 32.9964C144.088 32.8711 143.815 32.8711 143.591 32.9964L140.073 34.9656C139.524 35.2731 138.866 34.7955 138.989 34.178L139.775 30.2238C139.825 29.9721 139.74 29.7125 139.552 29.5383L136.592 26.8011C136.13 26.3737 136.381 25.6009 137.006 25.5268L141.01 25.0521C141.264 25.0219 141.485 24.8614 141.593 24.6284L143.281 20.9676Z" fill="#F5AF40" stroke="#F5AF40" stroke-width="1.47561" stroke-linecap="round" stroke-linejoin="round"/>
</g>
<g clip-path="url(#clip3_180_3784)">
<path d="M165.281 20.9676C165.545 20.3959 166.357 20.3959 166.621 20.9676L168.31 24.6284C168.417 24.8614 168.638 25.0219 168.893 25.0521L172.896 25.5268C173.521 25.6009 173.773 26.3737 173.31 26.8011L170.35 29.5383C170.162 29.7125 170.078 29.9721 170.128 30.2238L170.913 34.178C171.036 34.7955 170.379 35.2731 169.829 34.9656L166.312 32.9964C166.088 32.8711 165.815 32.8711 165.591 32.9964L162.073 34.9656C161.524 35.2731 160.866 34.7955 160.989 34.178L161.775 30.2238C161.825 29.9721 161.74 29.7125 161.552 29.5383L158.592 26.8011C158.13 26.3737 158.381 25.6009 159.006 25.5268L163.01 25.0521C163.264 25.0219 163.485 24.8614 163.593 24.6284L165.281 20.9676Z" fill="#F5AF40" stroke="#F5AF40" stroke-width="1.47561" stroke-linecap="round" stroke-linejoin="round"/>
</g>
<g clip-path="url(#clip4_180_3784)">
<path d="M187.281 20.9676C187.545 20.3959 188.357 20.3959 188.621 20.9676L190.31 24.6284C190.417 24.8614 190.638 25.0219 190.893 25.0521L194.896 25.5268C195.521 25.6009 195.773 26.3737 195.31 26.8011L192.35 29.5383C192.162 29.7125 192.078 29.9721 192.128 30.2238L192.913 34.178C193.036 34.7955 192.379 35.2731 191.829 34.9656L188.312 32.9964C188.088 32.8711 187.815 32.8711 187.591 32.9964L184.073 34.9656C183.524 35.2731 182.866 34.7955 182.989 34.178L183.775 30.2238C183.825 29.9721 183.74 29.7125 183.552 29.5383L180.592 26.8011C180.13 26.3737 180.381 25.6009 181.006 25.5268L185.01 25.0521C185.264 25.0219 185.485 24.8614 185.593 24.6284L187.281 20.9676Z" fill="#F5AF40" stroke="#F5AF40" stroke-width="1.47561" stroke-linecap="round" stroke-linejoin="round"/>
</g>
<path d="M93.148 50.102H100.022V51.558H94.772V54.372H99.42V55.842H94.772V58.558H100.022V60H93.148V50.102ZM101.495 60V50.102H103.091V60H101.495ZM109.591 59.09C109.348 59.4353 109.026 59.692 108.625 59.86C108.224 60.0187 107.776 60.098 107.281 60.098C106.889 60.098 106.53 60.0513 106.203 59.958C105.886 59.8647 105.606 59.7247 105.363 59.538C105.12 59.342 104.929 59.104 104.789 58.824C104.649 58.5347 104.579 58.208 104.579 57.844C104.579 57.4427 104.658 57.102 104.817 56.822C104.976 56.5327 105.19 56.2993 105.461 56.122C105.741 55.9447 106.068 55.814 106.441 55.73C106.814 55.6367 107.206 55.59 107.617 55.59H109.507C109.507 55.0487 109.386 54.6287 109.143 54.33C108.9 54.0313 108.476 53.8773 107.869 53.868C107.514 53.868 107.206 53.9287 106.945 54.05C106.693 54.1713 106.525 54.372 106.441 54.652H104.803C104.859 54.26 104.985 53.9287 105.181 53.658C105.386 53.3873 105.629 53.1633 105.909 52.986C106.198 52.8087 106.516 52.6827 106.861 52.608C107.216 52.5333 107.57 52.496 107.925 52.496C108.382 52.496 108.807 52.5567 109.199 52.678C109.591 52.7993 109.932 53.0047 110.221 53.294C110.548 53.63 110.767 54.0313 110.879 54.498C110.991 54.9647 111.047 55.4733 111.047 56.024V60H109.661L109.591 59.09ZM109.507 56.724H107.967C107.696 56.724 107.426 56.7473 107.155 56.794C106.884 56.8313 106.651 56.9293 106.455 57.088C106.268 57.2373 106.175 57.4567 106.175 57.746C106.175 58.1007 106.301 58.3713 106.553 58.558C106.814 58.7353 107.132 58.824 107.505 58.824C107.794 58.824 108.06 58.7867 108.303 58.712C108.555 58.6373 108.77 58.516 108.947 58.348C109.124 58.1707 109.26 57.9513 109.353 57.69C109.456 57.4193 109.507 57.0973 109.507 56.724ZM114.973 52.622H117.185V54.008H114.973V57.256C114.973 57.4427 114.982 57.62 115.001 57.788C115.029 57.956 115.075 58.11 115.141 58.25C115.215 58.3807 115.318 58.488 115.449 58.572C115.579 58.656 115.757 58.698 115.981 58.698C116.373 58.698 116.709 58.5813 116.989 58.348L117.521 59.538C117.278 59.7247 116.998 59.8647 116.681 59.958C116.363 60.042 116.051 60.084 115.743 60.084C114.94 60.084 114.347 59.8833 113.965 59.482C113.582 59.0713 113.391 58.432 113.391 57.564V54.008H112.229V52.622H113.391V50.522H114.973V52.622ZM119.846 56.85C119.865 57.1207 119.921 57.3727 120.014 57.606C120.107 57.8393 120.233 58.0447 120.392 58.222C120.56 58.39 120.761 58.5253 120.994 58.628C121.237 58.7307 121.517 58.782 121.834 58.782C122.17 58.782 122.478 58.7213 122.758 58.6C123.038 58.4787 123.243 58.2687 123.374 57.97H125.012C124.919 58.3433 124.765 58.6653 124.55 58.936C124.345 59.2067 124.097 59.4307 123.808 59.608C123.528 59.776 123.215 59.902 122.87 59.986C122.534 60.0607 122.175 60.098 121.792 60.098C121.204 60.098 120.686 60.0093 120.238 59.832C119.799 59.6547 119.431 59.398 119.132 59.062C118.833 58.726 118.609 58.3293 118.46 57.872C118.32 57.4053 118.25 56.8827 118.25 56.304C118.25 55.744 118.329 55.2353 118.488 54.778C118.647 54.3113 118.875 53.91 119.174 53.574C119.482 53.238 119.851 52.9767 120.28 52.79C120.709 52.594 121.199 52.496 121.75 52.496C122.329 52.496 122.828 52.594 123.248 52.79C123.668 52.9767 124.018 53.2333 124.298 53.56C124.587 53.8867 124.802 54.2693 124.942 54.708C125.082 55.1467 125.152 55.6227 125.152 56.136C125.152 56.3787 125.138 56.6167 125.11 56.85H119.846ZM123.598 55.646C123.579 55.086 123.402 54.652 123.066 54.344C122.73 54.036 122.296 53.882 121.764 53.882C121.465 53.882 121.204 53.9287 120.98 54.022C120.756 54.1153 120.565 54.2413 120.406 54.4C120.257 54.5587 120.135 54.7453 120.042 54.96C119.949 55.1747 119.888 55.4033 119.86 55.646H123.598ZM130.65 60V50.102H132.694L135.648 55.17L138.574 50.102H140.562V60H138.952V52.286L135.97 57.424H135.242L132.26 52.286V60H130.65ZM145.897 52.496C146.485 52.496 147.003 52.5893 147.451 52.776C147.899 52.9627 148.277 53.224 148.585 53.56C148.902 53.8867 149.14 54.2833 149.299 54.75C149.458 55.2167 149.537 55.7347 149.537 56.304C149.537 56.8827 149.458 57.4053 149.299 57.872C149.15 58.3293 148.921 58.726 148.613 59.062C148.305 59.398 147.922 59.6547 147.465 59.832C147.017 60.0093 146.494 60.098 145.897 60.098C145.309 60.098 144.791 60.0093 144.343 59.832C143.895 59.6453 143.517 59.3887 143.209 59.062C142.91 58.726 142.682 58.3247 142.523 57.858C142.374 57.3913 142.299 56.8733 142.299 56.304C142.299 55.7347 142.374 55.2167 142.523 54.75C142.682 54.2833 142.915 53.8867 143.223 53.56C143.531 53.224 143.909 52.9627 144.357 52.776C144.805 52.5893 145.318 52.496 145.897 52.496ZM145.897 58.712C146.261 58.712 146.569 58.6513 146.821 58.53C147.082 58.3993 147.292 58.2267 147.451 58.012C147.619 57.7973 147.74 57.5453 147.815 57.256C147.899 56.9667 147.941 56.654 147.941 56.318C147.941 55.982 147.899 55.6693 147.815 55.38C147.74 55.0813 147.619 54.8247 147.451 54.61C147.292 54.3953 147.082 54.2273 146.821 54.106C146.569 53.9847 146.261 53.924 145.897 53.924C145.542 53.924 145.239 53.9847 144.987 54.106C144.735 54.2273 144.525 54.3953 144.357 54.61C144.189 54.8247 144.063 55.0813 143.979 55.38C143.904 55.6693 143.867 55.982 143.867 56.318C143.867 56.654 143.904 56.9667 143.979 57.256C144.063 57.5453 144.184 57.7973 144.343 58.012C144.511 58.2267 144.721 58.3993 144.973 58.53C145.234 58.6513 145.542 58.712 145.897 58.712ZM150.147 52.622H151.911L153.955 58.474L155.985 52.622H157.749L154.977 60H152.919L150.147 52.622ZM159.553 49.556C159.843 49.556 160.081 49.6447 160.267 49.822C160.463 49.9993 160.561 50.242 160.561 50.55C160.561 50.8487 160.463 51.0867 160.267 51.264C160.081 51.4413 159.843 51.53 159.553 51.53C159.245 51.53 158.998 51.4413 158.811 51.264C158.625 51.0867 158.531 50.8487 158.531 50.55C158.531 50.242 158.625 49.9993 158.811 49.822C158.998 49.6447 159.245 49.556 159.553 49.556ZM158.741 60V52.622H160.337V60H158.741ZM162.184 60V52.622H163.71L163.794 53.644C164.065 53.2613 164.401 52.9767 164.802 52.79C165.213 52.594 165.647 52.496 166.104 52.496C166.627 52.496 167.066 52.5847 167.42 52.762C167.784 52.9393 168.078 53.182 168.302 53.49C168.536 53.798 168.699 54.162 168.792 54.582C168.895 55.002 168.946 55.4593 168.946 55.954V60H167.35V56.192C167.35 55.8747 167.327 55.5807 167.28 55.31C167.243 55.0393 167.164 54.8013 167.042 54.596C166.921 54.3813 166.748 54.2133 166.524 54.092C166.31 53.9707 166.03 53.91 165.684 53.91C165.358 53.91 165.059 53.9893 164.788 54.148C164.527 54.3067 164.322 54.512 164.172 54.764C164.032 55.016 163.93 55.296 163.864 55.604C163.808 55.912 163.78 56.206 163.78 56.486V60H162.184ZM177.634 58.698C177.615 59.1087 177.606 59.5193 177.606 59.93C177.606 60.3407 177.55 60.756 177.438 61.176C177.214 61.9693 176.808 62.562 176.22 62.954C175.632 63.346 174.899 63.542 174.022 63.542C173.611 63.542 173.219 63.4953 172.846 63.402C172.482 63.3087 172.15 63.164 171.852 62.968C171.562 62.772 171.315 62.52 171.11 62.212C170.904 61.9133 170.769 61.5493 170.704 61.12H172.37C172.444 61.456 172.64 61.708 172.958 61.876C173.284 62.044 173.644 62.128 174.036 62.128C174.484 62.128 174.838 62.044 175.1 61.876C175.37 61.7173 175.576 61.4933 175.716 61.204C175.856 60.924 175.944 60.5973 175.982 60.224C176.019 59.86 176.038 59.4727 176.038 59.062C175.804 59.426 175.501 59.692 175.128 59.86C174.764 60.028 174.306 60.1167 173.756 60.126C173.121 60.1167 172.594 60.014 172.174 59.818C171.763 59.6127 171.422 59.3373 171.152 58.992C170.881 58.6467 170.68 58.25 170.55 57.802C170.419 57.354 170.354 56.878 170.354 56.374C170.354 55.814 170.424 55.3007 170.564 54.834C170.713 54.3673 170.932 53.9613 171.222 53.616C171.511 53.2707 171.87 53 172.3 52.804C172.729 52.608 173.228 52.51 173.798 52.51C174.283 52.51 174.712 52.594 175.086 52.762C175.468 52.9207 175.8 53.168 176.08 53.504L176.206 52.622H177.634V58.698ZM173.966 53.952C173.611 53.952 173.303 54.0127 173.042 54.134C172.79 54.2553 172.58 54.4233 172.412 54.638C172.253 54.8527 172.132 55.1093 172.048 55.408C171.973 55.6973 171.936 56.01 171.936 56.346C171.936 56.682 171.973 56.9947 172.048 57.284C172.132 57.564 172.258 57.8113 172.426 58.026C172.594 58.2407 172.804 58.4133 173.056 58.544C173.317 58.6653 173.625 58.726 173.98 58.726C174.344 58.726 174.652 58.656 174.904 58.516C175.165 58.376 175.38 58.194 175.548 57.97C175.716 57.7367 175.842 57.4753 175.926 57.186C176.01 56.8967 176.052 56.598 176.052 56.29C176.052 55.9727 176.01 55.6693 175.926 55.38C175.842 55.0907 175.711 54.8433 175.534 54.638C175.366 54.4233 175.151 54.2553 174.89 54.134C174.628 54.0127 174.32 53.952 173.966 53.952ZM96.186 70.496C96.774 70.496 97.292 70.5893 97.74 70.776C98.188 70.9627 98.566 71.224 98.874 71.56C99.1913 71.8867 99.4293 72.2833 99.588 72.75C99.7467 73.2167 99.826 73.7347 99.826 74.304C99.826 74.8827 99.7467 75.4053 99.588 75.872C99.4387 76.3293 99.21 76.726 98.902 77.062C98.594 77.398 98.2113 77.6547 97.754 77.832C97.306 78.0093 96.7833 78.098 96.186 78.098C95.598 78.098 95.08 78.0093 94.632 77.832C94.184 77.6453 93.806 77.3887 93.498 77.062C93.1993 76.726 92.9707 76.3247 92.812 75.858C92.6627 75.3913 92.588 74.8733 92.588 74.304C92.588 73.7347 92.6627 73.2167 92.812 72.75C92.9707 72.2833 93.204 71.8867 93.512 71.56C93.82 71.224 94.198 70.9627 94.646 70.776C95.094 70.5893 95.6073 70.496 96.186 70.496ZM96.186 76.712C96.55 76.712 96.858 76.6513 97.11 76.53C97.3713 76.3993 97.5813 76.2267 97.74 76.012C97.908 75.7973 98.0293 75.5453 98.104 75.256C98.188 74.9667 98.23 74.654 98.23 74.318C98.23 73.982 98.188 73.6693 98.104 73.38C98.0293 73.0813 97.908 72.8247 97.74 72.61C97.5813 72.3953 97.3713 72.2273 97.11 72.106C96.858 71.9847 96.55 71.924 96.186 71.924C95.8313 71.924 95.528 71.9847 95.276 72.106C95.024 72.2273 94.814 72.3953 94.646 72.61C94.478 72.8247 94.352 73.0813 94.268 73.38C94.1933 73.6693 94.156 73.982 94.156 74.318C94.156 74.654 94.1933 74.9667 94.268 75.256C94.352 75.5453 94.4733 75.7973 94.632 76.012C94.8 76.2267 95.01 76.3993 95.262 76.53C95.5233 76.6513 95.8313 76.712 96.186 76.712ZM101.276 78V70.622H102.802L102.886 71.644C103.157 71.2613 103.493 70.9767 103.894 70.79C104.305 70.594 104.739 70.496 105.196 70.496C105.719 70.496 106.158 70.5847 106.512 70.762C106.876 70.9393 107.17 71.182 107.394 71.49C107.628 71.798 107.791 72.162 107.884 72.582C107.987 73.002 108.038 73.4593 108.038 73.954V78H106.442V74.192C106.442 73.8747 106.419 73.5807 106.372 73.31C106.335 73.0393 106.256 72.8013 106.134 72.596C106.013 72.3813 105.84 72.2133 105.616 72.092C105.402 71.9707 105.122 71.91 104.776 71.91C104.45 71.91 104.151 71.9893 103.88 72.148C103.619 72.3067 103.414 72.512 103.264 72.764C103.124 73.016 103.022 73.296 102.956 73.604C102.9 73.912 102.872 74.206 102.872 74.486V78H101.276ZM117.853 69.432C117.33 69.4413 116.882 69.544 116.509 69.74C116.136 69.936 115.828 70.1973 115.585 70.524C115.352 70.8507 115.179 71.2333 115.067 71.672C114.955 72.1013 114.899 72.5587 114.899 73.044C114.899 73.5293 114.955 73.9913 115.067 74.43C115.188 74.8593 115.37 75.242 115.613 75.578C115.865 75.9047 116.182 76.166 116.565 76.362C116.948 76.5487 117.4 76.642 117.923 76.642C118.772 76.642 119.43 76.4227 119.897 75.984C120.373 75.536 120.62 74.9573 120.639 74.248H117.741V72.876H122.193C122.193 73.2307 122.184 73.59 122.165 73.954C122.156 74.3087 122.104 74.682 122.011 75.074C121.899 75.494 121.736 75.8907 121.521 76.264C121.306 76.628 121.031 76.9453 120.695 77.216C120.359 77.4867 119.958 77.7013 119.491 77.86C119.034 78.0187 118.506 78.098 117.909 78.098C117.134 78.098 116.453 77.9767 115.865 77.734C115.286 77.482 114.801 77.132 114.409 76.684C114.017 76.236 113.723 75.704 113.527 75.088C113.331 74.472 113.233 73.8 113.233 73.072C113.233 72.3347 113.331 71.6533 113.527 71.028C113.723 70.4027 114.012 69.866 114.395 69.418C114.787 68.9607 115.272 68.606 115.851 68.354C116.439 68.102 117.12 67.976 117.895 67.976C118.436 67.976 118.936 68.046 119.393 68.186C119.86 68.3167 120.27 68.5127 120.625 68.774C120.98 69.026 121.274 69.3433 121.507 69.726C121.74 70.0993 121.894 70.5287 121.969 71.014H120.331C120.21 70.5193 119.925 70.132 119.477 69.852C119.038 69.572 118.497 69.432 117.853 69.432ZM126.975 70.496C127.563 70.496 128.081 70.5893 128.529 70.776C128.977 70.9627 129.355 71.224 129.663 71.56C129.98 71.8867 130.218 72.2833 130.377 72.75C130.536 73.2167 130.615 73.7347 130.615 74.304C130.615 74.8827 130.536 75.4053 130.377 75.872C130.228 76.3293 129.999 76.726 129.691 77.062C129.383 77.398 129 77.6547 128.543 77.832C128.095 78.0093 127.572 78.098 126.975 78.098C126.387 78.098 125.869 78.0093 125.421 77.832C124.973 77.6453 124.595 77.3887 124.287 77.062C123.988 76.726 123.76 76.3247 123.601 75.858C123.452 75.3913 123.377 74.8733 123.377 74.304C123.377 73.7347 123.452 73.2167 123.601 72.75C123.76 72.2833 123.993 71.8867 124.301 71.56C124.609 71.224 124.987 70.9627 125.435 70.776C125.883 70.5893 126.396 70.496 126.975 70.496ZM126.975 76.712C127.339 76.712 127.647 76.6513 127.899 76.53C128.16 76.3993 128.37 76.2267 128.529 76.012C128.697 75.7973 128.818 75.5453 128.893 75.256C128.977 74.9667 129.019 74.654 129.019 74.318C129.019 73.982 128.977 73.6693 128.893 73.38C128.818 73.0813 128.697 72.8247 128.529 72.61C128.37 72.3953 128.16 72.2273 127.899 72.106C127.647 71.9847 127.339 71.924 126.975 71.924C126.62 71.924 126.317 71.9847 126.065 72.106C125.813 72.2273 125.603 72.3953 125.435 72.61C125.267 72.8247 125.141 73.0813 125.057 73.38C124.982 73.6693 124.945 73.982 124.945 74.318C124.945 74.654 124.982 74.9667 125.057 75.256C125.141 75.5453 125.262 75.7973 125.421 76.012C125.589 76.2267 125.799 76.3993 126.051 76.53C126.312 76.6513 126.62 76.712 126.975 76.712ZM135.383 70.496C135.971 70.496 136.489 70.5893 136.937 70.776C137.385 70.9627 137.763 71.224 138.071 71.56C138.389 71.8867 138.627 72.2833 138.785 72.75C138.944 73.2167 139.023 73.7347 139.023 74.304C139.023 74.8827 138.944 75.4053 138.785 75.872C138.636 76.3293 138.407 76.726 138.099 77.062C137.791 77.398 137.409 77.6547 136.951 77.832C136.503 78.0093 135.981 78.098 135.383 78.098C134.795 78.098 134.277 78.0093 133.829 77.832C133.381 77.6453 133.003 77.3887 132.695 77.062C132.397 76.726 132.168 76.3247 132.009 75.858C131.86 75.3913 131.785 74.8733 131.785 74.304C131.785 73.7347 131.86 73.2167 132.009 72.75C132.168 72.2833 132.401 71.8867 132.709 71.56C133.017 71.224 133.395 70.9627 133.843 70.776C134.291 70.5893 134.805 70.496 135.383 70.496ZM135.383 76.712C135.747 76.712 136.055 76.6513 136.307 76.53C136.569 76.3993 136.779 76.2267 136.937 76.012C137.105 75.7973 137.227 75.5453 137.301 75.256C137.385 74.9667 137.427 74.654 137.427 74.318C137.427 73.982 137.385 73.6693 137.301 73.38C137.227 73.0813 137.105 72.8247 136.937 72.61C136.779 72.3953 136.569 72.2273 136.307 72.106C136.055 71.9847 135.747 71.924 135.383 71.924C135.029 71.924 134.725 71.9847 134.473 72.106C134.221 72.2273 134.011 72.3953 133.843 72.61C133.675 72.8247 133.549 73.0813 133.465 73.38C133.391 73.6693 133.353 73.982 133.353 74.318C133.353 74.654 133.391 74.9667 133.465 75.256C133.549 75.5453 133.671 75.7973 133.829 76.012C133.997 76.2267 134.207 76.3993 134.459 76.53C134.721 76.6513 135.029 76.712 135.383 76.712ZM147.473 76.698C147.455 77.1087 147.445 77.5193 147.445 77.93C147.445 78.3407 147.389 78.756 147.277 79.176C147.053 79.9693 146.647 80.562 146.059 80.954C145.471 81.346 144.739 81.542 143.861 81.542C143.451 81.542 143.059 81.4953 142.685 81.402C142.321 81.3087 141.99 81.164 141.691 80.968C141.402 80.772 141.155 80.52 140.949 80.212C140.744 79.9133 140.609 79.5493 140.543 79.12H142.209C142.284 79.456 142.48 79.708 142.797 79.876C143.124 80.044 143.483 80.128 143.875 80.128C144.323 80.128 144.678 80.044 144.939 79.876C145.21 79.7173 145.415 79.4933 145.555 79.204C145.695 78.924 145.784 78.5973 145.821 78.224C145.859 77.86 145.877 77.4727 145.877 77.062C145.644 77.426 145.341 77.692 144.967 77.86C144.603 78.028 144.146 78.1167 143.595 78.126C142.961 78.1167 142.433 78.014 142.013 77.818C141.603 77.6127 141.262 77.3373 140.991 76.992C140.721 76.6467 140.52 76.25 140.389 75.802C140.259 75.354 140.193 74.878 140.193 74.374C140.193 73.814 140.263 73.3007 140.403 72.834C140.553 72.3673 140.772 71.9613 141.061 71.616C141.351 71.2707 141.71 71 142.139 70.804C142.569 70.608 143.068 70.51 143.637 70.51C144.123 70.51 144.552 70.594 144.925 70.762C145.308 70.9207 145.639 71.168 145.919 71.504L146.045 70.622H147.473V76.698ZM143.805 71.952C143.451 71.952 143.143 72.0127 142.881 72.134C142.629 72.2553 142.419 72.4233 142.251 72.638C142.093 72.8527 141.971 73.1093 141.887 73.408C141.813 73.6973 141.775 74.01 141.775 74.346C141.775 74.682 141.813 74.9947 141.887 75.284C141.971 75.564 142.097 75.8113 142.265 76.026C142.433 76.2407 142.643 76.4133 142.895 76.544C143.157 76.6653 143.465 76.726 143.819 76.726C144.183 76.726 144.491 76.656 144.743 76.516C145.005 76.376 145.219 76.194 145.387 75.97C145.555 75.7367 145.681 75.4753 145.765 75.186C145.849 74.8967 145.891 74.598 145.891 74.29C145.891 73.9727 145.849 73.6693 145.765 73.38C145.681 73.0907 145.551 72.8433 145.373 72.638C145.205 72.4233 144.991 72.2553 144.729 72.134C144.468 72.0127 144.16 71.952 143.805 71.952ZM149.21 78V68.102H150.806V78H149.21ZM153.862 74.85C153.88 75.1207 153.936 75.3727 154.03 75.606C154.123 75.8393 154.249 76.0447 154.408 76.222C154.576 76.39 154.776 76.5253 155.01 76.628C155.252 76.7307 155.532 76.782 155.85 76.782C156.186 76.782 156.494 76.7213 156.774 76.6C157.054 76.4787 157.259 76.2687 157.39 75.97H159.028C158.934 76.3433 158.78 76.6653 158.566 76.936C158.36 77.2067 158.113 77.4307 157.824 77.608C157.544 77.776 157.231 77.902 156.886 77.986C156.55 78.0607 156.19 78.098 155.808 78.098C155.22 78.098 154.702 78.0093 154.254 77.832C153.815 77.6547 153.446 77.398 153.148 77.062C152.849 76.726 152.625 76.3293 152.476 75.872C152.336 75.4053 152.266 74.8827 152.266 74.304C152.266 73.744 152.345 73.2353 152.504 72.778C152.662 72.3113 152.891 71.91 153.19 71.574C153.498 71.238 153.866 70.9767 154.296 70.79C154.725 70.594 155.215 70.496 155.766 70.496C156.344 70.496 156.844 70.594 157.264 70.79C157.684 70.9767 158.034 71.2333 158.314 71.56C158.603 71.8867 158.818 72.2693 158.958 72.708C159.098 73.1467 159.168 73.6227 159.168 74.136C159.168 74.3787 159.154 74.6167 159.126 74.85H153.862ZM157.614 73.646C157.595 73.086 157.418 72.652 157.082 72.344C156.746 72.036 156.312 71.882 155.78 71.882C155.481 71.882 155.22 71.9287 154.996 72.022C154.772 72.1153 154.58 72.2413 154.422 72.4C154.272 72.5587 154.151 72.7453 154.058 72.96C153.964 73.1747 153.904 73.4033 153.876 73.646H157.614Z" fill="white"/>
<defs>
<clipPath id="clip0_180_3784">
<rect width="16" height="16" fill="white" transform="translate(92 20)"/>
</clipPath>
<clipPath id="clip1_180_3784">
<rect width="16" height="16" fill="white" transform="translate(114 20)"/>
</clipPath>
<clipPath id="clip2_180_3784">
<rect width="16" height="16" fill="white" transform="translate(136 20)"/>
</clipPath>
<clipPath id="clip3_180_3784">
<rect width="16" height="16" fill="white" transform="translate(158 20)"/>
</clipPath>
<clipPath id="clip4_180_3784">
<rect width="16" height="16" fill="white" transform="translate(180 20)"/>
</clipPath>
</defs>
</svg>
