<svg width="34" height="34" viewBox="0 0 34 34" fill="none" xmlns="http://www.w3.org/2000/svg">
<rect width="34" height="34" fill="#525252"/>
<path d="M13.6129 10.2131C13.4685 10.0687 13.2725 9.98755 13.0683 9.98755C11.3667 9.98755 9.9873 11.3669 9.9873 13.0685V14.5218C9.9873 15.4519 10.2113 16.3684 10.6405 17.1936C12.0133 19.8337 14.1662 21.9866 16.8062 23.3594C17.6315 23.7885 18.5479 24.0125 19.4781 24.0125H21.5861C22.9261 24.0125 24.0123 22.9263 24.0123 21.5864C24.0123 20.978 23.7082 20.4098 23.202 20.0724C22.9354 19.8946 21.8106 19.1447 21.6668 19.1091C21.5325 19.0758 21.3921 19.0758 21.2578 19.1091C21.114 19.1447 19.8874 20.0187 19.5025 20.1897C19.1175 20.3607 18.6827 20.3827 18.2825 20.2514C18.1449 20.2063 17.3178 19.8287 16.7598 19.4563C15.7418 18.7767 15.2132 18.2646 14.5436 17.24C14.2389 16.7739 13.9188 16.0915 13.8782 15.9789C13.7123 15.5193 13.7739 14.8383 14.1186 14.38C14.4633 13.9216 15.4806 12.9943 15.5436 12.8002C15.5991 12.6295 15.5991 12.4456 15.5436 12.2749C15.4991 12.138 13.6129 10.2131 13.6129 10.2131Z" stroke="white" stroke-width="1.5" stroke-miterlimit="1.41421" stroke-linejoin="round"/>
</svg>
